STARTFONT 2.1
COMMENT
COMMENT Converted from OpenType font "UbuntuMono-BoldItalic.ttf" by "otf2bdf 3.0".
COMMENT
FONT -FreeType-Ubuntu Mono-Bold-I-Normal--39-280-100-100-P-193-ISO10646-1
SIZE 28 100 100
FONTBOUNDINGBOX 37 39 -11 -7
STARTPROPERTIES 19
FOUNDRY "FreeType"
FAMILY_NAME "Ubuntu Mono"
WEIGHT_NAME "Bold"
SLANT "I"
SETWIDTH_NAME "Normal"
ADD_STYLE_NAME ""
PIXEL_SIZE 39
POINT_SIZE 280
RESOLUTION_X 100
RESOLUTION_Y 100
SPACING "P"
AVERAGE_WIDTH 193
CHARSET_REGISTRY "ISO10646"
CHARSET_ENCODING "1"
FONT_ASCENT 32
FONT_DESCENT 6
COPYRIGHT "Copyright 2011 Canonical Ltd.  Licensed under the Ubuntu Font Licence 1.0"
_OTF_FONTFILE "UbuntuMono-BoldItalic.ttf"
_OTF_PSNAME "UbuntuMono-BoldItalic"
ENDPROPERTIES
CHARS 1224
STARTCHAR 0000
ENCODING 0
SWIDTH 488 0
DWIDTH 19 0
BBX 0 0 0 0
BITMAP
ENDCHAR
STARTCHAR 0008
ENCODING 8
SWIDTH 488 0
DWIDTH 19 0
BBX 0 0 0 0
BITMAP
ENDCHAR
STARTCHAR 0009
ENCODING 9
SWIDTH 488 0
DWIDTH 19 0
BBX 0 0 0 0
BITMAP
ENDCHAR
STARTCHAR 000D
ENCODING 13
SWIDTH 488 0
DWIDTH 19 0
BBX 0 0 0 0
BITMAP
ENDCHAR
STARTCHAR 001D
ENCODING 29
SWIDTH 488 0
DWIDTH 19 0
BBX 0 0 0 0
BITMAP
ENDCHAR
STARTCHAR 0020
ENCODING 32
SWIDTH 488 0
DWIDTH 19 0
BBX 0 0 0 0
BITMAP
ENDCHAR
STARTCHAR 0021
ENCODING 33
SWIDTH 488 0
DWIDTH 19 0
BBX 11 24 6 0
BITMAP
03E0
07E0
07E0
07C0
07C0
0FC0
0FC0
0F80
0F80
0F80
1F80
1F00
1F00
1F00
1E00
0000
0000
0000
3C00
7E00
7E00
FE00
7C00
7C00
ENDCHAR
STARTCHAR 0022
ENCODING 34
SWIDTH 488 0
DWIDTH 19 0
BBX 14 11 7 15
BITMAP
3E7C
7C7C
7C7C
7C7C
7C78
7878
78F8
78F0
70F0
70E0
E0E0
ENDCHAR
STARTCHAR 0023
ENCODING 35
SWIDTH 488 0
DWIDTH 19 0
BBX 21 24 1 0
BITMAP
003C78
0078F0
0078F0
00F0E0
00F1E0
00F1E0
1FFFF8
1FFFF8
1FFFF0
3FFFF0
03C780
078F00
078F00
0F0E00
7FFFE0
7FFFE0
7FFFC0
FFFFC0
3C3800
3C7800
3C7800
78F000
78F000
F0E000
ENDCHAR
STARTCHAR 0024
ENCODING 36
SWIDTH 488 0
DWIDTH 19 0
BBX 19 31 2 -4
BITMAP
001E00
001E00
001E00
001E00
01FF80
03FFE0
07FFC0
0FE7C0
0F8080
1F0000
1F0000
1F8000
0FC000
0FF000
07FC00
03FE00
00FF00
003F00
001F00
000F00
000F00
001F00
787F00
FFFE00
FFFE00
7FF800
0FC000
078000
078000
0F0000
0F0000
ENDCHAR
STARTCHAR 0025
ENCODING 37
SWIDTH 488 0
DWIDTH 19 0
BBX 22 26 1 -1
BITMAP
008000
07E01C
0FE038
0EF078
1C70F0
1C71E0
1CF1C0
1CE380
1CE700
1FCF00
1FDE00
0FBC00
003800
007000
00E7C0
01EFE0
03DEE0
079CE0
071CE0
0E38E0
1C38E0
3C39E0
783FC0
F01F80
E01F80
000400
ENDCHAR
STARTCHAR 0026
ENCODING 38
SWIDTH 488 0
DWIDTH 19 0
BBX 18 25 2 0
BITMAP
003800
00FE00
03FF00
07FF80
07C780
078780
0F0780
0F0F00
0F0F00
0F3E00
07FC00
07F800
07E1C0
1FE3C0
3FF3C0
7DF380
78FF80
F07F00
F07F00
F03E00
F03E00
F8FF00
FFFF00
7FEF00
3F8F80
ENDCHAR
STARTCHAR 0027
ENCODING 39
SWIDTH 488 0
DWIDTH 19 0
BBX 6 11 11 15
BITMAP
7C
7C
7C
7C
F8
F8
F8
F0
F0
E0
E0
ENDCHAR
STARTCHAR 0028
ENCODING 40
SWIDTH 488 0
DWIDTH 19 0
BBX 16 33 5 -6
BITMAP
000E
001E
007F
00FE
01F8
03F0
03E0
07C0
0F80
1F80
1F00
3E00
3E00
3C00
7C00
7C00
7800
7800
F800
F800
F800
F800
F800
F800
7800
7C00
7C00
3C00
3E00
1F00
1F80
0F00
0600
ENDCHAR
STARTCHAR 0029
ENCODING 41
SWIDTH 488 0
DWIDTH 19 0
BBX 15 35 2 -7
BITMAP
0040
00E0
01F0
01F0
00F8
00F8
007C
003C
003E
003E
003E
001E
001E
001E
001E
001E
003E
003E
003E
007C
007C
007C
00F8
01F8
01F0
03E0
07E0
0FC0
1F80
3F00
7E00
FC00
F800
6000
4000
ENDCHAR
STARTCHAR 002A
ENCODING 42
SWIDTH 488 0
DWIDTH 19 0
BBX 16 15 5 9
BITMAP
03C0
03C0
03C0
63C6
739E
FFBE
FFFF
FFFF
07C0
0FE0
1EF0
3EF8
7E7C
1C78
0C20
ENDCHAR
STARTCHAR 002B
ENCODING 43
SWIDTH 488 0
DWIDTH 19 0
BBX 17 18 3 1
BITMAP
00F000
00F000
00F000
01F000
01E000
01E000
01E000
FFFF80
FFFF80
FFFF00
FFFF00
03C000
078000
078000
078000
078000
0F0000
0F0000
ENDCHAR
STARTCHAR 002C
ENCODING 44
SWIDTH 488 0
DWIDTH 19 0
BBX 9 13 4 -6
BITMAP
0200
0F00
1F80
3F80
3F80
3F80
1F80
0700
0F00
3E00
FC00
F800
E000
ENDCHAR
STARTCHAR 002D
ENCODING 45
SWIDTH 488 0
DWIDTH 19 0
BBX 11 4 6 8
BITMAP
FFE0
FFE0
FFE0
FFC0
ENDCHAR
STARTCHAR 002E
ENCODING 46
SWIDTH 488 0
DWIDTH 19 0
BBX 7 6 6 1
BITMAP
3E
7E
FE
FE
FE
7C
ENDCHAR
STARTCHAR 002F
ENCODING 47
SWIDTH 488 0
DWIDTH 19 0
BBX 22 33 0 -6
BITMAP
00007C
00007C
0000F8
0000F8
0001F0
0003F0
0003E0
0007C0
0007C0
000F80
000F80
001F00
001F00
003E00
003E00
007C00
007C00
00F800
00F800
01F000
03F000
03E000
07C000
07C000
0F8000
0F8000
1F0000
1F0000
3E0000
3E0000
7C0000
7C0000
F80000
ENDCHAR
STARTCHAR 0030
ENCODING 48
SWIDTH 488 0
DWIDTH 19 0
BBX 18 26 3 -1
BITMAP
003800
01FE00
07FF00
0FFF80
0FDF80
1F07C0
3E07C0
3E07C0
7C07C0
7C07C0
78E7C0
79E7C0
F9E780
F9E780
F1CF80
F00F80
F00F00
F01F00
F01F00
F03E00
F87E00
FFFC00
7FF800
3FF000
1FE000
020000
ENDCHAR
STARTCHAR 0031
ENCODING 49
SWIDTH 488 0
DWIDTH 19 0
BBX 15 24 3 0
BITMAP
001E
007E
00FC
03FC
0FFC
3FFC
1F7C
1CF8
10F8
00F8
00F8
00F0
01F0
01F0
01F0
01E0
03E0
03E0
03E0
03C0
FFFE
FFFE
FFFC
FFFC
ENDCHAR
STARTCHAR 0032
ENCODING 50
SWIDTH 488 0
DWIDTH 19 0
BBX 19 25 2 0
BITMAP
001800
01FF00
07FF80
0FFFC0
0FFFC0
0707E0
0403E0
0003E0
0007C0
0007C0
000F80
003F00
007E00
00FC00
03F800
07F000
0FC000
1F8000
3F0000
7E0000
7C0000
FFFF00
FFFF00
FFFF00
FFFE00
ENDCHAR
STARTCHAR 0033
ENCODING 51
SWIDTH 488 0
DWIDTH 19 0
BBX 19 26 1 -1
BITMAP
001800
01FF80
03FFC0
03FFE0
03C7E0
0003E0
0001E0
0003E0
0003E0
0007C0
00FF80
01FF00
01FC00
01FF00
003F80
000F80
000780
0007C0
0007C0
000F80
201F80
7EFF00
7FFF00
FFFE00
7FF800
030000
ENDCHAR
STARTCHAR 0034
ENCODING 52
SWIDTH 488 0
DWIDTH 19 0
BBX 19 24 2 0
BITMAP
0003E0
0007E0
000FE0
001FC0
003FC0
007FC0
00F7C0
01E780
03C780
078F80
0F0F80
1E0F00
3C0F00
7C1F00
781F00
FFFFC0
FFFFC0
FFFFC0
003E00
003C00
003C00
007C00
007C00
007800
ENDCHAR
STARTCHAR 0035
ENCODING 53
SWIDTH 488 0
DWIDTH 19 0
BBX 20 25 1 -1
BITMAP
00FFF0
01FFF0
01FFF0
01FFF0
01E000
03C000
03C000
03C000
078000
07F000
07FC00
0FFF00
07FF80
001F80
000F80
0007C0
0007C0
000780
000F80
201F80
7EFF00
7FFF00
FFFE00
3FF800
030000
ENDCHAR
STARTCHAR 0036
ENCODING 54
SWIDTH 488 0
DWIDTH 19 0
BBX 19 25 3 -1
BITMAP
000FE0
007FC0
01FFC0
03FFC0
0FF000
0F8000
1F0000
3E0000
3C0000
7DF800
7FFE00
FFFF00
FF7F00
F81F00
F80F80
F00F80
F00F80
F80F00
F81F00
F81F00
7FFE00
7FFC00
3FF800
0FF000
010000
ENDCHAR
STARTCHAR 0037
ENCODING 55
SWIDTH 488 0
DWIDTH 19 0
BBX 18 24 5 0
BITMAP
7FFFC0
7FFFC0
7FFF80
FFFF80
001F00
003E00
007C00
00F800
00F800
01F000
03E000
07C000
07C000
0F8000
0F8000
1F0000
1F0000
3E0000
3E0000
7C0000
7C0000
F80000
F80000
F80000
ENDCHAR
STARTCHAR 0038
ENCODING 56
SWIDTH 488 0
DWIDTH 19 0
BBX 19 26 2 -1
BITMAP
001800
00FF00
03FFC0
07FFC0
07C7E0
0F83E0
0F01E0
0F03E0
0F03E0
0F87C0
07CF80
07FF00
03FC00
0FFE00
1F7F00
3E1F00
7C0F80
780F80
F80F80
F80F80
F81F00
7E3F00
7FFE00
3FFC00
1FF800
010000
ENDCHAR
STARTCHAR 0039
ENCODING 57
SWIDTH 488 0
DWIDTH 19 0
BBX 19 25 2 0
BITMAP
003800
03FE00
07FF80
0FFF80
1FDFC0
1F07C0
3E03E0
3E03E0
3E03E0
3E03E0
3E03E0
3E03E0
1FFFC0
1FFFC0
0FFFC0
03E7C0
000F80
000F80
001F00
007E00
01FC00
7FF800
7FF000
FFC000
FE0000
ENDCHAR
STARTCHAR 003A
ENCODING 58
SWIDTH 488 0
DWIDTH 19 0
BBX 10 18 6 0
BITMAP
0780
0FC0
1FC0
1FC0
1FC0
0F80
0600
0000
0000
0000
0000
0000
3E00
7E00
FE00
FE00
FE00
7C00
ENDCHAR
STARTCHAR 003B
ENCODING 59
SWIDTH 488 0
DWIDTH 19 0
BBX 12 24 4 -6
BITMAP
01E0
03F0
07F0
07F0
07F0
03E0
0180
0000
0000
0000
0000
0200
0F00
1F80
3F80
3F80
3F80
1F80
0700
0F00
3E00
FC00
F800
E000
ENDCHAR
STARTCHAR 003C
ENCODING 60
SWIDTH 488 0
DWIDTH 19 0
BBX 18 16 3 2
BITMAP
0001C0
000FC0
003FC0
01FFC0
07FF00
3FF800
7FC000
7E0000
FE0000
FF8000
3FE000
0FF800
03FE00
00FE00
003E00
000C00
ENDCHAR
STARTCHAR 003D
ENCODING 61
SWIDTH 488 0
DWIDTH 19 0
BBX 19 12 2 4
BITMAP
3FFFE0
3FFFC0
3FFFC0
3FFFC0
000000
000000
000000
000000
FFFF80
FFFF80
FFFF00
FFFF00
ENDCHAR
STARTCHAR 003E
ENCODING 62
SWIDTH 488 0
DWIDTH 19 0
BBX 18 16 2 2
BITMAP
0C0000
1F0000
1FC000
1FF000
07FC00
01FF00
007FC0
001F80
003F80
01FF80
0FFF00
3FF800
FFC000
FF0000
F80000
C00000
ENDCHAR
STARTCHAR 003F
ENCODING 63
SWIDTH 488 0
DWIDTH 19 0
BBX 15 25 6 0
BITMAP
0180
1FF8
3FFC
3FFC
3DFE
207E
007E
007C
00FC
01F8
03F0
0FE0
0F80
1F00
3E00
3E00
0000
0000
0000
3800
7C00
FC00
FC00
FC00
7800
ENDCHAR
STARTCHAR 0040
ENCODING 64
SWIDTH 488 0
DWIDTH 19 0
BBX 20 30 2 -5
BITMAP
001C00
00FFC0
01FFE0
03FFE0
07C1F0
0F00F0
1E00F0
1E00F0
3C1FF0
3C7FE0
78FFE0
78FFE0
71F1E0
71E3C0
F3C3C0
F3C3C0
F3C3C0
F3C780
F3C780
F3E780
F1FF80
F1FF00
F0FF00
781C00
780000
7C0000
3F0000
1FFC00
0FFC00
07FC00
ENDCHAR
STARTCHAR 0041
ENCODING 65
SWIDTH 488 0
DWIDTH 19 0
BBX 19 24 0 0
BITMAP
000F80
001F80
001F80
003FC0
007FC0
007BC0
00FBC0
00F3C0
01F3C0
01E3C0
03E3C0
03C3C0
07C3C0
0783C0
0F83C0
0FFFC0
1FFFC0
1FFFC0
3E03C0
3E03C0
7C03E0
7C03E0
F803E0
F803E0
ENDCHAR
STARTCHAR 0042
ENCODING 66
SWIDTH 488 0
DWIDTH 19 0
BBX 19 24 2 0
BITMAP
07FF00
07FF80
07FFC0
0FFFE0
0F83E0
0F83E0
0F03E0
1F03C0
1F07C0
1F3F80
1FFF00
3FFE00
3FFF00
3E3F80
3C0F80
7C07C0
7C07C0
7C0780
780F80
F81F80
FFFF00
FFFE00
FFFC00
FFF000
ENDCHAR
STARTCHAR 0043
ENCODING 67
SWIDTH 488 0
DWIDTH 19 0
BBX 19 26 3 -1
BITMAP
000E00
00FFC0
01FFE0
03FFE0
07FFC0
0FC040
1F8000
1F0000
3E0000
3E0000
7C0000
7C0000
7C0000
7C0000
780000
F80000
F80000
F80000
F80000
7C0000
7E0400
7FFE00
3FFE00
1FFE00
0FFC00
018000
ENDCHAR
STARTCHAR 0044
ENCODING 68
SWIDTH 488 0
DWIDTH 19 0
BBX 20 24 1 0
BITMAP
03FE00
03FF80
07FFC0
07FFE0
07C7E0
0783E0
0F81E0
0F81F0
0F81F0
0F01F0
1F01E0
1F03E0
1F03E0
1E03E0
3E03E0
3E07C0
3E07C0
3E0FC0
7C1F80
7C3F00
7FFE00
7FFC00
FFF800
FFE000
ENDCHAR
STARTCHAR 0045
ENCODING 69
SWIDTH 488 0
DWIDTH 19 0
BBX 20 24 2 0
BITMAP
03FFF0
07FFF0
07FFE0
07FFE0
07C000
0F8000
0F8000
0F8000
0F8000
0FFF80
1FFF00
1FFF00
1FFF00
1E0000
3E0000
3E0000
3E0000
3C0000
7C0000
7C0000
7FFF00
7FFF00
FFFF00
FFFE00
ENDCHAR
STARTCHAR 0046
ENCODING 70
SWIDTH 488 0
DWIDTH 19 0
BBX 21 24 2 0
BITMAP
03FFF8
03FFF0
07FFF0
07FFF0
07C000
078000
0F8000
0F8000
0F8000
0F0000
1FFF80
1FFF80
1FFF00
1FFF00
3E0000
3E0000
3E0000
3E0000
3C0000
7C0000
7C0000
7C0000
780000
F80000
ENDCHAR
STARTCHAR 0047
ENCODING 71
SWIDTH 488 0
DWIDTH 19 0
BBX 19 26 3 -1
BITMAP
000E00
00FFC0
01FFE0
07FFE0
0FFFC0
0FC040
1F0000
3F0000
3E0000
7C0000
7C0000
7C0000
F80F80
F80F80
F80F80
F81F00
F81F00
F81F00
F81F00
F81E00
FC3E00
7FFE00
7FFE00
3FFC00
1FFC00
010000
ENDCHAR
STARTCHAR 0048
ENCODING 72
SWIDTH 488 0
DWIDTH 19 0
BBX 22 24 1 0
BITMAP
03C07C
07C078
07C0F8
07C0F8
07C0F8
0F80F0
0F81F0
0F81F0
0F81F0
1FFFF0
1FFFE0
1FFFE0
1FFFE0
1E03E0
3E07C0
3E07C0
3E07C0
3C07C0
7C0780
7C0F80
7C0F80
780F80
F80F00
F81F00
ENDCHAR
STARTCHAR 0049
ENCODING 73
SWIDTH 488 0
DWIDTH 19 0
BBX 21 24 1 0
BITMAP
03FFF8
03FFF8
07FFF8
07FFF8
003E00
003E00
003E00
003C00
007C00
007C00
007C00
007800
00F800
00F800
00F800
00F000
01F000
01F000
01F000
01F000
7FFF00
7FFF00
7FFF00
FFFF00
ENDCHAR
STARTCHAR 004A
ENCODING 74
SWIDTH 488 0
DWIDTH 19 0
BBX 20 25 2 -1
BITMAP
01FFF0
01FFE0
03FFE0
03FFE0
0003E0
0003C0
0007C0
0007C0
0007C0
000780
000F80
000F80
000F80
000F00
001F00
001F00
001F00
001E00
003E00
607E00
FFFC00
FFFC00
FFF800
3FE000
020000
ENDCHAR
STARTCHAR 004B
ENCODING 75
SWIDTH 488 0
DWIDTH 19 0
BBX 22 24 1 0
BITMAP
03E07C
03C0F8
07C1F0
07C3F0
07C7E0
0787C0
0F8F80
0F9F00
0FBE00
0F7C00
1FF800
1FF000
1FF800
1FFC00
3E7C00
3E7E00
3E3E00
3E3F00
3C1F00
7C1F00
7C0F80
7C0F80
780F80
F807C0
ENDCHAR
STARTCHAR 004C
ENCODING 76
SWIDTH 488 0
DWIDTH 19 0
BBX 16 24 2 0
BITMAP
07C0
07C0
07C0
0780
0F80
0F80
0F80
0F00
1F00
1F00
1F00
1F00
3E00
3E00
3E00
3E00
3C00
7C00
7C00
7C00
7FFF
FFFE
FFFE
FFFE
ENDCHAR
STARTCHAR 004D
ENCODING 77
SWIDTH 488 0
DWIDTH 19 0
BBX 22 24 0 0
BITMAP
01E03C
01E07C
03F07C
03F0FC
03F0FC
07F1FC
07F1F8
0773B8
0773F8
0F7778
0F7778
0F7E70
1E7EF0
1E7CF0
1E38F0
1E00F0
3C01E0
3C01E0
3C01E0
7C01E0
7803E0
7803C0
7803C0
F803C0
ENDCHAR
STARTCHAR 004E
ENCODING 78
SWIDTH 488 0
DWIDTH 19 0
BBX 22 24 1 0
BITMAP
03C07C
07C078
07E078
07E078
07E0F8
0FF0F0
0FF0F0
0F70F0
0F71F0
1F79E0
1E79E0
1E39E0
1E39E0
1E3BE0
3E3FC0
3C3FC0
3C1FC0
3C1FC0
7C1F80
781F80
781F80
780F80
F80F00
F00F00
ENDCHAR
STARTCHAR 004F
ENCODING 79
SWIDTH 488 0
DWIDTH 19 0
BBX 18 26 3 -1
BITMAP
003800
01FE00
07FF00
0FFF80
1FFF80
1F07C0
3E07C0
3E07C0
7C07C0
7C07C0
7C07C0
F807C0
F807C0
F80780
F80F80
F80F80
F00F80
F01F00
F01F00
F83E00
F87E00
FFFC00
7FF800
7FF000
1FE000
020000
ENDCHAR
STARTCHAR 0050
ENCODING 80
SWIDTH 488 0
DWIDTH 19 0
BBX 20 24 2 0
BITMAP
07FF00
07FFC0
07FFE0
0FFFE0
0F83E0
0F83F0
0F01F0
1F01F0
1F01E0
1F03E0
1F07E0
3E3FC0
3FFF80
3FFF00
3FFC00
3FE000
7C0000
7C0000
7C0000
780000
F80000
F80000
F80000
F00000
ENDCHAR
STARTCHAR 0051
ENCODING 81
SWIDTH 488 0
DWIDTH 19 0
BBX 18 32 3 -7
BITMAP
003800
01FE00
07FF00
0FFF80
0FFF80
1F07C0
3E07C0
3E07C0
7C07C0
7C07C0
7C07C0
F807C0
F807C0
F80780
F80F80
F80F80
F00F80
F01F00
F01F00
F83E00
F87E00
FFFC00
7FF800
7FF000
1FE000
0F0000
0F0000
0F8000
07F800
03F800
01F000
001000
ENDCHAR
STARTCHAR 0052
ENCODING 82
SWIDTH 488 0
DWIDTH 19 0
BBX 20 24 1 0
BITMAP
03FF80
03FFC0
07FFE0
07FFE0
07C3F0
0781F0
0F81F0
0F81F0
0F81E0
0F83E0
0F07E0
1FFFC0
1FFF80
1FFE00
1FFC00
3E3E00
3E3E00
3E1E00
3C1F00
7C1F00
7C0F00
7C0F80
780F80
F80780
ENDCHAR
STARTCHAR 0053
ENCODING 83
SWIDTH 488 0
DWIDTH 19 0
BBX 20 26 1 -1
BITMAP
001E00
00FFE0
01FFF0
03FFE0
07F7E0
07C000
0F8000
0F8000
0F8000
0FC000
07F000
07FC00
03FE00
00FF00
007F80
001F80
000F80
000F80
000780
000F80
300F80
7FFF00
7FFF00
FFFE00
3FF800
010000
ENDCHAR
STARTCHAR 0054
ENCODING 84
SWIDTH 488 0
DWIDTH 19 0
BBX 18 24 5 0
BITMAP
7FFFC0
7FFFC0
FFFFC0
FFFFC0
03E000
03E000
03E000
07C000
07C000
07C000
07C000
078000
0F8000
0F8000
0F8000
0F0000
1F0000
1F0000
1F0000
1E0000
3E0000
3E0000
3E0000
3C0000
ENDCHAR
STARTCHAR 0055
ENCODING 85
SWIDTH 488 0
DWIDTH 19 0
BBX 19 25 3 -1
BITMAP
0F01E0
1F03E0
1F03E0
1F03E0
1E03C0
3E07C0
3E07C0
3E07C0
3C0780
7C0F80
7C0F80
7C0F80
780F00
F81F00
F81F00
F81F00
F81E00
F03E00
F03E00
F87C00
FFFC00
FFF800
7FF000
3FE000
060000
ENDCHAR
STARTCHAR 0056
ENCODING 86
SWIDTH 488 0
DWIDTH 19 0
BBX 19 24 5 0
BITMAP
F803E0
F807C0
F807C0
F80780
F80F80
F80F00
F81F00
F81F00
F83E00
F83E00
F87C00
787C00
787800
78F800
78F000
79F000
79E000
7BC000
7BC000
7F8000
7F8000
7F0000
7F0000
3E0000
ENDCHAR
STARTCHAR 0057
ENCODING 87
SWIDTH 488 0
DWIDTH 19 0
BBX 22 24 2 0
BITMAP
0F007C
0F0078
1F0078
1F00F8
1E00F0
1E00F0
1E00F0
3E00F0
3C71E0
3CF1E0
3CF1E0
3DF9E0
79FBC0
7BBBC0
7BBBC0
7F3B80
773F80
FE3F80
FE3F80
FC3F00
FC3F00
F83F00
F83E00
F01E00
ENDCHAR
STARTCHAR 0058
ENCODING 88
SWIDTH 488 0
DWIDTH 19 0
BBX 23 24 0 0
BITMAP
03E03E
03E03E
01F07C
01F0F8
00F1F0
00F9F0
00FBE0
007FC0
007F80
003F00
003F00
003E00
007F00
00FF00
01FF00
01FF80
03EF80
07CF80
0F8780
1F87C0
1F07C0
3E07C0
7E07C0
FC03C0
ENDCHAR
STARTCHAR 0059
ENCODING 89
SWIDTH 488 0
DWIDTH 19 0
BBX 18 24 6 0
BITMAP
F007C0
F00F80
F81F00
F81F00
F83E00
F83E00
787C00
78F800
7CF000
7DF000
3FE000
3FC000
3FC000
3F8000
1F0000
1F0000
3E0000
3E0000
3E0000
3E0000
7C0000
7C0000
7C0000
7C0000
ENDCHAR
STARTCHAR 005A
ENCODING 90
SWIDTH 488 0
DWIDTH 19 0
BBX 21 24 1 0
BITMAP
03FFF8
03FFF8
03FFF8
07FFF0
0003F0
0007E0
0007C0
000F80
001F00
003E00
007C00
00FC00
01F800
01F000
03E000
07C000
0F8000
1F8000
1F0000
3E0000
7FFF80
7FFF80
FFFF00
FFFF00
ENDCHAR
STARTCHAR 005B
ENCODING 91
SWIDTH 488 0
DWIDTH 19 0
BBX 18 33 4 -6
BITMAP
01FFC0
01FFC0
01FFC0
01FFC0
03E000
03E000
03E000
03C000
07C000
07C000
07C000
078000
0F8000
0F8000
0F8000
0F0000
0F0000
1F0000
1F0000
1E0000
1E0000
3E0000
3E0000
3C0000
3C0000
7C0000
7C0000
780000
780000
F80000
FFE000
FFE000
FFC000
ENDCHAR
STARTCHAR 005C
ENCODING 92
SWIDTH 488 0
DWIDTH 19 0
BBX 8 33 8 -6
BITMAP
F8
F8
F8
F8
F8
78
78
78
78
78
7C
7C
7C
7C
7C
7C
3C
3C
3C
3C
3E
3E
3E
3E
3E
3E
3E
1E
1E
1E
1E
1F
1F
ENDCHAR
STARTCHAR 005D
ENCODING 93
SWIDTH 488 0
DWIDTH 19 0
BBX 18 33 1 -6
BITMAP
01FFC0
01FFC0
01FFC0
01FFC0
000780
000780
000F80
000F80
000F00
000F00
001F00
001F00
001E00
001E00
003E00
003E00
003C00
003C00
007C00
007C00
007C00
007800
00F800
00F800
00F800
00F000
01F000
01F000
01F000
01E000
FFE000
FFE000
FFE000
ENDCHAR
STARTCHAR 005E
ENCODING 94
SWIDTH 488 0
DWIDTH 19 0
BBX 18 14 3 10
BITMAP
007C00
00FC00
00FE00
01FE00
03FE00
07DF00
0FDF00
1F9F00
1F0F80
3E0F80
7C0F80
FC07C0
780780
100600
ENDCHAR
STARTCHAR 005F
ENCODING 95
SWIDTH 488 0
DWIDTH 19 0
BBX 18 4 -1 -6
BITMAP
7FFFC0
FFFFC0
FFFFC0
FFFF80
ENDCHAR
STARTCHAR 0060
ENCODING 96
SWIDTH 488 0
DWIDTH 19 0
BBX 8 7 9 20
BITMAP
20
30
7C
FE
3F
1F
07
ENDCHAR
STARTCHAR 0061
ENCODING 97
SWIDTH 488 0
DWIDTH 19 0
BBX 18 19 2 0
BITMAP
003C00
01FFC0
07FFC0
0FFFC0
1FCFC0
3F0780
3E0F80
7C0F80
7C0F80
7C0F80
781F00
F81F00
F81F00
781F00
7C3F00
7FFF00
7FFF00
3FFF00
1FCF00
ENDCHAR
STARTCHAR 0062
ENCODING 98
SWIDTH 488 0
DWIDTH 19 0
BBX 18 28 2 -1
BITMAP
00E000
03C000
07C000
07C000
07C000
078000
0F8000
0F8000
0F9800
0FFE00
1FFF00
1FFF80
1FDF80
1E0F80
3E0780
3E07C0
3E0780
3E0780
7C0F80
7C0F80
7C0F80
7C1F00
F83F00
FFFE00
FFFC00
FFF800
FFE000
020000
ENDCHAR
STARTCHAR 0063
ENCODING 99
SWIDTH 488 0
DWIDTH 19 0
BBX 18 19 3 0
BITMAP
003E00
03FFC0
07FF80
1FFF80
1FF700
3F0000
7E0000
7C0000
F80000
F80000
F80000
F80000
F80000
F80000
FC0000
7FFC00
7FFE00
3FFE00
0FFC00
ENDCHAR
STARTCHAR 0064
ENCODING 100
SWIDTH 488 0
DWIDTH 19 0
BBX 21 27 2 0
BITMAP
000038
0000F0
0001F0
0001F0
0001F0
0001E0
0003E0
0003E0
001BE0
01FFC0
07FFC0
0FFFC0
1FCFC0
3F0780
3E0F80
7C0F80
7C0F80
7C0F80
781F00
F81F00
F81F00
781F00
7C3F00
7FFF00
7FFF00
3FFF00
1FCF00
ENDCHAR
STARTCHAR 0065
ENCODING 101
SWIDTH 488 0
DWIDTH 19 0
BBX 17 19 3 0
BITMAP
007800
03FE00
0FFF00
1FFF80
3F0F80
3E0780
7C0780
780F80
F83F00
FFFF00
FFFC00
FFF000
FC0000
F80000
F80000
7FFC00
7FFC00
3FFC00
1FFC00
ENDCHAR
STARTCHAR 0066
ENCODING 102
SWIDTH 488 0
DWIDTH 19 0
BBX 24 34 -1 -7
BITMAP
0000FE
0003FF
0007FE
000FFE
000F80
001F00
001F00
001E00
003E00
03FFFC
03FFF8
03FFF8
03FFF8
007C00
007C00
007C00
007C00
007C00
00F800
00F800
00F800
00F800
00F800
01F000
01F000
01F000
01F000
03E000
03E000
7FE000
FFC000
FF8000
FF0000
380000
ENDCHAR
STARTCHAR 0067
ENCODING 103
SWIDTH 488 0
DWIDTH 19 0
BBX 21 26 0 -7
BITMAP
000F00
007FF8
01FFF0
03FFF0
07F1F0
07C1F0
0F81F0
0F03E0
1F03E0
1F03E0
1F03E0
1F03C0
1F07C0
1F8FC0
1FFFC0
0FFF80
07FF80
01EF80
000F80
001F00
003F00
7FFE00
7FFE00
FFFC00
7FF000
030000
ENDCHAR
STARTCHAR 0068
ENCODING 104
SWIDTH 488 0
DWIDTH 19 0
BBX 17 27 2 0
BITMAP
00E000
03E000
03C000
07C000
07C000
07C000
078000
0F8000
0FB800
0FFF00
0FFF80
1FFF80
1FFF80
1F0F80
1F0F80
3E0F80
3E0F80
3E0F80
3E0F80
7C1F00
7C1F00
7C1F00
7C1F00
781E00
F83E00
F83E00
F83E00
ENDCHAR
STARTCHAR 0069
ENCODING 105
SWIDTH 488 0
DWIDTH 19 0
BBX 14 27 4 0
BITMAP
0040
01F0
03F0
03F0
03F0
01E0
0080
0000
0000
7FE0
7FE0
7FC0
FFC0
07C0
07C0
07C0
0F80
0F80
0F80
0F80
0F00
1F00
1F80
1FFC
0FFC
0FFC
07FC
ENDCHAR
STARTCHAR 006A
ENCODING 106
SWIDTH 488 0
DWIDTH 19 0
BBX 19 34 0 -7
BITMAP
000100
0007C0
0007E0
0007E0
0007C0
0007C0
000000
000000
000000
03FFC0
03FFC0
03FFC0
07FFC0
000F80
000F80
000F80
000F80
000F00
001F00
001F00
001F00
001E00
003E00
003E00
003E00
003C00
007C00
007C00
40FC00
7FF800
FFF800
FFF000
7FE000
060000
ENDCHAR
STARTCHAR 006B
ENCODING 107
SWIDTH 488 0
DWIDTH 19 0
BBX 20 27 2 0
BITMAP
00E000
03E000
03E000
03E000
03C000
07C000
07C000
07C000
078000
0F83F0
0F87C0
0F8FC0
0F1F80
1F3F00
1F7C00
1FF800
1FF000
3FF000
3FF000
3EF800
3CFC00
7C7C00
7C3E00
7C3E00
7C3F00
F81F00
F81F00
ENDCHAR
STARTCHAR 006C
ENCODING 108
SWIDTH 488 0
DWIDTH 19 0
BBX 12 27 6 0
BITMAP
7FC0
FFC0
FFC0
FFC0
0780
0F80
0F80
0F80
0F00
1F00
1F00
1F00
1F00
3E00
3E00
3E00
3E00
3C00
7C00
7C00
7C00
7C00
7C00
7FE0
7FF0
3FF0
3FE0
ENDCHAR
STARTCHAR 006D
ENCODING 109
SWIDTH 488 0
DWIDTH 19 0
BBX 20 18 1 0
BITMAP
0FF7E0
0FFFE0
0FFFF0
1E79F0
1E78F0
1E79E0
1C79E0
3C79E0
3CF1E0
3CF3C0
3CF3C0
7803C0
7803C0
780380
780780
F00780
F00780
F00700
ENDCHAR
STARTCHAR 006E
ENCODING 110
SWIDTH 488 0
DWIDTH 19 0
BBX 17 19 2 0
BITMAP
007800
0FFF00
0FFF80
1FFF80
1FFF80
1F0F80
1F0F80
3E0F80
3E0F80
3E0F80
3E0F80
3C1F00
7C1F00
7C1F00
7C1F00
783E00
F83E00
F83E00
F83E00
ENDCHAR
STARTCHAR 006F
ENCODING 111
SWIDTH 488 0
DWIDTH 19 0
BBX 17 20 3 -1
BITMAP
00F000
07FC00
0FFE00
1FFF00
3F3F00
7E1F80
7C0F80
F80F80
F80F80
F80F00
F00F00
F01F00
F01F00
F83E00
F87E00
FFFC00
FFF800
7FF000
3FE000
040000
ENDCHAR
STARTCHAR 0070
ENCODING 112
SWIDTH 488 0
DWIDTH 19 0
BBX 20 25 0 -6
BITMAP
003C00
03FF80
07FFC0
07FFE0
07C7E0
07C1F0
0F81F0
0F81F0
0F81F0
0F81E0
0F03E0
1F03E0
1F07E0
1F07C0
1E1FC0
3FFF80
3FFF00
3FFE00
3FF800
7C0000
7C0000
7C0000
780000
F80000
F80000
ENDCHAR
STARTCHAR 0071
ENCODING 113
SWIDTH 488 0
DWIDTH 19 0
BBX 18 25 3 -6
BITMAP
007C00
03FF80
0FFFC0
1FFF80
3F8F80
3E0F80
7C0F80
7C0F00
F81F00
F81F00
F81F00
F81E00
F83E00
F83E00
F83E00
FFFC00
7FFC00
7FFC00
3FFC00
007800
00F800
00F800
00F800
00F000
01F000
ENDCHAR
STARTCHAR 0072
ENCODING 114
SWIDTH 488 0
DWIDTH 19 0
BBX 18 19 3 0
BITMAP
003E00
07FFC0
0FFF80
1FFF80
1FFF00
1F0000
1E0000
3E0000
3E0000
3E0000
3E0000
7C0000
7C0000
7C0000
7C0000
780000
F80000
F80000
F80000
ENDCHAR
STARTCHAR 0073
ENCODING 115
SWIDTH 488 0
DWIDTH 19 0
BBX 18 20 2 -1
BITMAP
007C00
03FFC0
07FF80
0FFF80
0F8300
1F0000
1F0000
1FC000
0FF000
0FFC00
03FE00
00FE00
003F00
001F00
603E00
7FFE00
7FFE00
FFFC00
7FF000
030000
ENDCHAR
STARTCHAR 0074
ENCODING 116
SWIDTH 488 0
DWIDTH 19 0
BBX 16 24 4 0
BITMAP
0020
03E0
03C0
07C0
07C0
07C0
7FFF
7FFF
7FFF
FFFF
0F80
1F00
1F00
1F00
1F00
1E00
3E00
3E00
3E00
3E04
3FFC
3FFC
1FFC
0FF8
ENDCHAR
STARTCHAR 0075
ENCODING 117
SWIDTH 488 0
DWIDTH 19 0
BBX 17 18 3 0
BITMAP
3E0F80
3E0F80
3E0F80
3E0F80
3C1F00
7C1F00
7C1F00
7C1F00
781E00
F83E00
F83E00
F83E00
F83E00
F87C00
FFFE00
FFFE00
7FFE00
3F9E00
ENDCHAR
STARTCHAR 0076
ENCODING 118
SWIDTH 488 0
DWIDTH 19 0
BBX 17 18 4 0
BITMAP
F80F80
F80F80
F81F00
F81F00
F81F00
783E00
783E00
7C7C00
7C7800
7CF800
7DF000
7DF000
3FE000
3FC000
3FC000
3F8000
3F0000
1E0000
ENDCHAR
STARTCHAR 0077
ENCODING 119
SWIDTH 488 0
DWIDTH 19 0
BBX 20 18 2 0
BITMAP
3C00F0
3C00F0
3C00F0
7871E0
78F1E0
78F1E0
79F3C0
79F3C0
7BF3C0
73F380
77F780
777700
7F3700
7E3F00
7C3E00
FC3E00
F83C00
F83C00
ENDCHAR
STARTCHAR 0078
ENCODING 120
SWIDTH 488 0
DWIDTH 19 0
BBX 20 18 1 0
BITMAP
0F81F0
0F83E0
07C7C0
07C7C0
03CF80
03FF00
01FE00
01FC00
00F800
01FC00
03FC00
07FE00
0FBE00
1FBE00
1F1F00
3E1F00
7C0F80
F80F80
ENDCHAR
STARTCHAR 0079
ENCODING 121
SWIDTH 488 0
DWIDTH 19 0
BBX 23 24 -2 -7
BITMAP
03E03E
03E03E
01E07C
01F07C
01F078
01F0F8
01F0F8
01F1F0
01F1F0
01F3E0
00F3E0
00F7C0
00FFC0
00FF80
00FF00
007F00
007E00
007C00
00F800
01F800
3FF000
7FE000
7FC000
FF0000
ENDCHAR
STARTCHAR 007A
ENCODING 122
SWIDTH 488 0
DWIDTH 19 0
BBX 18 18 2 0
BITMAP
0FFFC0
0FFFC0
0FFFC0
0FFF80
001F00
003E00
007C00
00F800
01F000
03E000
07C000
0F8000
1F0000
3E0000
7FFE00
7FFE00
FFFE00
FFFE00
ENDCHAR
STARTCHAR 007B
ENCODING 123
SWIDTH 488 0
DWIDTH 19 0
BBX 18 33 4 -6
BITMAP
001FC0
007FC0
00FFC0
00FFC0
00F000
01F000
01E000
01E000
01E000
03E000
03E000
03C000
03C000
07C000
0F8000
7F0000
FC0000
FE0000
3E0000
1F0000
0F0000
1F0000
1F0000
1E0000
1E0000
1E0000
3E0000
3E0000
3C0000
3F0000
3FF000
1FE000
0FE000
ENDCHAR
STARTCHAR 007C
ENCODING 124
SWIDTH 488 0
DWIDTH 19 0
BBX 13 33 5 -6
BITMAP
00F8
00F0
01F0
01F0
01F0
01E0
03E0
03E0
03E0
03C0
07C0
07C0
07C0
0780
0F80
0F80
0F80
0F80
1F00
1F00
1F00
1F00
3E00
3E00
3E00
3E00
3C00
7C00
7C00
7C00
7800
F800
F800
ENDCHAR
STARTCHAR 007D
ENCODING 125
SWIDTH 488 0
DWIDTH 19 0
BBX 19 33 0 -6
BITMAP
00FE00
01FF00
01FF00
01FF80
000F80
000F80
000F00
000F00
000F00
001F00
001E00
001E00
001E00
001E00
001F00
000FE0
0007C0
001FC0
003F00
007C00
007800
00F800
00F800
00F000
00F000
01F000
01F000
01E000
01E000
07E000
7FC000
7FC000
FF0000
ENDCHAR
STARTCHAR 007E
ENCODING 126
SWIDTH 488 0
DWIDTH 19 0
BBX 19 7 2 7
BITMAP
070100
1FC1E0
3FF3C0
7FFFC0
7FFF80
F0FF00
707E00
ENDCHAR
STARTCHAR 00A0
ENCODING 160
SWIDTH 488 0
DWIDTH 19 0
BBX 0 0 0 0
BITMAP
ENDCHAR
STARTCHAR 00A1
ENCODING 161
SWIDTH 488 0
DWIDTH 19 0
BBX 11 24 5 -6
BITMAP
03C0
07E0
07E0
0FE0
07C0
07C0
0000
0000
0000
0F00
0F00
1F00
1F00
1F00
3F00
3F00
3E00
3E00
7E00
7E00
7C00
7C00
FC00
FC00
ENDCHAR
STARTCHAR 00A2
ENCODING 162
SWIDTH 488 0
DWIDTH 19 0
BBX 18 28 3 -4
BITMAP
001F00
001E00
003E00
003E00
003E00
01FF80
07FFC0
0FFF80
1FFF80
3F8100
3E0000
7C0000
7C0000
780000
F80000
F80000
F80000
7C0000
7F0E00
7FFE00
3FFE00
1FFE00
07F800
07C000
07C000
07C000
078000
0F8000
ENDCHAR
STARTCHAR 00A3
ENCODING 163
SWIDTH 488 0
DWIDTH 19 0
BBX 19 25 3 0
BITMAP
000200
003FE0
00FFE0
01FFE0
01FDC0
03E000
03E000
07C000
07C000
07C000
078000
7FFE00
7FFE00
7FFE00
FFFC00
1F0000
1F0000
1F0000
3E0000
3E0000
3C0000
7FFF00
7FFE00
7FFE00
FFFE00
ENDCHAR
STARTCHAR 00A4
ENCODING 164
SWIDTH 488 0
DWIDTH 19 0
BBX 18 17 3 3
BITMAP
000200
300700
7BFF80
FFFFC0
7FFF80
3FFF00
3E1F00
3C0F00
3C0F00
3C0F00
3C1F00
3E1F00
3FFF00
7FFF80
FFFFC0
79EF80
300300
ENDCHAR
STARTCHAR 00A5
ENCODING 165
SWIDTH 488 0
DWIDTH 19 0
BBX 21 24 3 0
BITMAP
3E00F8
3E01F0
1F03E0
1F03E0
1F07C0
0F0F80
0F8F80
0F9F00
07BE00
07FC00
07FC00
7FFF80
7FFF00
7FFF00
03E000
03E000
07C000
FFFE00
FFFE00
FFFE00
0F8000
0F8000
0F8000
0F8000
ENDCHAR
STARTCHAR 00A6
ENCODING 166
SWIDTH 488 0
DWIDTH 19 0
BBX 13 33 5 -6
BITMAP
00F8
00F8
01F0
01F0
01F0
01F0
01E0
03E0
03E0
03E0
03C0
07C0
07C0
07C0
0000
0000
0000
0000
0000
0000
1F00
1F00
1E00
3E00
3E00
3E00
3E00
7C00
7C00
7C00
7C00
7800
F800
ENDCHAR
STARTCHAR 00A7
ENCODING 167
SWIDTH 488 0
DWIDTH 19 0
BBX 18 29 2 -4
BITMAP
000C00
00FFC0
01FFC0
03FFC0
07E080
07C000
07C000
07E000
03F800
07FE00
0FFF00
1F3F80
1E0F80
3C0780
3C0780
3E0F80
3F0F00
1F9E00
1FFC00
07F800
01F800
007C00
007C00
007C00
40F800
FFF800
FFF000
FFE000
1F0000
ENDCHAR
STARTCHAR 00A8
ENCODING 168
SWIDTH 488 0
DWIDTH 19 0
BBX 13 5 8 21
BITMAP
7870
F8F8
F8F8
F8F8
70F0
ENDCHAR
STARTCHAR 00A9
ENCODING 169
SWIDTH 488 0
DWIDTH 19 0
BBX 18 19 2 -1
BITMAP
07F800
0FFE00
1E0F00
380780
70F380
73F180
6381C0
E701C0
E601C0
E601C0
6701C0
6791C0
73F180
71F380
380780
1E0F00
0FFE00
07F800
004000
ENDCHAR
STARTCHAR 00AA
ENCODING 170
SWIDTH 488 0
DWIDTH 19 0
BBX 14 14 6 11
BITMAP
0060
07FC
1FFC
3FF8
7C78
7878
7078
F070
F0F0
F0F0
F8F0
7FF0
7FF0
3F70
ENDCHAR
STARTCHAR 00AB
ENCODING 171
SWIDTH 488 0
DWIDTH 19 0
BBX 16 16 4 2
BITMAP
0202
0707
0F0F
1E1E
3E3C
3C7C
78F8
F0F0
F0F0
F0F0
70F0
7878
3878
3C38
3C3C
1810
ENDCHAR
STARTCHAR 00AC
ENCODING 172
SWIDTH 488 0
DWIDTH 19 0
BBX 17 12 3 2
BITMAP
7FFF80
7FFF80
7FFF00
FFFF00
000F00
000F00
001E00
001E00
001E00
001E00
003E00
003C00
ENDCHAR
STARTCHAR 00AD
ENCODING 173
SWIDTH 488 0
DWIDTH 19 0
BBX 11 4 6 8
BITMAP
FFE0
FFE0
FFE0
FFC0
ENDCHAR
STARTCHAR 00AE
ENCODING 174
SWIDTH 488 0
DWIDTH 19 0
BBX 18 19 2 -1
BITMAP
07F800
0FFE00
1E0F00
380780
73E380
73F180
6339C0
E319C0
E339C0
E3F1C0
63F1C0
6331C0
733980
731B80
380780
1E0F00
0FFE00
07F800
004000
ENDCHAR
STARTCHAR 00AF
ENCODING 175
SWIDTH 488 0
DWIDTH 19 0
BBX 11 3 9 22
BITMAP
FFE0
FFE0
FFE0
ENDCHAR
STARTCHAR 00B0
ENCODING 176
SWIDTH 488 0
DWIDTH 19 0
BBX 11 11 8 16
BITMAP
1F00
7FC0
7FC0
F1E0
F0E0
E0E0
F1E0
FFE0
7FC0
3F80
0400
ENDCHAR
STARTCHAR 00B1
ENCODING 177
SWIDTH 488 0
DWIDTH 19 0
BBX 20 22 1 0
BITMAP
001E00
001E00
001E00
003E00
003C00
003C00
0FFFF0
1FFFF0
1FFFE0
1FFFE0
007800
00F800
00F000
00F000
00F000
00F000
000000
000000
7FFF80
FFFF80
FFFF80
FFFF00
ENDCHAR
STARTCHAR 00B2
ENCODING 178
SWIDTH 488 0
DWIDTH 19 0
BBX 11 15 7 10
BITMAP
0300
1FC0
3FE0
3FE0
30E0
01E0
03E0
07C0
1F80
3E00
7C00
FFE0
FFC0
FFC0
FFC0
ENDCHAR
STARTCHAR 00B3
ENCODING 179
SWIDTH 488 0
DWIDTH 19 0
BBX 11 15 7 10
BITMAP
0380
3FE0
1FE0
1DE0
00E0
01E0
0FC0
0FC0
1FC0
01E0
01E0
63E0
FFC0
FF80
3E00
ENDCHAR
STARTCHAR 00B4
ENCODING 180
SWIDTH 488 0
DWIDTH 19 0
BBX 8 7 11 20
BITMAP
04
0E
1E
7F
FE
F8
60
ENDCHAR
STARTCHAR 00B5
ENCODING 181
SWIDTH 488 0
DWIDTH 19 0
BBX 20 24 0 -6
BITMAP
03E0F0
03C1F0
07C1F0
07C1F0
07C1E0
0783E0
0F83E0
0F83E0
0F83C0
0F07C0
1F07C0
1F07C0
1F07C0
1F0FC0
3FFFE0
3FFFE0
3FFFC0
3FF3C0
7C0000
7C0000
7C0000
780000
F80000
F80000
ENDCHAR
STARTCHAR 00B6
ENCODING 182
SWIDTH 488 0
DWIDTH 19 0
BBX 19 30 4 -6
BITMAP
01FFE0
0FFFC0
1FFFC0
3FFFC0
7FE3C0
FFC780
FFC780
FFC780
FFC780
FF8700
FF8F00
FF8F00
FF8F00
7F0F00
1F1E00
0F1E00
0F1E00
0F1E00
1E3C00
1E3C00
1E3C00
1E3C00
3C7800
3C7800
3C7800
3C7800
78F000
78F000
78F000
78F000
ENDCHAR
STARTCHAR 00B7
ENCODING 183
SWIDTH 488 0
DWIDTH 19 0
BBX 7 7 8 7
BITMAP
38
7C
FE
FE
FE
FC
78
ENDCHAR
STARTCHAR 00B8
ENCODING 184
SWIDTH 488 0
DWIDTH 19 0
BBX 8 8 5 -7
BITMAP
0E
0E
1E
0F
0F
FF
FE
30
ENDCHAR
STARTCHAR 00B9
ENCODING 185
SWIDTH 488 0
DWIDTH 19 0
BBX 12 14 6 10
BITMAP
01E0
07E0
3FC0
3FC0
3BC0
23C0
0780
0780
0780
0780
7FF0
7FE0
FFE0
FFE0
ENDCHAR
STARTCHAR 00BA
ENCODING 186
SWIDTH 488 0
DWIDTH 19 0
BBX 13 14 7 11
BITMAP
0180
0FE0
3FF0
7FF8
7878
F078
F078
F078
E070
E0F0
F1F0
FFE0
7FC0
7F80
ENDCHAR
STARTCHAR 00BB
ENCODING 187
SWIDTH 488 0
DWIDTH 19 0
BBX 16 16 3 2
BITMAP
0808
3C38
1C3C
1C1C
1E1E
0E1E
0F0F
0F0F
0F0F
1F1E
3E3E
3C3C
7878
F0F0
E1E0
6040
ENDCHAR
STARTCHAR 00BC
ENCODING 188
SWIDTH 488 0
DWIDTH 19 0
BBX 21 24 1 0
BITMAP
01E078
07C0F0
1FC0E0
1FC1E0
03C3C0
038780
038700
078F00
079E00
003C00
003800
007800
00F000
01E000
01C3C0
03C7C0
078FC0
0F0DC0
0E1980
1E3B80
3C7FC0
787FC0
700300
F00700
ENDCHAR
STARTCHAR 00BD
ENCODING 189
SWIDTH 488 0
DWIDTH 19 0
BBX 21 24 1 0
BITMAP
01E078
07C0F0
1FC0E0
1FC1E0
03C3C0
038780
038700
078F00
079E00
003C00
003800
007800
00F000
01E000
01C780
03DFC0
079FC0
0F01C0
0E01C0
1E0780
3C1E00
783C00
703FC0
F07F80
ENDCHAR
STARTCHAR 00BE
ENCODING 190
SWIDTH 488 0
DWIDTH 19 0
BBX 21 25 2 0
BITMAP
030000
1FC078
1FE0F0
01C1E0
07C1C0
0F83C0
03C780
01CF00
3FCE00
3F9E00
1E3C00
007800
007000
00F000
01E000
03C780
038F80
079F80
0F1B80
1E3300
1C7700
3CFF80
78FF80
F00600
E00E00
ENDCHAR
STARTCHAR 00BF
ENCODING 191
SWIDTH 488 0
DWIDTH 19 0
BBX 15 25 2 -7
BITMAP
003C
007E
00FE
00FE
007C
0078
0000
0000
0000
00F8
01F0
01F0
07E0
0FC0
1F80
3F00
7C00
F800
F800
F808
FEF8
FFF8
7FF8
3FF0
0E00
ENDCHAR
STARTCHAR 00C0
ENCODING 192
SWIDTH 488 0
DWIDTH 19 0
BBX 19 32 0 0
BITMAP
000C00
000E00
001F80
001FC0
0007E0
0001C0
000040
000000
000F80
001F80
001F80
003FC0
007FC0
007BC0
00FBC0
00F3C0
01F3C0
01E3C0
03E3C0
03C3C0
07C3C0
0783C0
0F83C0
0FFFC0
1FFFC0
1FFFC0
3E03C0
3E03C0
7C03E0
7C03E0
F803E0
F803E0
ENDCHAR
STARTCHAR 00C1
ENCODING 193
SWIDTH 488 0
DWIDTH 19 0
BBX 20 32 0 0
BITMAP
000060
0000E0
0003F0
0007F0
000FC0
000780
000200
000000
000F80
001F80
001F80
003FC0
007FC0
007BC0
00FBC0
00F3C0
01F3C0
01E3C0
03E3C0
03C3C0
07C3C0
0783C0
0F83C0
0FFFC0
1FFFC0
1FFFC0
3E03C0
3E03C0
7C03E0
7C03E0
F803E0
F803E0
ENDCHAR
STARTCHAR 00C2
ENCODING 194
SWIDTH 488 0
DWIDTH 19 0
BBX 20 32 0 0
BITMAP
000080
0003C0
0007E0
000FF0
003EF0
001C70
000020
000000
000F80
001F80
001F80
003FC0
007FC0
007BC0
00FBC0
00F3C0
01F3C0
01E3C0
03E3C0
03C3C0
07C3C0
0783C0
0F83C0
0FFFC0
1FFFC0
1FFFC0
3E03C0
3E03C0
7C03E0
7C03E0
F803E0
F803E0
ENDCHAR
STARTCHAR 00C3
ENCODING 195
SWIDTH 488 0
DWIDTH 19 0
BBX 21 32 0 0
BITMAP
000010
001F98
003FF8
003FF8
007BF0
001000
000000
000000
000F80
001F80
001F80
003FC0
007FC0
007BC0
00FBC0
00F3C0
01F3C0
01E3C0
03E3C0
03C3C0
07C3C0
0783C0
0F83C0
0FFFC0
1FFFC0
1FFFC0
3E03C0
3E03C0
7C03E0
7C03E0
F803E0
F803E0
ENDCHAR
STARTCHAR 00C4
ENCODING 196
SWIDTH 488 0
DWIDTH 19 0
BBX 22 32 0 0
BITMAP
000800
003C3C
003E7C
007C7C
003C7C
001830
000000
000000
000F80
001F80
001F80
003FC0
007FC0
007BC0
00FBC0
00F3C0
01F3C0
01E3C0
03E3C0
03C3C0
07C3C0
0783C0
0F83C0
0FFFC0
1FFFC0
1FFFC0
3E03C0
3E03C0
7C03E0
7C03E0
F803E0
F803E0
ENDCHAR
STARTCHAR 00C5
ENCODING 197
SWIDTH 488 0
DWIDTH 19 0
BBX 19 31 0 0
BITMAP
000300
000FC0
001FE0
001CE0
001860
001CE0
001FE0
000FC0
001F80
001F80
003FC0
007FC0
007BC0
00FBC0
00F3C0
01F3C0
01E3C0
03E3C0
03C3C0
07C3C0
0783C0
0F83C0
0FFFC0
1FFFC0
1FFFC0
3E03C0
3E03C0
7C03E0
7C03E0
F803E0
F803E0
ENDCHAR
STARTCHAR 00C6
ENCODING 198
SWIDTH 488 0
DWIDTH 19 0
BBX 23 24 0 0
BITMAP
000FFE
001FFE
001FFE
003FFE
003BC0
007BC0
00F7C0
00F780
01E780
01E7F0
03CFF0
03CFF0
078FF0
078F00
0F1F00
0FFE00
1FFE00
1FFE00
3E1E00
3C3C00
7C3FE0
783FE0
F83FE0
F87FC0
ENDCHAR
STARTCHAR 00C7
ENCODING 199
SWIDTH 488 0
DWIDTH 19 0
BBX 19 32 3 -7
BITMAP
000E00
00FFC0
01FFE0
03FFE0
07FFC0
0FC040
1F8000
1F0000
3E0000
3E0000
7C0000
7C0000
7C0000
7C0000
780000
F80000
F80000
F80000
F80000
7C0000
7E0400
7FFE00
3FFE00
1FFE00
0FFC00
038000
078000
03C000
01C000
1FC000
3F8000
0C0000
ENDCHAR
STARTCHAR 00C8
ENCODING 200
SWIDTH 488 0
DWIDTH 19 0
BBX 20 32 2 0
BITMAP
001800
003C00
003E00
007F80
001F80
000780
000100
000000
03FFF0
07FFF0
07FFE0
07FFE0
07C000
0F8000
0F8000
0F8000
0F8000
0FFF80
1FFF00
1FFF00
1FFF00
1E0000
3E0000
3E0000
3E0000
3C0000
7C0000
7C0000
7FFF00
7FFF00
FFFF00
FFFE00
ENDCHAR
STARTCHAR 00C9
ENCODING 201
SWIDTH 488 0
DWIDTH 19 0
BBX 20 32 2 0
BITMAP
000180
000380
0007C0
001FC0
003F00
001E00
000800
000000
03FFF0
07FFF0
07FFE0
07FFE0
07C000
0F8000
0F8000
0F8000
0F8000
0FFF80
1FFF00
1FFF00
1FFF00
1E0000
3E0000
3E0000
3E0000
3C0000
7C0000
7C0000
7FFF00
7FFF00
FFFF00
FFFE00
ENDCHAR
STARTCHAR 00CA
ENCODING 202
SWIDTH 488 0
DWIDTH 19 0
BBX 20 32 2 0
BITMAP
000200
000F00
001F80
003FC0
0079E0
0070C0
002000
000000
03FFF0
07FFF0
07FFE0
07FFE0
07C000
0F8000
0F8000
0F8000
0F8000
0FFF80
1FFF00
1FFF00
1FFF00
1E0000
3E0000
3E0000
3E0000
3C0000
7C0000
7C0000
7FFF00
7FFF00
FFFF00
FFFE00
ENDCHAR
STARTCHAR 00CB
ENCODING 203
SWIDTH 488 0
DWIDTH 19 0
BBX 20 32 2 0
BITMAP
002000
00F0F0
00F9F0
01F9F0
00F1F0
0060C0
000000
000000
03FFF0
07FFF0
07FFE0
07FFE0
07C000
0F8000
0F8000
0F8000
0F8000
0FFF80
1FFF00
1FFF00
1FFF00
1E0000
3E0000
3E0000
3E0000
3C0000
7C0000
7C0000
7FFF00
7FFF00
FFFF00
FFFE00
ENDCHAR
STARTCHAR 00CC
ENCODING 204
SWIDTH 488 0
DWIDTH 19 0
BBX 21 32 1 0
BITMAP
000800
001C00
003F00
003F80
000FC0
000380
000080
000000
03FFF8
03FFF8
07FFF8
07FFF8
003E00
003E00
003E00
003C00
007C00
007C00
007C00
007800
00F800
00F800
00F800
00F000
01F000
01F000
01F000
01F000
7FFF00
7FFF00
7FFF00
FFFF00
ENDCHAR
STARTCHAR 00CD
ENCODING 205
SWIDTH 488 0
DWIDTH 19 0
BBX 21 32 1 0
BITMAP
0000C0
0001C0
0003E0
000FE0
001FC0
000F00
000400
000000
03FFF8
03FFF8
07FFF8
07FFF8
003E00
003E00
003E00
003C00
007C00
007C00
007C00
007800
00F800
00F800
00F800
00F000
01F000
01F000
01F000
01F000
7FFF00
7FFF00
7FFF00
FFFF00
ENDCHAR
STARTCHAR 00CE
ENCODING 206
SWIDTH 488 0
DWIDTH 19 0
BBX 21 32 1 0
BITMAP
000100
000780
000FC0
001FE0
003DF0
0038E0
000000
000000
03FFF8
03FFF8
07FFF8
07FFF8
003E00
003E00
003E00
003C00
007C00
007C00
007C00
007800
00F800
00F800
00F800
00F000
01F000
01F000
01F000
01F000
7FFF00
7FFF00
7FFF00
FFFF00
ENDCHAR
STARTCHAR 00CF
ENCODING 207
SWIDTH 488 0
DWIDTH 19 0
BBX 21 32 1 0
BITMAP
001000
007878
007CF8
00FCF8
0078F8
003020
000000
000000
03FFF8
03FFF8
07FFF8
07FFF8
003E00
003E00
003E00
003C00
007C00
007C00
007C00
007800
00F800
00F800
00F800
00F000
01F000
01F000
01F000
01F000
7FFF00
7FFF00
7FFF00
FFFF00
ENDCHAR
STARTCHAR 00D0
ENCODING 208
SWIDTH 488 0
DWIDTH 19 0
BBX 19 24 2 0
BITMAP
07FC00
07FF00
07FF80
07FFC0
0787C0
0F87C0
0F83C0
0F83E0
0F03E0
1F03E0
7FC3C0
7FC7C0
FFC7C0
FF87C0
3E07C0
3E0F80
3C0F80
7C1F80
7C3F00
7C7E00
7FFE00
FFFC00
FFF000
FFC000
ENDCHAR
STARTCHAR 00D1
ENCODING 209
SWIDTH 488 0
DWIDTH 19 0
BBX 22 31 1 1
BITMAP
003F38
007FF8
007FF0
0077E0
002000
000000
000000
03C07C
07C078
07E078
07E078
07E0F8
0FF0F0
0FF0F0
0F70F0
0F71F0
1F79E0
1E79E0
1E39E0
1E39E0
1E3BE0
3E3FC0
3C3FC0
3C1FC0
3C1FC0
7C1F80
781F80
781F80
780F80
F80F00
F00F00
ENDCHAR
STARTCHAR 00D2
ENCODING 210
SWIDTH 488 0
DWIDTH 19 0
BBX 18 33 3 -1
BITMAP
003000
007800
007C00
00FF00
003F80
000F00
000200
003800
01FE00
07FF00
0FFF80
1FFF80
1F07C0
3E07C0
3E07C0
7C07C0
7C07C0
7C07C0
F807C0
F807C0
F80780
F80F80
F80F80
F00F80
F01F00
F01F00
F83E00
F87E00
FFFC00
7FF800
7FF000
1FE000
020000
ENDCHAR
STARTCHAR 00D3
ENCODING 211
SWIDTH 488 0
DWIDTH 19 0
BBX 18 33 3 -1
BITMAP
000600
000E00
001F00
007F00
00FE00
007800
002000
003800
01FE00
07FF00
0FFF80
1FFF80
1F07C0
3E07C0
3E07C0
7C07C0
7C07C0
7C07C0
F807C0
F807C0
F80780
F80F80
F80F80
F00F80
F01F00
F01F00
F83E00
F87E00
FFFC00
7FF800
7FF000
1FE000
020000
ENDCHAR
STARTCHAR 00D4
ENCODING 212
SWIDTH 488 0
DWIDTH 19 0
BBX 18 33 3 -1
BITMAP
000C00
001C00
007E00
00FF00
01F780
01C380
008100
003800
01FE00
07FF00
0FFF80
1FFF80
1F07C0
3E07C0
3E07C0
7C07C0
7C07C0
7C07C0
F807C0
F807C0
F80780
F80F80
F80F80
F00F80
F01F00
F01F00
F83E00
F87E00
FFFC00
7FF800
7FF000
1FE000
020000
ENDCHAR
STARTCHAR 00D5
ENCODING 213
SWIDTH 488 0
DWIDTH 19 0
BBX 19 32 3 0
BITMAP
00FCE0
01FFE0
01FFC0
01DF80
008200
000000
003800
01FE00
07FF00
0FFF80
1FFF80
1F07C0
3E07C0
3E07C0
7C07C0
7C07C0
7C07C0
F807C0
F807C0
F80780
F80F80
F80F80
F00F80
F01F00
F01F00
F83E00
F87E00
FFFC00
7FF800
7FF000
1FE000
020000
ENDCHAR
STARTCHAR 00D6
ENCODING 214
SWIDTH 488 0
DWIDTH 19 0
BBX 19 33 3 -1
BITMAP
000080
01E1E0
03E3E0
03E3E0
03E3C0
008180
000000
003800
01FE00
07FF00
0FFF80
1FFF80
1F07C0
3E07C0
3E07C0
7C07C0
7C07C0
7C07C0
F807C0
F807C0
F80780
F80F80
F80F80
F00F80
F01F00
F01F00
F83E00
F87E00
FFFC00
7FF800
7FF000
1FE000
020000
ENDCHAR
STARTCHAR 00D7
ENCODING 215
SWIDTH 488 0
DWIDTH 19 0
BBX 17 15 3 3
BITMAP
040100
1E0780
3E0F80
1F1F80
1FBF00
0FFE00
07F800
03F000
07F000
0FF800
3FFC00
7E7C00
FC3E00
783C00
201800
ENDCHAR
STARTCHAR 00D8
ENCODING 216
SWIDTH 488 0
DWIDTH 19 0
BBX 19 26 2 -1
BITMAP
0018E0
00FFE0
03FFE0
07FFC0
0FE7C0
0F87E0
1F0FE0
1F1FE0
3E1FE0
3E3FE0
3C7BE0
7C7BE0
7CF3E0
79E3C0
79E3C0
7BC7C0
7F87C0
7F8F80
7F0F80
7E1F00
7E3F00
7EFE00
7FFC00
7FF800
FFF000
610000
ENDCHAR
STARTCHAR 00D9
ENCODING 217
SWIDTH 488 0
DWIDTH 19 0
BBX 19 33 3 -1
BITMAP
00C000
00E000
01F800
01FC00
007E00
001C00
000400
000000
0F01E0
1F03E0
1F03E0
1F03E0
1E03C0
3E07C0
3E07C0
3E07C0
3C0780
7C0F80
7C0F80
7C0F80
780F00
F81F00
F81F00
F81F00
F81E00
F03E00
F03E00
F87C00
FFFC00
FFF800
7FF000
3FE000
060000
ENDCHAR
STARTCHAR 00DA
ENCODING 218
SWIDTH 488 0
DWIDTH 19 0
BBX 19 33 3 -1
BITMAP
000200
000F00
001F00
003F80
007E00
007800
002000
000000
0F01E0
1F03E0
1F03E0
1F03E0
1E03C0
3E07C0
3E07C0
3E07C0
3C0780
7C0F80
7C0F80
7C0F80
780F00
F81F00
F81F00
F81F00
F81E00
F03E00
F03E00
F87C00
FFFC00
FFF800
7FF000
3FE000
060000
ENDCHAR
STARTCHAR 00DB
ENCODING 219
SWIDTH 488 0
DWIDTH 19 0
BBX 19 33 3 -1
BITMAP
000400
001E00
003F00
007F80
00F7C0
00E380
000000
000000
0F01E0
1F03E0
1F03E0
1F03E0
1E03C0
3E07C0
3E07C0
3E07C0
3C0780
7C0F80
7C0F80
7C0F80
780F00
F81F00
F81F00
F81F00
F81E00
F03E00
F03E00
F87C00
FFFC00
FFF800
7FF000
3FE000
060000
ENDCHAR
STARTCHAR 00DC
ENCODING 220
SWIDTH 488 0
DWIDTH 19 0
BBX 19 33 3 -1
BITMAP
004000
01E1E0
01F3E0
03F3E0
01E3E0
00C080
000000
000000
0F01E0
1F03E0
1F03E0
1F03E0
1E03C0
3E07C0
3E07C0
3E07C0
3C0780
7C0F80
7C0F80
7C0F80
780F00
F81F00
F81F00
F81F00
F81E00
F03E00
F03E00
F87C00
FFFC00
FFF800
7FF000
3FE000
060000
ENDCHAR
STARTCHAR 00DD
ENCODING 221
SWIDTH 488 0
DWIDTH 19 0
BBX 18 32 6 0
BITMAP
000800
003C00
007C00
00FE00
01F800
01E000
008000
000000
F007C0
F00F80
F81F00
F81F00
F83E00
F83E00
787C00
78F800
7CF000
7DF000
3FE000
3FC000
3FC000
3F8000
1F0000
1F0000
3E0000
3E0000
3E0000
3E0000
7C0000
7C0000
7C0000
7C0000
ENDCHAR
STARTCHAR 00DE
ENCODING 222
SWIDTH 488 0
DWIDTH 19 0
BBX 19 24 2 0
BITMAP
07C000
07C000
078000
0FE800
0FFF00
0FFF80
0FFFC0
1FFFC0
1F07E0
1F03E0
1F03E0
3E03E0
3E07C0
3E07C0
3E0FC0
3FFF80
7FFF00
7FFE00
7FF800
7F0000
F80000
F80000
F80000
F00000
ENDCHAR
STARTCHAR 00DF
ENCODING 223
SWIDTH 488 0
DWIDTH 19 0
BBX 26 34 -5 -7
BITMAP
00007E00
0003FF80
0007FF80
000FFFC0
000FC7C0
001F07C0
001F07C0
001E0780
003E0F80
003E1F00
003E3E00
003E3C00
003C7800
007CF800
007CF800
007CFC00
007C7C00
00783E00
00F83F00
00F81F80
00F80F80
00F80F80
01F00F80
01F1FF00
01F3FF00
01F3FE00
01F3FC00
03E00000
03E00000
7FC00000
7FC00000
7F800000
FF000000
10000000
ENDCHAR
STARTCHAR 00E0
ENCODING 224
SWIDTH 488 0
DWIDTH 19 0
BBX 18 27 2 0
BITMAP
002000
003800
007C00
007E00
003F80
000F00
000300
000000
003C00
01FFC0
07FFC0
0FFFC0
1FCFC0
3F0780
3E0F80
7C0F80
7C0F80
7C0F80
781F00
F81F00
F81F00
781F00
7C3F00
7FFF00
7FFF00
3FFF00
1FCF00
ENDCHAR
STARTCHAR 00E1
ENCODING 225
SWIDTH 488 0
DWIDTH 19 0
BBX 18 27 2 0
BITMAP
000100
000380
0007C0
001FC0
003F80
003E00
001800
000000
003C00
01FFC0
07FFC0
0FFFC0
1FCFC0
3F0780
3E0F80
7C0F80
7C0F80
7C0F80
781F00
F81F00
F81F00
781F00
7C3F00
7FFF00
7FFF00
3FFF00
1FCF00
ENDCHAR
STARTCHAR 00E2
ENCODING 226
SWIDTH 488 0
DWIDTH 19 0
BBX 18 27 2 0
BITMAP
000400
000E00
001F00
003F80
00FFC0
00F3C0
004180
000000
003C00
01FFC0
07FFC0
0FFFC0
1FCFC0
3F0780
3E0F80
7C0F80
7C0F80
7C0F80
781F00
F81F00
F81F00
781F00
7C3F00
7FFF00
7FFF00
3FFF00
1FCF00
ENDCHAR
STARTCHAR 00E3
ENCODING 227
SWIDTH 488 0
DWIDTH 19 0
BBX 19 26 2 0
BITMAP
007C60
00FFE0
00FFE0
01FFC0
00C780
000000
000000
003C00
01FFC0
07FFC0
0FFFC0
1FCFC0
3F0780
3E0F80
7C0F80
7C0F80
7C0F80
781F00
F81F00
F81F00
781F00
7C3F00
7FFF00
7FFF00
3FFF00
1FCF00
ENDCHAR
STARTCHAR 00E4
ENCODING 228
SWIDTH 488 0
DWIDTH 19 0
BBX 20 26 2 0
BITMAP
00F0E0
01F1F0
01F1F0
01F1F0
00E0E0
000000
000000
003C00
01FFC0
07FFC0
0FFFC0
1FCFC0
3F0780
3E0F80
7C0F80
7C0F80
7C0F80
781F00
F81F00
F81F00
781F00
7C3F00
7FFF00
7FFF00
3FFF00
1FCF00
ENDCHAR
STARTCHAR 00E5
ENCODING 229
SWIDTH 488 0
DWIDTH 19 0
BBX 18 28 2 0
BITMAP
001F00
003F80
0039C0
0031C0
0031C0
003F80
001F80
000E00
000000
003C00
01FFC0
07FFC0
0FFFC0
1FCFC0
3F0780
3E0F80
7C0F80
7C0F80
7C0F80
781F00
F81F00
F81F00
781F00
7C3F00
7FFF00
7FFF00
3FFF00
1FCF00
ENDCHAR
STARTCHAR 00E6
ENCODING 230
SWIDTH 488 0
DWIDTH 19 0
BBX 20 20 1 -1
BITMAP
0701C0
1FC7E0
1FEFF0
1FEFF0
10FC70
00F870
0078F0
01F8F0
0FF1E0
1FFFC0
3FFF80
78FF00
70F000
F1F000
F1F000
F3F880
FFFF80
7F3FC0
7E1F80
100400
ENDCHAR
STARTCHAR 00E7
ENCODING 231
SWIDTH 488 0
DWIDTH 19 0
BBX 18 26 3 -7
BITMAP
003E00
03FFC0
07FF80
1FFF80
1FF700
3F0000
7E0000
7C0000
F80000
F80000
F80000
F80000
F80000
F80000
FC0000
7FFC00
7FFE00
3FFE00
0FFC00
038000
03C000
01E000
01E000
1FC000
1FC000
060000
ENDCHAR
STARTCHAR 00E8
ENCODING 232
SWIDTH 488 0
DWIDTH 19 0
BBX 17 27 3 0
BITMAP
004000
00E000
00F800
01FC00
00FE00
003E00
000C00
000000
007800
03FE00
0FFF00
1FFF80
3F0F80
3E0780
7C0780
780F80
F83F00
FFFF00
FFFC00
FFF000
FC0000
F80000
F80000
7FFC00
7FFC00
3FFC00
1FFC00
ENDCHAR
STARTCHAR 00E9
ENCODING 233
SWIDTH 488 0
DWIDTH 19 0
BBX 17 27 3 0
BITMAP
000200
000E00
001F00
003F00
00FE00
007800
006000
000000
007800
03FE00
0FFF00
1FFF80
3F0F80
3E0780
7C0780
780F80
F83F00
FFFF00
FFFC00
FFF000
FC0000
F80000
F80000
7FFC00
7FFC00
3FFC00
1FFC00
ENDCHAR
STARTCHAR 00EA
ENCODING 234
SWIDTH 488 0
DWIDTH 19 0
BBX 17 27 3 0
BITMAP
000800
001C00
003E00
00FE00
01FF00
01C780
018300
000000
007800
03FE00
0FFF00
1FFF80
3F0F80
3E0780
7C0780
780F80
F83F00
FFFF00
FFFC00
FFF000
FC0000
F80000
F80000
7FFC00
7FFC00
3FFC00
1FFC00
ENDCHAR
STARTCHAR 00EB
ENCODING 235
SWIDTH 488 0
DWIDTH 19 0
BBX 18 26 3 0
BITMAP
03C380
07C7C0
07C7C0
07C7C0
038380
000000
000000
007800
03FE00
0FFF00
1FFF80
3F0F80
3E0780
7C0780
780F80
F83F00
FFFF00
FFFC00
FFF000
FC0000
F80000
F80000
7FFC00
7FFC00
3FFC00
1FFC00
ENDCHAR
STARTCHAR 00EC
ENCODING 236
SWIDTH 488 0
DWIDTH 19 0
BBX 14 27 4 0
BITMAP
0200
0700
0780
0FE0
07F0
01F0
0060
0000
0000
7FE0
7FE0
7FC0
FFC0
07C0
07C0
07C0
0F80
0F80
0F80
0F80
0F00
1F00
1F80
1FFC
0FFC
0FFC
07FC
ENDCHAR
STARTCHAR 00ED
ENCODING 237
SWIDTH 488 0
DWIDTH 19 0
BBX 14 27 4 0
BITMAP
0010
0030
00F8
01FC
03F8
03E0
0180
0000
0000
7FE0
7FE0
7FC0
FFC0
07C0
07C0
07C0
0F80
0F80
0F80
0F80
0F00
1F00
1F80
1FFC
0FFC
0FFC
07FC
ENDCHAR
STARTCHAR 00EE
ENCODING 238
SWIDTH 488 0
DWIDTH 19 0
BBX 14 27 4 0
BITMAP
0040
00E0
01F0
03F8
0FF8
0F3C
0418
0000
0000
7FE0
7FE0
7FC0
FFC0
07C0
07C0
07C0
0F80
0F80
0F80
0F80
0F00
1F00
1F80
1FFC
0FFC
0FFC
07FC
ENDCHAR
STARTCHAR 00EF
ENCODING 239
SWIDTH 488 0
DWIDTH 19 0
BBX 16 26 4 0
BITMAP
0E0E
1F1F
1F3F
1F1E
1E1C
0000
0000
0000
7FE0
7FE0
7FC0
FFC0
07C0
07C0
07C0
0F80
0F80
0F80
0F80
0F00
1F00
1F80
1FFC
0FFC
0FFC
07FC
ENDCHAR
STARTCHAR 00F0
ENCODING 240
SWIDTH 488 0
DWIDTH 19 0
BBX 21 28 2 -1
BITMAP
000800
003C00
007E10
001FF8
001FF8
003FE0
007F80
007F80
004780
0007C0
0007C0
03FFC0
0FFFC0
1FFFC0
3FBF80
3E0F80
7C0F80
7C0F80
780F80
F81F00
F81F00
F83F00
7C7E00
7FFC00
7FFC00
3FF800
1FE000
020000
ENDCHAR
STARTCHAR 00F1
ENCODING 241
SWIDTH 488 0
DWIDTH 19 0
BBX 18 26 2 0
BITMAP
00F080
01FFC0
03FFC0
03FF80
018F00
000000
000000
007800
0FFF00
0FFF80
1FFF80
1FFF80
1F0F80
1F0F80
3E0F80
3E0F80
3E0F80
3E0F80
3C1F00
7C1F00
7C1F00
7C1F00
783E00
F83E00
F83E00
F83E00
ENDCHAR
STARTCHAR 00F2
ENCODING 242
SWIDTH 488 0
DWIDTH 19 0
BBX 17 28 3 -1
BITMAP
008000
00C000
01F000
03F800
00FC00
007C00
001C00
000000
00F000
07FC00
0FFE00
1FFF00
3F3F00
7E1F80
7C0F80
F80F80
F80F80
F80F00
F00F00
F01F00
F01F00
F83E00
F87E00
FFFC00
FFF800
7FF000
3FE000
040000
ENDCHAR
STARTCHAR 00F3
ENCODING 243
SWIDTH 488 0
DWIDTH 19 0
BBX 17 28 3 -1
BITMAP
000400
000C00
003E00
007F00
00FC00
00F800
006000
000000
00F000
07FC00
0FFE00
1FFF00
3F3F00
7E1F80
7C0F80
F80F80
F80F80
F80F00
F00F00
F01F00
F01F00
F83E00
F87E00
FFFC00
FFF800
7FF000
3FE000
040000
ENDCHAR
STARTCHAR 00F4
ENCODING 244
SWIDTH 488 0
DWIDTH 19 0
BBX 17 28 3 -1
BITMAP
000800
003800
007C00
00FE00
01EF00
03C700
018200
000000
00F000
07FC00
0FFE00
1FFF00
3F3F00
7E1F80
7C0F80
F80F80
F80F80
F80F00
F00F00
F01F00
F01F00
F83E00
F87E00
FFFC00
FFF800
7FF000
3FE000
040000
ENDCHAR
STARTCHAR 00F5
ENCODING 245
SWIDTH 488 0
DWIDTH 19 0
BBX 17 27 3 -1
BITMAP
01E100
03FF80
07FF80
07FF00
031E00
000000
000000
00F000
07FC00
0FFE00
1FFF00
3F3F00
7E1F80
7C0F80
F80F80
F80F80
F80F00
F00F00
F01F00
F01F00
F83E00
F87E00
FFFC00
FFF800
7FF000
3FE000
040000
ENDCHAR
STARTCHAR 00F6
ENCODING 246
SWIDTH 488 0
DWIDTH 19 0
BBX 18 27 3 -1
BITMAP
03C380
07C7C0
07C7C0
07C7C0
038780
000000
000000
00F000
07FC00
0FFE00
1FFF00
3F3F00
7E1F80
7C0F80
F80F80
F80F80
F80F00
F00F00
F01F00
F01F00
F83E00
F87E00
FFFC00
FFF800
7FF000
3FE000
040000
ENDCHAR
STARTCHAR 00F7
ENCODING 247
SWIDTH 488 0
DWIDTH 19 0
BBX 17 20 3 0
BITMAP
007800
00F800
00F800
00F800
00F800
002000
000000
000000
7FFF80
7FFF80
FFFF80
FFFF80
000000
000000
038000
0FC000
0FC000
0FC000
0F8000
070000
ENDCHAR
STARTCHAR 00F8
ENCODING 248
SWIDTH 488 0
DWIDTH 19 0
BBX 18 21 3 -2
BITMAP
000080
0079C0
03FFC0
07FF80
0FFF80
1F9F80
3E1F80
3C3FC0
7C7FC0
7CF7C0
79E780
7BC780
FFCF80
FF8F80
7F1F00
7E1F00
7FFE00
7FFC00
7FF800
FFF000
E30000
ENDCHAR
STARTCHAR 00F9
ENCODING 249
SWIDTH 488 0
DWIDTH 19 0
BBX 17 27 3 0
BITMAP
008000
01C000
03E000
03F800
01FC00
007C00
001800
000000
000000
3E0F80
3E0F80
3E0F80
3E0F80
3C1F00
7C1F00
7C1F00
7C1F00
781E00
F83E00
F83E00
F83E00
F83E00
F87C00
FFFE00
FFFE00
7FFE00
3F9E00
ENDCHAR
STARTCHAR 00FA
ENCODING 250
SWIDTH 488 0
DWIDTH 19 0
BBX 17 27 3 0
BITMAP
000400
001C00
003E00
007E00
01FC00
00F000
00C000
000000
000000
3E0F80
3E0F80
3E0F80
3E0F80
3C1F00
7C1F00
7C1F00
7C1F00
781E00
F83E00
F83E00
F83E00
F83E00
F87C00
FFFE00
FFFE00
7FFE00
3F9E00
ENDCHAR
STARTCHAR 00FB
ENCODING 251
SWIDTH 488 0
DWIDTH 19 0
BBX 17 27 3 0
BITMAP
001000
003800
007C00
00FE00
03FF00
03CF00
010600
000000
000000
3E0F80
3E0F80
3E0F80
3E0F80
3C1F00
7C1F00
7C1F00
7C1F00
781E00
F83E00
F83E00
F83E00
F83E00
F87C00
FFFE00
FFFE00
7FFE00
3F9E00
ENDCHAR
STARTCHAR 00FC
ENCODING 252
SWIDTH 488 0
DWIDTH 19 0
BBX 17 26 3 0
BITMAP
038780
07CF80
0FCF80
078F80
070700
000000
000000
000000
3E0F80
3E0F80
3E0F80
3E0F80
3C1F00
7C1F00
7C1F00
7C1F00
781E00
F83E00
F83E00
F83E00
F83E00
F87C00
FFFE00
FFFE00
7FFE00
3F9E00
ENDCHAR
STARTCHAR 00FD
ENCODING 253
SWIDTH 488 0
DWIDTH 19 0
BBX 23 32 -2 -6
BITMAP
0000E0
0001F0
0003F0
000FE0
000780
000600
000000
000000
03E03E
03E03E
01E07C
01F07C
01F078
01F0F8
01F0F8
01F1F0
01F1F0
01F3E0
00F3E0
00F7C0
00FFC0
00FF80
00FF00
007F00
007E00
007C00
00F800
01F800
3FF000
7FE000
7FC000
FF0000
ENDCHAR
STARTCHAR 00FE
ENCODING 254
SWIDTH 488 0
DWIDTH 19 0
BBX 20 33 0 -6
BITMAP
003800
00F000
01F000
01F000
01F000
01E000
03E000
03E000
03EC00
03FF80
07FFC0
07FFE0
07E7E0
07C1F0
0F81F0
0F81F0
0F81F0
0F81E0
0F03E0
1F03E0
1F07E0
1F07C0
1E1FC0
3FFF80
3FFF00
3FFE00
3FF800
7C0000
7C0000
7C0000
780000
F80000
F80000
ENDCHAR
STARTCHAR 00FF
ENCODING 255
SWIDTH 488 0
DWIDTH 19 0
BBX 23 32 -2 -7
BITMAP
003C3C
003E7C
007E7C
003C7C
003838
000000
000000
000000
03E03E
03E03E
01E07C
01F07C
01F078
01F0F8
01F0F8
01F1F0
01F1F0
01F3E0
00F3E0
00F7C0
00FFC0
00FF80
00FF00
007F00
007E00
007C00
00F800
01F800
3FF000
7FE000
7FC000
FF0000
ENDCHAR
STARTCHAR 0100
ENCODING 256
SWIDTH 488 0
DWIDTH 19 0
BBX 22 31 0 0
BITMAP
001FFC
003FFC
003FF8
003FF8
000000
000000
000000
000F80
001F80
001F80
003FC0
007FC0
007BC0
00FBC0
00F3C0
01F3C0
01E3C0
03E3C0
03C3C0
07C3C0
0783C0
0F83C0
0FFFC0
1FFFC0
1FFFC0
3E03C0
3E03C0
7C03E0
7C03E0
F803E0
F803E0
ENDCHAR
STARTCHAR 0101
ENCODING 257
SWIDTH 488 0
DWIDTH 19 0
BBX 20 25 2 0
BITMAP
00FFF0
00FFE0
00FFE0
000000
000000
000000
003C00
01FFC0
07FFC0
0FFFC0
1FCFC0
3F0780
3E0F80
7C0F80
7C0F80
7C0F80
781F00
F81F00
F81F00
781F00
7C3F00
7FFF00
7FFF00
3FFF00
1FCF00
ENDCHAR
STARTCHAR 0102
ENCODING 258
SWIDTH 488 0
DWIDTH 19 0
BBX 22 32 0 0
BITMAP
001C3C
001C3C
001FF8
001FF8
000FF0
0003C0
000000
000000
000F80
001F80
001F80
003FC0
007FC0
007BC0
00FBC0
00F3C0
01F3C0
01E3C0
03E3C0
03C3C0
07C3C0
0783C0
0F83C0
0FFFC0
1FFFC0
1FFFC0
3E03C0
3E03C0
7C03E0
7C03E0
F803E0
F803E0
ENDCHAR
STARTCHAR 0103
ENCODING 259
SWIDTH 488 0
DWIDTH 19 0
BBX 19 27 2 0
BITMAP
00F0E0
00F1E0
00F1E0
007FC0
007F80
003F00
000000
000000
003C00
01FFC0
07FFC0
0FFFC0
1FCFC0
3F0780
3E0F80
7C0F80
7C0F80
7C0F80
781F00
F81F00
F81F00
781F00
7C3F00
7FFF00
7FFF00
3FFF00
1FCF00
ENDCHAR
STARTCHAR 0104
ENCODING 260
SWIDTH 488 0
DWIDTH 19 0
BBX 19 31 0 -7
BITMAP
000FC0
000FC0
001FC0
003FC0
003FC0
007FC0
007BC0
00FBC0
00F3C0
01F3E0
01E3E0
03E3E0
03C3E0
07C3E0
0783E0
0FFFE0
0FFFE0
1FFFE0
1E03E0
3E03E0
3E03E0
7C03E0
7C03E0
F803E0
0003C0
000780
000F00
001F00
001FC0
001FC0
000300
ENDCHAR
STARTCHAR 0105
ENCODING 261
SWIDTH 488 0
DWIDTH 19 0
BBX 18 26 2 -7
BITMAP
003C00
01FFC0
07FFC0
0FFFC0
1FCFC0
3F0780
3E0F80
7C0F80
7C0F80
7C0F80
781F00
F81F00
F81F00
781F00
7C3F00
7FFF00
7FFF00
3FFF00
1FCF00
001E00
003C00
007800
00F800
00FE00
00FE00
003800
ENDCHAR
STARTCHAR 0106
ENCODING 262
SWIDTH 488 0
DWIDTH 19 0
BBX 19 33 3 -1
BITMAP
000100
000780
000F80
001FC0
003F00
003C00
001000
000E00
00FFC0
01FFE0
03FFE0
07FFC0
0FC040
1F8000
1F0000
3E0000
3E0000
7C0000
7C0000
7C0000
7C0000
780000
F80000
F80000
F80000
F80000
7C0000
7E0400
7FFE00
3FFE00
1FFE00
0FFC00
018000
ENDCHAR
STARTCHAR 0107
ENCODING 263
SWIDTH 488 0
DWIDTH 19 0
BBX 18 27 3 0
BITMAP
000100
000700
000F80
001F80
007F00
003C00
003000
000000
003E00
03FFC0
07FF80
1FFF80
1FF700
3F0000
7E0000
7C0000
F80000
F80000
F80000
F80000
F80000
F80000
FC0000
7FFC00
7FFE00
3FFE00
0FFC00
ENDCHAR
STARTCHAR 0108
ENCODING 264
SWIDTH 488 0
DWIDTH 19 0
BBX 19 33 3 -1
BITMAP
000300
000700
001F80
003FC0
007DE0
0070E0
002000
000E00
00FFC0
01FFE0
03FFE0
07FFC0
0FC040
1F8000
1F0000
3E0000
3E0000
7C0000
7C0000
7C0000
7C0000
780000
F80000
F80000
F80000
F80000
7C0000
7E0400
7FFE00
3FFE00
1FFE00
0FFC00
018000
ENDCHAR
STARTCHAR 0109
ENCODING 265
SWIDTH 488 0
DWIDTH 19 0
BBX 18 27 3 0
BITMAP
000400
000E00
001F00
007F00
00FF80
00E3C0
00C180
000000
003E00
03FFC0
07FF80
1FFF80
1FF700
3F0000
7E0000
7C0000
F80000
F80000
F80000
F80000
F80000
F80000
FC0000
7FFC00
7FFE00
3FFE00
0FFC00
ENDCHAR
STARTCHAR 010A
ENCODING 266
SWIDTH 488 0
DWIDTH 19 0
BBX 19 33 3 -1
BITMAP
000600
000F00
001F00
001F00
001F00
000E00
000000
000E00
00FFC0
01FFE0
03FFE0
07FFC0
0FC040
1F8000
1F0000
3E0000
3E0000
7C0000
7C0000
7C0000
7C0000
780000
F80000
F80000
F80000
F80000
7C0000
7E0400
7FFE00
3FFE00
1FFE00
0FFC00
018000
ENDCHAR
STARTCHAR 010B
ENCODING 267
SWIDTH 488 0
DWIDTH 19 0
BBX 18 26 3 0
BITMAP
001E00
003E00
003E00
003E00
001C00
000000
000000
003E00
03FFC0
07FF80
1FFF80
1FF700
3F0000
7E0000
7C0000
F80000
F80000
F80000
F80000
F80000
F80000
FC0000
7FFC00
7FFE00
3FFE00
0FFC00
ENDCHAR
STARTCHAR 010C
ENCODING 268
SWIDTH 488 0
DWIDTH 19 0
BBX 19 33 3 -1
BITMAP
003060
0079E0
003FE0
001F80
001F00
000E00
000400
000E00
00FFC0
01FFE0
03FFE0
07FFC0
0FC040
1F8000
1F0000
3E0000
3E0000
7C0000
7C0000
7C0000
7C0000
780000
F80000
F80000
F80000
F80000
7C0000
7E0400
7FFE00
3FFE00
1FFE00
0FFC00
018000
ENDCHAR
STARTCHAR 010D
ENCODING 269
SWIDTH 488 0
DWIDTH 19 0
BBX 18 27 3 0
BITMAP
002080
00F1C0
00FFC0
007F80
003F00
001C00
000800
000000
003E00
03FFC0
07FF80
1FFF80
1FF700
3F0000
7E0000
7C0000
F80000
F80000
F80000
F80000
F80000
F80000
FC0000
7FFC00
7FFE00
3FFE00
0FFC00
ENDCHAR
STARTCHAR 010E
ENCODING 270
SWIDTH 488 0
DWIDTH 19 0
BBX 20 32 1 0
BITMAP
0030C0
0079E0
007FC0
003F80
001F00
000E00
000000
000000
03FE00
03FF80
07FFC0
07FFE0
07C7E0
0783E0
0F81E0
0F81F0
0F81F0
0F01F0
1F01E0
1F03E0
1F03E0
1E03E0
3E03E0
3E07C0
3E07C0
3E0FC0
7C1F80
7C3F00
7FFE00
7FFC00
FFF800
FFE000
ENDCHAR
STARTCHAR 010F
ENCODING 271
SWIDTH 488 0
DWIDTH 19 0
BBX 25 27 1 0
BITMAP
0000EF80
0003EF00
0003CF00
0007CF00
0007DE00
0007DE00
00079C00
000F9C00
002F9C00
03FF8000
07FF0000
0FFF0000
1F9F0000
3E1F0000
3E1F0000
7C3E0000
7C3E0000
783E0000
F83E0000
F83C0000
F87C0000
F87C0000
F8FC0000
7FFC0000
7FFC0000
7FFC0000
3FBE0000
ENDCHAR
STARTCHAR 0110
ENCODING 272
SWIDTH 488 0
DWIDTH 19 0
BBX 19 24 2 0
BITMAP
07FC00
07FF00
07FF80
07FFC0
0787C0
0F87C0
0F83C0
0F83E0
0F03E0
1F03E0
7FC3C0
7FC7C0
FFC7C0
FF87C0
3E07C0
3E0F80
3C0F80
7C1F80
7C3F00
7C7E00
7FFE00
FFFC00
FFF000
FFC000
ENDCHAR
STARTCHAR 0111
ENCODING 273
SWIDTH 488 0
DWIDTH 19 0
BBX 22 27 2 0
BITMAP
000070
0001F0
0001E0
007FFC
007FFC
00FFF8
0003C0
0007C0
0017C0
01FFC0
07FFC0
0FFF80
1FCF80
3F0F80
3E0F80
7C0F00
7C1F00
7C1F00
781F00
F81E00
F83E00
783E00
7C7E00
7FFE00
7FFE00
3FFE00
1F9F00
ENDCHAR
STARTCHAR 0112
ENCODING 274
SWIDTH 488 0
DWIDTH 19 0
BBX 20 31 2 0
BITMAP
007FF0
007FF0
007FF0
00FFF0
000000
000000
000000
03FFF0
07FFF0
07FFE0
07FFE0
07C000
0F8000
0F8000
0F8000
0F8000
0FFF80
1FFF00
1FFF00
1FFF00
1E0000
3E0000
3E0000
3E0000
3C0000
7C0000
7C0000
7FFF00
7FFF00
FFFF00
FFFE00
ENDCHAR
STARTCHAR 0113
ENCODING 275
SWIDTH 488 0
DWIDTH 19 0
BBX 18 25 3 0
BITMAP
01FFC0
01FFC0
01FFC0
000000
000000
000000
007800
03FE00
0FFF00
1FFF80
3F0F80
3E0780
7C0780
780F80
F83F00
FFFF00
FFFC00
FFF000
FC0000
F80000
F80000
7FFC00
7FFC00
3FFC00
1FFC00
ENDCHAR
STARTCHAR 0114
ENCODING 276
SWIDTH 488 0
DWIDTH 19 0
BBX 21 32 2 0
BITMAP
003878
0078F0
003FF0
003FE0
001FC0
000F00
000000
000000
03FFF0
07FFF0
07FFE0
07FFE0
07C000
0F8000
0F8000
0F8000
0F8000
0FFF80
1FFF00
1FFF00
1FFF00
1E0000
3E0000
3E0000
3E0000
3C0000
7C0000
7C0000
7FFF00
7FFF00
FFFF00
FFFE00
ENDCHAR
STARTCHAR 0115
ENCODING 277
SWIDTH 488 0
DWIDTH 19 0
BBX 19 27 3 0
BITMAP
00E1E0
00E1C0
00F3C0
00FFC0
00FF80
003E00
000000
000000
007800
03FE00
0FFF00
1FFF80
3F0F80
3E0780
7C0780
780F80
F83F00
FFFF00
FFFC00
FFF000
FC0000
F80000
F80000
7FFC00
7FFC00
3FFC00
1FFC00
ENDCHAR
STARTCHAR 0116
ENCODING 278
SWIDTH 488 0
DWIDTH 19 0
BBX 20 32 2 0
BITMAP
000300
000F80
000F80
000F80
000F80
000600
000000
000000
03FFF0
07FFF0
07FFE0
07FFE0
07C000
0F8000
0F8000
0F8000
0F8000
0FFF80
1FFF00
1FFF00
1FFF00
1E0000
3E0000
3E0000
3E0000
3C0000
7C0000
7C0000
7FFF00
7FFF00
FFFF00
FFFE00
ENDCHAR
STARTCHAR 0117
ENCODING 279
SWIDTH 488 0
DWIDTH 19 0
BBX 17 26 3 0
BITMAP
001E00
003E00
003E00
003E00
003C00
000000
000000
007800
03FE00
0FFF00
1FFF80
3F0F80
3E0780
7C0780
780F80
F83F00
FFFF00
FFFC00
FFF000
FC0000
F80000
F80000
7FFC00
7FFC00
3FFC00
1FFC00
ENDCHAR
STARTCHAR 0118
ENCODING 280
SWIDTH 488 0
DWIDTH 19 0
BBX 20 31 2 -7
BITMAP
03FFF0
07FFF0
07FFE0
07FFE0
07C000
0F8000
0F8000
0F8000
0F8000
0FFF80
1FFF00
1FFF00
1FFF00
1E0000
3E0000
3E0000
3E0000
3C0000
7C0000
7C0000
7FFF00
7FFF00
FFFF00
FFFE00
003E00
007800
00F000
01F000
01FE00
01FC00
003800
ENDCHAR
STARTCHAR 0119
ENCODING 281
SWIDTH 488 0
DWIDTH 19 0
BBX 17 26 3 -7
BITMAP
007800
03FE00
0FFF00
1FFF80
3F0F80
3E0780
7C0780
780F80
F83F00
FFFF00
FFFC00
FFF000
FC0000
F80000
F80000
7FFC00
7FFC00
3FFC00
1FFC00
00F800
01E000
03C000
07C000
07F800
03F000
01C000
ENDCHAR
STARTCHAR 011A
ENCODING 282
SWIDTH 488 0
DWIDTH 19 0
BBX 20 32 2 0
BITMAP
001860
003CF0
003FE0
001FC0
000F80
000700
000000
000000
03FFF0
07FFF0
07FFE0
07FFE0
07C000
0F8000
0F8000
0F8000
0F8000
0FFF80
1FFF00
1FFF00
1FFF00
1E0000
3E0000
3E0000
3E0000
3C0000
7C0000
7C0000
7FFF00
7FFF00
FFFF00
FFFE00
ENDCHAR
STARTCHAR 011B
ENCODING 283
SWIDTH 488 0
DWIDTH 19 0
BBX 17 27 3 0
BITMAP
004100
01E380
01FF80
00FF00
007E00
003800
001000
000000
007800
03FE00
0FFF00
1FFF80
3F0F80
3E0780
7C0780
780F80
F83F00
FFFF00
FFFC00
FFF000
FC0000
F80000
F80000
7FFC00
7FFC00
3FFC00
1FFC00
ENDCHAR
STARTCHAR 011C
ENCODING 284
SWIDTH 488 0
DWIDTH 19 0
BBX 19 33 3 -1
BITMAP
000600
000F00
001F80
007F80
00FBC0
0071C0
004080
000E00
00FFC0
01FFE0
07FFE0
0FFFC0
0FC040
1F0000
3F0000
3E0000
7C0000
7C0000
7C0000
F80F80
F80F80
F80F80
F81F00
F81F00
F81F00
F81F00
F81E00
FC3E00
7FFE00
7FFE00
3FFC00
1FFC00
010000
ENDCHAR
STARTCHAR 011D
ENCODING 285
SWIDTH 488 0
DWIDTH 19 0
BBX 21 34 0 -7
BITMAP
000080
0001C0
0003E0
000FE0
001FF0
001C78
001830
000000
000F00
007FF8
01FFF0
03FFF0
07F1F0
07C1F0
0F81F0
0F03E0
1F03E0
1F03E0
1F03E0
1F03C0
1F07C0
1F8FC0
1FFFC0
0FFF80
07FF80
01EF80
000F80
001F00
003F00
7FFE00
7FFE00
FFFC00
7FF000
030000
ENDCHAR
STARTCHAR 011E
ENCODING 286
SWIDTH 488 0
DWIDTH 19 0
BBX 20 33 3 -1
BITMAP
0070F0
00F1E0
007FE0
007FC0
003F80
001E00
000000
000E00
00FFC0
01FFE0
07FFE0
0FFFC0
0FC040
1F0000
3F0000
3E0000
7C0000
7C0000
7C0000
F80F80
F80F80
F80F80
F81F00
F81F00
F81F00
F81F00
F81E00
FC3E00
7FFE00
7FFE00
3FFC00
1FFC00
010000
ENDCHAR
STARTCHAR 011F
ENCODING 287
SWIDTH 488 0
DWIDTH 19 0
BBX 22 34 0 -7
BITMAP
001C3C
001C3C
001E78
001FF8
000FF0
0007E0
000000
000000
000F00
007FF8
01FFF0
03FFF0
07F1F0
07C1F0
0F81F0
0F03E0
1F03E0
1F03E0
1F03E0
1F03C0
1F07C0
1F8FC0
1FFFC0
0FFF80
07FF80
01EF80
000F80
001F00
003F00
7FFE00
7FFE00
FFFC00
7FF000
030000
ENDCHAR
STARTCHAR 0120
ENCODING 288
SWIDTH 488 0
DWIDTH 19 0
BBX 19 33 3 -1
BITMAP
000600
000F00
001F00
001F00
001F00
000E00
000000
000E00
00FFC0
01FFE0
07FFE0
0FFFC0
0FC040
1F0000
3F0000
3E0000
7C0000
7C0000
7C0000
F80F80
F80F80
F80F80
F81F00
F81F00
F81F00
F81F00
F81E00
FC3E00
7FFE00
7FFE00
3FFC00
1FFC00
010000
ENDCHAR
STARTCHAR 0121
ENCODING 289
SWIDTH 488 0
DWIDTH 19 0
BBX 21 33 0 -7
BITMAP
0003C0
0007C0
0007C0
0007C0
000380
000000
000000
000F00
007FF8
01FFF0
03FFF0
07F1F0
07C1F0
0F81F0
0F03E0
1F03E0
1F03E0
1F03E0
1F03C0
1F07C0
1F8FC0
1FFFC0
0FFF80
07FF80
01EF80
000F80
001F00
003F00
7FFE00
7FFE00
FFFC00
7FF000
030000
ENDCHAR
STARTCHAR 0122
ENCODING 290
SWIDTH 488 0
DWIDTH 19 0
BBX 19 32 3 -7
BITMAP
000E00
00FFC0
01FFE0
07FFE0
0FFFC0
0FC040
1F0000
3F0000
3E0000
7C0000
7C0000
7C0000
F80F80
F80F80
F80F80
F81F00
F81F00
F81F00
F81F00
F81E00
FC3E00
7FFE00
7FFE00
3FFC00
1FFC00
010000
000000
078000
0F8000
3F0000
7E0000
300000
ENDCHAR
STARTCHAR 0123
ENCODING 291
SWIDTH 488 0
DWIDTH 19 0
BBX 21 35 0 -7
BITMAP
000020
0000E0
0001F0
0003C0
0007C0
000780
000780
000000
000000
000F00
007FF8
01FFF0
03FFF0
07F1F0
07C1F0
0F81F0
0F03E0
1F03E0
1F03E0
1F03E0
1F03C0
1F07C0
1F8FC0
1FFFC0
0FFF80
07FF80
01EF80
000F80
001F00
003F00
7FFE00
7FFE00
FFFC00
7FF000
030000
ENDCHAR
STARTCHAR 0124
ENCODING 292
SWIDTH 488 0
DWIDTH 19 0
BBX 22 32 1 0
BITMAP
000100
000780
000FC0
001FE0
003DF0
0038E0
000000
000000
03C07C
07C078
07C0F8
07C0F8
07C0F8
0F80F0
0F81F0
0F81F0
0F81F0
1FFFF0
1FFFE0
1FFFE0
1FFFE0
1E03E0
3E07C0
3E07C0
3E07C0
3C07C0
7C0780
7C0F80
7C0F80
780F80
F80F00
F81F00
ENDCHAR
STARTCHAR 0125
ENCODING 293
SWIDTH 488 0
DWIDTH 19 0
BBX 17 32 2 0
BITMAP
001800
003C00
00FE00
01FF00
01C600
000200
000000
03C000
07C000
07C000
07C000
078000
0F8000
0FB800
0FFF00
0FFF80
1FFF80
1FFF80
1F0F80
1F0F80
3E0F80
3E0F80
3E0F80
3E0F80
3C1F00
7C1F00
7C1F00
7C1F00
781E00
F83E00
F83E00
F83E00
ENDCHAR
STARTCHAR 0126
ENCODING 294
SWIDTH 488 0
DWIDTH 19 0
BBX 21 24 2 0
BITMAP
03E1F0
07C1E0
07C3E0
1FFFF8
1FFFF8
3FFFF8
3FFFF0
0F87C0
0F87C0
0FFF80
1FFF80
1FFF80
1FFF80
1E0F00
3E1F00
3E1F00
3E1F00
3C1F00
7C3E00
7C3E00
7C3E00
783E00
F83C00
F87C00
ENDCHAR
STARTCHAR 0127
ENCODING 295
SWIDTH 488 0
DWIDTH 19 0
BBX 17 27 2 0
BITMAP
006000
03E000
03E000
0FFF00
1FFE00
1FFE00
07C000
07C000
079800
0FFF00
0FFF00
0FFF80
0FDF80
1F0F80
1F0F80
1F0F80
1F0F80
3E0F80
3E0F80
3E1F00
3E1F00
3C1F00
7C1F00
7C3E00
7C3E00
783E00
F83E00
ENDCHAR
STARTCHAR 0128
ENCODING 296
SWIDTH 488 0
DWIDTH 19 0
BBX 21 32 1 0
BITMAP
000020
003F30
007FF8
007FF0
00F7E0
002000
000000
000000
03FFF8
03FFF8
07FFF8
07FFF8
003E00
003E00
003E00
003C00
007C00
007C00
007C00
007800
00F800
00F800
00F800
00F000
01F000
01F000
01F000
01F000
7FFF00
7FFF00
7FFF00
FFFF00
ENDCHAR
STARTCHAR 0129
ENCODING 297
SWIDTH 488 0
DWIDTH 19 0
BBX 16 26 4 0
BITMAP
03C6
0FFF
0FFE
1FFC
0C78
0000
0000
0000
7FE0
7FE0
7FC0
FFC0
07C0
07C0
07C0
0F80
0F80
0F80
0F80
0F00
1F00
1F80
1FFC
0FFC
0FFC
07FC
ENDCHAR
STARTCHAR 012A
ENCODING 298
SWIDTH 488 0
DWIDTH 19 0
BBX 21 31 1 0
BITMAP
003FF8
003FF8
007FF8
007FF0
000000
000000
000000
03FFF8
03FFF8
07FFF8
07FFF8
003E00
003E00
003E00
003C00
007C00
007C00
007C00
007800
00F800
00F800
00F800
00F000
01F000
01F000
01F000
01F000
7FFF00
7FFF00
7FFF00
FFFF00
ENDCHAR
STARTCHAR 012B
ENCODING 299
SWIDTH 488 0
DWIDTH 19 0
BBX 16 25 4 0
BITMAP
0FFF
0FFE
0FFE
0000
0000
0000
0000
7FE0
7FE0
7FC0
FFC0
07C0
07C0
07C0
0F80
0F80
0F80
0F80
0F00
1F00
1F80
1FFC
0FFC
0FFC
07FC
ENDCHAR
STARTCHAR 012C
ENCODING 300
SWIDTH 488 0
DWIDTH 19 0
BBX 21 32 1 0
BITMAP
003878
003878
003FF0
003FF0
001FE0
000780
000000
000000
03FFF8
03FFF8
07FFF8
07FFF8
003E00
003E00
003E00
003C00
007C00
007C00
007C00
007800
00F800
00F800
00F800
00F000
01F000
01F000
01F000
01F000
7FFF00
7FFF00
7FFF00
FFFF00
ENDCHAR
STARTCHAR 012D
ENCODING 301
SWIDTH 488 0
DWIDTH 19 0
BBX 16 27 4 0
BITMAP
070F
070F
079E
07FE
03FC
01F8
0000
0000
0000
7FE0
7FE0
7FC0
FFC0
07C0
07C0
07C0
0F80
0F80
0F80
0F80
0F00
1F00
1F80
1FFC
0FFC
0FFC
07FC
ENDCHAR
STARTCHAR 012E
ENCODING 302
SWIDTH 488 0
DWIDTH 19 0
BBX 21 31 1 -7
BITMAP
03FFF8
03FFF8
07FFF8
07FFF8
003E00
003E00
003E00
003C00
007C00
007C00
007C00
007800
00F800
00F800
00F800
00F000
01F000
01F000
01F000
01F000
7FFF00
7FFF00
7FFF00
FFFF00
07C000
0F8000
1F0000
1E0000
3FC000
1FC000
070000
ENDCHAR
STARTCHAR 012F
ENCODING 303
SWIDTH 488 0
DWIDTH 19 0
BBX 14 34 4 -7
BITMAP
0040
01F0
03F0
03F0
03F0
01E0
0080
0000
0000
7FE0
7FE0
7FC0
FFC0
07C0
07C0
07C0
0F80
0F80
0F80
0F80
0F00
1F00
1F80
1FFC
0FFC
0FFC
07FC
00F0
01E0
03C0
07C0
07F0
07F0
00C0
ENDCHAR
STARTCHAR 0130
ENCODING 304
SWIDTH 488 0
DWIDTH 19 0
BBX 21 32 1 0
BITMAP
000300
000F80
000F80
000F80
000F80
000700
000000
000000
03FFF8
03FFF8
07FFF8
07FFF8
003E00
003E00
003E00
003C00
007C00
007C00
007C00
007800
00F800
00F800
00F800
00F000
01F000
01F000
01F000
01F000
7FFF00
7FFF00
7FFF00
FFFF00
ENDCHAR
STARTCHAR 0131
ENCODING 305
SWIDTH 488 0
DWIDTH 19 0
BBX 14 18 4 0
BITMAP
7FE0
7FE0
7FC0
FFC0
07C0
07C0
07C0
0F80
0F80
0F80
0F80
0F00
1F00
1F80
1FFC
0FFC
0FFC
07FC
ENDCHAR
STARTCHAR 0132
ENCODING 306
SWIDTH 488 0
DWIDTH 19 0
BBX 22 25 1 -1
BITMAP
07C03C
07803C
07807C
0F807C
0F8078
0F0078
0F00F8
1F00F8
1F00F0
1E00F0
1E01F0
1E01F0
3E01E0
3E01E0
3C03E0
3C03E0
7C03C0
7C03C0
7807C0
7907C0
F9CF80
FBFF80
F3FF00
F1FE00
002000
ENDCHAR
STARTCHAR 0133
ENCODING 307
SWIDTH 488 0
DWIDTH 19 0
BBX 19 33 3 -6
BITMAP
018080
07C3E0
07C7E0
0FE7E0
07C7E0
07C3C0
000100
000000
000000
0F8F80
0F0F80
1F0F80
1F0F80
1F0F00
1E1F00
3E1F00
3E1F00
3E1E00
3C3E00
7C3E00
7C3E00
7C3C00
7C7C00
F87C00
F87C00
F87800
F8F800
00F800
01F800
1FF000
1FF000
1FE000
3FC000
ENDCHAR
STARTCHAR 0134
ENCODING 308
SWIDTH 488 0
DWIDTH 19 0
BBX 20 33 2 -1
BITMAP
000100
000780
000FC0
001FE0
007DE0
0038E0
000040
000000
01FFF0
01FFE0
03FFE0
03FFE0
0003E0
0003C0
0007C0
0007C0
0007C0
000780
000F80
000F80
000F80
000F00
001F00
001F00
001F00
001E00
003E00
607E00
FFFC00
FFFC00
FFF800
3FE000
020000
ENDCHAR
STARTCHAR 0135
ENCODING 309
SWIDTH 488 0
DWIDTH 19 0
BBX 19 34 0 -7
BITMAP
000100
000700
000F80
001FC0
003DE0
0078E0
003040
000000
000000
03FFC0
03FFC0
03FFC0
07FFC0
000F80
000F80
000F80
000F80
000F00
001F00
001F00
001F00
001E00
003E00
003E00
003E00
003C00
007C00
007C00
40FC00
7FF800
FFF800
FFF000
7FE000
060000
ENDCHAR
STARTCHAR 0136
ENCODING 310
SWIDTH 488 0
DWIDTH 19 0
BBX 22 31 1 -7
BITMAP
03E07C
03C0F8
07C1F0
07C3F0
07C7E0
0787C0
0F8F80
0F9F00
0FBE00
0F7C00
1FF800
1FF000
1FF800
1FFC00
3E7C00
3E7E00
3E3E00
3E3F00
3C1F00
7C1F00
7C0F80
7C0F80
780F80
F807C0
000000
000000
03C000
078000
1F8000
3F0000
180000
ENDCHAR
STARTCHAR 0137
ENCODING 311
SWIDTH 488 0
DWIDTH 19 0
BBX 20 34 2 -7
BITMAP
00E000
03E000
03E000
03E000
03C000
07C000
07C000
07C000
078000
0F83F0
0F87C0
0F8FC0
0F1F80
1F3F00
1F7C00
1FF800
1FF000
3FF000
3FF000
3EF800
3CFC00
7C7C00
7C3E00
7C3E00
7C3F00
F81F00
F81F00
000000
000000
038000
078000
3F8000
3F0000
380000
ENDCHAR
STARTCHAR 0138
ENCODING 312
SWIDTH 488 0
DWIDTH 19 0
BBX 20 18 2 0
BITMAP
0F83F0
0F87C0
0F8FC0
0F1F80
1F3F00
1F7C00
1FF800
1FF000
3FF000
3FF000
3EF800
3CFC00
7C7C00
7C3E00
7C3E00
7C3F00
F81F00
F81F00
ENDCHAR
STARTCHAR 0139
ENCODING 313
SWIDTH 488 0
DWIDTH 19 0
BBX 16 32 2 0
BITMAP
0018
0038
00FC
01FC
03F0
01C0
0180
0000
07C0
07C0
07C0
0780
0F80
0F80
0F80
0F00
1F00
1F00
1F00
1F00
3E00
3E00
3E00
3E00
3C00
7C00
7C00
7C00
7FFF
FFFE
FFFE
FFFE
ENDCHAR
STARTCHAR 013A
ENCODING 314
SWIDTH 488 0
DWIDTH 19 0
BBX 14 32 5 0
BITMAP
0018
0078
01FC
03F8
03C0
0200
0000
7FE0
7FE0
7FC0
FFC0
07C0
07C0
0780
0F80
0F80
0F80
0F80
1F00
1F00
1F00
1F00
1E00
3E00
3E00
3E00
3E00
3E00
3FF0
3FF8
1FF8
1FF0
ENDCHAR
STARTCHAR 013B
ENCODING 315
SWIDTH 488 0
DWIDTH 19 0
BBX 16 31 2 -7
BITMAP
07C0
07C0
07C0
0780
0F80
0F80
0F80
0F00
1F00
1F00
1F00
1F00
3E00
3E00
3E00
3E00
3C00
7C00
7C00
7C00
7FFF
FFFE
FFFE
FFFE
0000
0000
0380
0780
3F80
3F00
3800
ENDCHAR
STARTCHAR 013C
ENCODING 316
SWIDTH 488 0
DWIDTH 19 0
BBX 12 34 6 -7
BITMAP
7FC0
FFC0
FFC0
FFC0
0780
0F80
0F80
0F80
0F00
1F00
1F00
1F00
1F00
3E00
3E00
3E00
3E00
3C00
7C00
7C00
7C00
7C00
7C00
7FE0
7FF0
3FF0
3FE0
0000
0000
0E00
1E00
FE00
FC00
F000
ENDCHAR
STARTCHAR 013D
ENCODING 317
SWIDTH 488 0
DWIDTH 19 0
BBX 18 24 2 0
BITMAP
07C7C0
07C780
07C780
078780
0F8700
0F8F00
0F8E00
0F0E00
1F0000
1F0000
1F0000
1F0000
3E0000
3E0000
3E0000
3E0000
3C0000
7C0000
7C0000
7C0000
7FFF00
FFFE00
FFFE00
FFFE00
ENDCHAR
STARTCHAR 013E
ENCODING 318
SWIDTH 488 0
DWIDTH 19 0
BBX 18 27 6 0
BITMAP
7FC7C0
FFC780
FFC780
FFC780
078700
0F8F00
0F8E00
0F8E00
0F0E00
1F0000
1F0000
1F0000
1F0000
3E0000
3E0000
3E0000
3E0000
3C0000
7C0000
7C0000
7C0000
7C0000
7C0000
7FE000
7FF000
3FF000
3FE000
ENDCHAR
STARTCHAR 013F
ENCODING 319
SWIDTH 488 0
DWIDTH 19 0
BBX 17 24 2 0
BITMAP
07C000
07C000
07C000
078000
0F8000
0F8000
0F8000
0F0000
1F0000
1F0F80
1F0F80
1F0F80
3E0F80
3E0700
3E0000
3E0000
3C0000
7C0000
7C0000
7C0000
7FFF00
FFFE00
FFFE00
FFFE00
ENDCHAR
STARTCHAR 0140
ENCODING 320
SWIDTH 488 0
DWIDTH 19 0
BBX 17 27 6 0
BITMAP
7FC000
FFC000
FFC000
FFC000
078000
0F8000
0F8000
0F8000
0F0000
1F0000
1F0000
1F0000
1F0F80
3E0F80
3E0F80
3E0F80
3E0700
3C0000
7C0000
7C0000
7C0000
7C0000
7C0000
7FE000
7FF000
3FF000
3FE000
ENDCHAR
STARTCHAR 0141
ENCODING 321
SWIDTH 488 0
DWIDTH 19 0
BBX 16 24 2 0
BITMAP
01F0
01E0
03E0
03E0
03E0
03C0
07CC
07FC
07FC
07FC
0FF0
3FC0
FF80
FF00
FF00
5F00
1F00
1E00
3E00
3E00
3FFF
3FFE
7FFE
7FFE
ENDCHAR
STARTCHAR 0142
ENCODING 322
SWIDTH 488 0
DWIDTH 19 0
BBX 13 27 5 0
BITMAP
3FE0
7FE0
7FE0
7FE0
03C0
07C0
07C0
07C0
0790
0FF8
0FF8
0FF0
3FC0
FF00
FF00
FF00
1F00
1E00
3E00
3E00
3E00
3E00
3E00
3FF0
3FF8
1FF8
1FF0
ENDCHAR
STARTCHAR 0143
ENCODING 323
SWIDTH 488 0
DWIDTH 19 0
BBX 22 32 1 0
BITMAP
0000C0
0001C0
0003E0
000FE0
001FC0
000F00
000400
000000
03C07C
07C078
07E078
07E078
07E0F8
0FF0F0
0FF0F0
0F70F0
0F71F0
1F79E0
1E79E0
1E39E0
1E39E0
1E3BE0
3E3FC0
3C3FC0
3C1FC0
3C1FC0
7C1F80
781F80
781F80
780F80
F80F00
F00F00
ENDCHAR
STARTCHAR 0144
ENCODING 324
SWIDTH 488 0
DWIDTH 19 0
BBX 17 27 2 0
BITMAP
000200
000700
000F00
003F80
007F00
007C00
003000
000000
007800
0FFF00
0FFF80
1FFF80
1FFF80
1F0F80
1F0F80
3E0F80
3E0F80
3E0F80
3E0F80
3C1F00
7C1F00
7C1F00
7C1F00
783E00
F83E00
F83E00
F83E00
ENDCHAR
STARTCHAR 0145
ENCODING 325
SWIDTH 488 0
DWIDTH 19 0
BBX 22 31 1 -7
BITMAP
03C07C
07C078
07E078
07E078
07E0F8
0FF0F0
0FF0F0
0F70F0
0F71F0
1F79E0
1E79E0
1E39E0
1E39E0
1E3BE0
3E3FC0
3C3FC0
3C1FC0
3C1FC0
7C1F80
781F80
781F80
780F80
F80F00
F00F00
000000
000000
03C000
078000
1F8000
3F0000
180000
ENDCHAR
STARTCHAR 0146
ENCODING 326
SWIDTH 488 0
DWIDTH 19 0
BBX 17 26 2 -7
BITMAP
007800
0FFF00
0FFF80
1FFF80
1FFF80
1F0F80
1F0F80
3E0F80
3E0F80
3E0F80
3E0F80
3C1F00
7C1F00
7C1F00
7C1F00
783E00
F83E00
F83E00
F83E00
000000
000000
078000
0F0000
3F0000
7E0000
300000
ENDCHAR
STARTCHAR 0147
ENCODING 327
SWIDTH 488 0
DWIDTH 19 0
BBX 22 32 1 0
BITMAP
001830
003CF0
001FF0
000FC0
000F80
000700
000200
000000
03C07C
07C078
07E078
07E078
07E0F8
0FF0F0
0FF0F0
0F70F0
0F71F0
1F79E0
1E79E0
1E39E0
1E39E0
1E3BE0
3E3FC0
3C3FC0
3C1FC0
3C1FC0
7C1F80
781F80
781F80
780F80
F80F00
F00F00
ENDCHAR
STARTCHAR 0148
ENCODING 328
SWIDTH 488 0
DWIDTH 19 0
BBX 18 27 2 0
BITMAP
004080
00E3C0
00F7C0
007F80
003E00
001C00
001800
000000
007800
0FFF00
0FFF80
1FFF80
1FFF80
1F0F80
1F0F80
3E0F80
3E0F80
3E0F80
3E0F80
3C1F00
7C1F00
7C1F00
7C1F00
783E00
F83E00
F83E00
F83E00
ENDCHAR
STARTCHAR 0149
ENCODING 329
SWIDTH 488 0
DWIDTH 19 0
BBX 18 27 2 0
BITMAP
078000
078000
0F8000
0F0000
1F0000
1E0000
3C0000
0C0000
003800
0FFF00
0FFF80
0FFF80
0FDFC0
1F07C0
1F07C0
1F07C0
1F0780
3E0F80
3E0F80
3E0F80
3E0F80
3C1F00
7C1F00
7C1F00
7C1F00
783E00
F83E00
ENDCHAR
STARTCHAR 014A
ENCODING 330
SWIDTH 488 0
DWIDTH 19 0
BBX 22 31 1 -7
BITMAP
03C07C
07C078
07E078
07E078
07E0F8
0FF0F0
0FF0F0
0F70F0
0F71F0
1F79E0
1E79E0
1E39E0
1E39E0
1E3BE0
3E3FC0
3C3FC0
3C1FC0
3C1FC0
7C1F80
781F80
781F80
780F80
F80F00
F00F00
000F00
001E00
01FE00
01FE00
03FC00
03F800
008000
ENDCHAR
STARTCHAR 014B
ENCODING 331
SWIDTH 488 0
DWIDTH 19 0
BBX 17 26 2 -7
BITMAP
007000
0FFE00
0FFF00
1FFF80
1FBF80
1F0F80
1E0F80
3E0F80
3E0F80
3E0F80
3E0F80
3C1F00
7C1F00
7C1F00
7C1F00
781E00
F83E00
F83E00
F83E00
007C00
007C00
03FC00
07F800
07F800
07F000
010000
ENDCHAR
STARTCHAR 014C
ENCODING 332
SWIDTH 488 0
DWIDTH 19 0
BBX 19 32 3 -1
BITMAP
00FFE0
00FFE0
01FFE0
01FFC0
000000
000000
003800
01FE00
07FF00
0FFF80
1FFF80
1F07C0
3E07C0
3E07C0
7C07C0
7C07C0
7C07C0
F807C0
F807C0
F80780
F80F80
F80F80
F00F80
F01F00
F01F00
F83E00
F87E00
FFFC00
7FF800
7FF000
1FE000
020000
ENDCHAR
STARTCHAR 014D
ENCODING 333
SWIDTH 488 0
DWIDTH 19 0
BBX 17 26 3 -1
BITMAP
03FF80
03FF80
03FF80
000000
000000
000000
00F000
07FC00
0FFE00
1FFF00
3F3F00
7E1F80
7C0F80
F80F80
F80F80
F80F00
F00F00
F01F00
F01F00
F83E00
F87E00
FFFC00
FFF800
7FF000
3FE000
040000
ENDCHAR
STARTCHAR 014E
ENCODING 334
SWIDTH 488 0
DWIDTH 19 0
BBX 19 33 3 -1
BITMAP
00F0E0
00F1E0
00FFE0
007FC0
007F80
001E00
000000
003800
01FE00
07FF00
0FFF80
1FFF80
1F07C0
3E07C0
3E07C0
7C07C0
7C07C0
7C07C0
F807C0
F807C0
F80780
F80F80
F80F80
F00F80
F01F00
F01F00
F83E00
F87E00
FFFC00
7FF800
7FF000
1FE000
020000
ENDCHAR
STARTCHAR 014F
ENCODING 335
SWIDTH 488 0
DWIDTH 19 0
BBX 17 28 3 -1
BITMAP
01C380
03C380
03C780
01FF00
01FF00
00FC00
000000
000000
00F000
07FC00
0FFE00
1FFF00
3F3F00
7E1F80
7C0F80
F80F80
F80F80
F80F00
F00F00
F01F00
F01F00
F83E00
F87E00
FFFC00
FFF800
7FF000
3FE000
040000
ENDCHAR
STARTCHAR 0150
ENCODING 336
SWIDTH 488 0
DWIDTH 19 0
BBX 22 33 3 -1
BITMAP
001010
003878
00FCFC
01F9F8
03E3E0
01C1C0
000000
003800
01FE00
07FF00
0FFF80
1FFF80
1F07C0
3E07C0
3E07C0
7C07C0
7C07C0
7C07C0
F807C0
F807C0
F80780
F80F80
F80F80
F00F80
F01F00
F01F00
F83E00
F87E00
FFFC00
7FF800
7FF000
1FE000
020000
ENDCHAR
STARTCHAR 0151
ENCODING 337
SWIDTH 488 0
DWIDTH 19 0
BBX 20 28 3 -1
BITMAP
004040
00E0E0
01F1E0
03F3F0
07C7C0
078780
020600
000000
00F000
07FC00
0FFE00
1FFF00
3F3F00
7E1F80
7C0F80
F80F80
F80F80
F80F00
F00F00
F01F00
F01F00
F83E00
F87E00
FFFC00
FFF800
7FF000
3FE000
040000
ENDCHAR
STARTCHAR 0152
ENCODING 338
SWIDTH 488 0
DWIDTH 19 0
BBX 22 24 2 0
BITMAP
00FFFC
03FFF8
07FFF8
0FFFF8
1F8F00
1F0F00
3E1F00
3E1E00
3C1E00
7C1FC0
7C3FC0
783FC0
783FC0
F83C00
F87C00
F87C00
F87800
F87800
F87800
F8F800
7FFF80
7FFF80
3FFF80
1FFF80
ENDCHAR
STARTCHAR 0153
ENCODING 339
SWIDTH 488 0
DWIDTH 19 0
BBX 21 20 1 -1
BITMAP
01C0C0
07F3F0
0FF7F0
1FFFF8
1E7E78
3C7C78
3C3870
7878F0
7879F0
787FE0
707FC0
F07F00
F0F000
F0F000
F1F000
7FF840
7FFFC0
7FBFC0
3F1FC0
080000
ENDCHAR
STARTCHAR 0154
ENCODING 340
SWIDTH 488 0
DWIDTH 19 0
BBX 20 32 1 0
BITMAP
000080
0003C0
0007C0
000FE0
001F80
001E00
000800
000000
03FF80
03FFC0
07FFE0
07FFE0
07C3F0
0781F0
0F81F0
0F81F0
0F81E0
0F83E0
0F07E0
1FFFC0
1FFF80
1FFE00
1FFC00
3E3E00
3E3E00
3E1E00
3C1F00
7C1F00
7C0F00
7C0F80
780F80
F80780
ENDCHAR
STARTCHAR 0155
ENCODING 341
SWIDTH 488 0
DWIDTH 19 0
BBX 18 27 3 0
BITMAP
000200
000700
001F00
003F80
007F00
007C00
003000
000000
003E00
07FFC0
0FFF80
1FFF80
1FFF00
1F0000
1E0000
3E0000
3E0000
3E0000
3E0000
7C0000
7C0000
7C0000
7C0000
780000
F80000
F80000
F80000
ENDCHAR
STARTCHAR 0156
ENCODING 342
SWIDTH 488 0
DWIDTH 19 0
BBX 20 31 1 -7
BITMAP
03FF80
03FFC0
07FFE0
07FFE0
07C3F0
0781F0
0F81F0
0F81F0
0F81E0
0F83E0
0F07E0
1FFFC0
1FFF80
1FFE00
1FFC00
3E3E00
3E3E00
3E1E00
3C1F00
7C1F00
7C0F00
7C0F80
780F80
F80780
000000
000000
03C000
078000
1F8000
3F0000
180000
ENDCHAR
STARTCHAR 0157
ENCODING 343
SWIDTH 488 0
DWIDTH 19 0
BBX 22 26 -1 -7
BITMAP
0003E0
007FFC
00FFF8
01FFF8
01FFF0
01F000
01E000
03E000
03E000
03E000
03E000
07C000
07C000
07C000
07C000
078000
0F8000
0F8000
0F8000
000000
000000
1E0000
1E0000
FC0000
FC0000
E00000
ENDCHAR
STARTCHAR 0158
ENCODING 344
SWIDTH 488 0
DWIDTH 19 0
BBX 20 32 1 0
BITMAP
0030C0
0079E0
007FC0
003F80
001F00
000E00
000000
000000
03FF80
03FFC0
07FFE0
07FFE0
07C3F0
0781F0
0F81F0
0F81F0
0F81E0
0F83E0
0F07E0
1FFFC0
1FFF80
1FFE00
1FFC00
3E3E00
3E3E00
3E1E00
3C1F00
7C1F00
7C0F00
7C0F80
780F80
F80780
ENDCHAR
STARTCHAR 0159
ENCODING 345
SWIDTH 488 0
DWIDTH 19 0
BBX 18 27 3 0
BITMAP
004080
00E1C0
00F7C0
007F80
003E00
001C00
000800
000000
003E00
07FFC0
0FFF80
1FFF80
1FFF00
1F0000
1E0000
3E0000
3E0000
3E0000
3E0000
7C0000
7C0000
7C0000
7C0000
780000
F80000
F80000
F80000
ENDCHAR
STARTCHAR 015A
ENCODING 346
SWIDTH 488 0
DWIDTH 19 0
BBX 20 33 1 -1
BITMAP
000080
0003C0
0007C0
000FE0
001F80
001E00
000800
001E00
00FFE0
01FFF0
03FFE0
07F7E0
07C000
0F8000
0F8000
0F8000
0FC000
07F000
07FC00
03FE00
00FF00
007F80
001F80
000F80
000F80
000780
000F80
300F80
7FFF00
7FFF00
FFFE00
3FF800
010000
ENDCHAR
STARTCHAR 015B
ENCODING 347
SWIDTH 488 0
DWIDTH 19 0
BBX 18 28 2 -1
BITMAP
000200
000700
000F00
003F80
007F00
007C00
003000
000000
007C00
03FFC0
07FF80
0FFF80
0F8300
1F0000
1F0000
1FC000
0FF000
0FFC00
03FE00
00FE00
003F00
001F00
603E00
7FFE00
7FFE00
FFFC00
7FF000
030000
ENDCHAR
STARTCHAR 015C
ENCODING 348
SWIDTH 488 0
DWIDTH 19 0
BBX 20 33 1 -1
BITMAP
000100
000780
000FC0
001FE0
003DF0
0038E0
000000
001E00
00FFE0
01FFF0
03FFE0
07F7E0
07C000
0F8000
0F8000
0F8000
0FC000
07F000
07FC00
03FE00
00FF00
007F80
001F80
000F80
000F80
000780
000F80
300F80
7FFF00
7FFF00
FFFE00
3FF800
010000
ENDCHAR
STARTCHAR 015D
ENCODING 349
SWIDTH 488 0
DWIDTH 19 0
BBX 18 28 2 -1
BITMAP
000400
000E00
001F00
007F00
00FF80
00E3C0
00C180
000000
007C00
03FFC0
07FF80
0FFF80
0F8300
1F0000
1F0000
1FC000
0FF000
0FFC00
03FE00
00FE00
003F00
001F00
603E00
7FFE00
7FFE00
FFFC00
7FF000
030000
ENDCHAR
STARTCHAR 015E
ENCODING 350
SWIDTH 488 0
DWIDTH 19 0
BBX 20 32 1 -7
BITMAP
001E00
00FFE0
01FFF0
03FFE0
07F7E0
07C000
0F8000
0F8000
0F8000
0FC000
07F000
07FC00
03FE00
00FF00
007F80
001F80
000F80
000F80
000780
000F80
300F80
7FFF00
7FFF00
FFFE00
3FF800
038000
078000
01C000
01C000
1FC000
3F8000
0C0000
ENDCHAR
STARTCHAR 015F
ENCODING 351
SWIDTH 488 0
DWIDTH 19 0
BBX 18 26 2 -7
BITMAP
007C00
03FFC0
07FF80
0FFF80
0F8300
1F0000
1F0000
1FC000
0FF000
0FFC00
03FE00
00FE00
003F00
001F00
603E00
7FFE00
7FFE00
FFFC00
7FF000
070000
0F8000
038000
03C000
3F8000
3F8000
0C0000
ENDCHAR
STARTCHAR 0160
ENCODING 352
SWIDTH 488 0
DWIDTH 19 0
BBX 20 33 1 -1
BITMAP
001820
003CF0
001FF0
001FC0
000F80
000700
000200
001E00
00FFE0
01FFF0
03FFE0
07F7E0
07C000
0F8000
0F8000
0F8000
0FC000
07F000
07FC00
03FE00
00FF00
007F80
001F80
000F80
000F80
000780
000F80
300F80
7FFF00
7FFF00
FFFE00
3FF800
010000
ENDCHAR
STARTCHAR 0161
ENCODING 353
SWIDTH 488 0
DWIDTH 19 0
BBX 18 28 2 -1
BITMAP
000080
00F1C0
00FFC0
007F80
003F00
001C00
000800
000000
007C00
03FFC0
07FF80
0FFF80
0F8300
1F0000
1F0000
1FC000
0FF000
0FFC00
03FE00
00FE00
003F00
001F00
603E00
7FFE00
7FFE00
FFFC00
7FF000
030000
ENDCHAR
STARTCHAR 0162
ENCODING 354
SWIDTH 488 0
DWIDTH 19 0
BBX 19 31 4 -7
BITMAP
3FFFE0
3FFFE0
7FFFE0
7FFFE0
01F000
01F000
01F000
03E000
03E000
03E000
03E000
03C000
07C000
07C000
07C000
078000
0F8000
0F8000
0F8000
0F0000
1F0000
1F0000
1F0000
1E0000
1C0000
3E0000
0E0000
0F0000
FE0000
FE0000
300000
ENDCHAR
STARTCHAR 0163
ENCODING 355
SWIDTH 488 0
DWIDTH 19 0
BBX 16 30 4 -6
BITMAP
07C0
07C0
07C0
0780
0F80
7FFF
FFFF
FFFE
FFFE
1F00
1F00
1F00
3E00
3E00
3E00
3E00
3C00
7C00
7E00
3FF8
3FF8
3FF8
0FF8
0380
0780
03C0
03C0
1FC0
3F80
0C00
ENDCHAR
STARTCHAR 0164
ENCODING 356
SWIDTH 488 0
DWIDTH 19 0
BBX 18 32 5 0
BITMAP
018300
03CF00
01FF00
00FC00
00F800
007000
002000
000000
7FFFC0
7FFFC0
FFFFC0
FFFFC0
03E000
03E000
03E000
07C000
07C000
07C000
07C000
078000
0F8000
0F8000
0F8000
0F0000
1F0000
1F0000
1F0000
1E0000
3E0000
3E0000
3E0000
3C0000
ENDCHAR
STARTCHAR 0165
ENCODING 357
SWIDTH 488 0
DWIDTH 19 0
BBX 18 27 4 0
BITMAP
0003C0
0003C0
000780
002780
03E700
03C700
07C700
07C000
07C000
7FFF00
7FFF00
7FFF00
FFFF00
0F8000
1F0000
1F0000
1F0000
1F0000
1E0000
3E0000
3E0000
3E0000
3E0400
3FFC00
3FFC00
1FFC00
0FF800
ENDCHAR
STARTCHAR 0166
ENCODING 358
SWIDTH 488 0
DWIDTH 19 0
BBX 18 24 5 0
BITMAP
7FFFC0
7FFFC0
FFFFC0
FFFFC0
03E000
03E000
03E000
07C000
07C000
07C000
07C000
FFFC00
FFF800
FFF800
FFF800
0F0000
1F0000
1F0000
1F0000
1E0000
3E0000
3E0000
3E0000
3C0000
ENDCHAR
STARTCHAR 0167
ENCODING 359
SWIDTH 488 0
DWIDTH 19 0
BBX 17 24 3 0
BITMAP
001000
01F000
01E000
03E000
03E000
03E000
3FFF80
3FFF80
3FFF80
7FFF80
07C000
0F8000
0F8000
FFFF00
FFFF00
FFFF00
1F0000
1F0000
1F0000
1F0200
1FFE00
1FFE00
0FFE00
07FC00
ENDCHAR
STARTCHAR 0168
ENCODING 360
SWIDTH 488 0
DWIDTH 19 0
BBX 19 33 3 -1
BITMAP
000080
00FCC0
01FFE0
01FFC0
03DF80
008000
000000
000000
0F01E0
1F03E0
1F03E0
1F03E0
1E03C0
3E07C0
3E07C0
3E07C0
3C0780
7C0F80
7C0F80
7C0F80
780F00
F81F00
F81F00
F81F00
F81E00
F03E00
F03E00
F87C00
FFFC00
FFF800
7FF000
3FE000
060000
ENDCHAR
STARTCHAR 0169
ENCODING 361
SWIDTH 488 0
DWIDTH 19 0
BBX 17 26 3 0
BITMAP
01E100
03FF80
07FF80
07FF00
031E00
000000
000000
000000
3E0F80
3E0F80
3E0F80
3E0F80
3C1F00
7C1F00
7C1F00
7C1F00
781E00
F83E00
F83E00
F83E00
F83E00
F87C00
FFFE00
FFFE00
7FFE00
3F9E00
ENDCHAR
STARTCHAR 016A
ENCODING 362
SWIDTH 488 0
DWIDTH 19 0
BBX 19 32 3 -1
BITMAP
00FFE0
01FFE0
01FFC0
01FFC0
000000
000000
000000
0F01E0
1F03E0
1F03E0
1F03E0
1E03C0
3E07C0
3E07C0
3E07C0
3C0780
7C0F80
7C0F80
7C0F80
780F00
F81F00
F81F00
F81F00
F81E00
F03E00
F03E00
F87C00
FFFC00
FFF800
7FF000
3FE000
060000
ENDCHAR
STARTCHAR 016B
ENCODING 363
SWIDTH 488 0
DWIDTH 19 0
BBX 17 25 3 0
BITMAP
03FF80
03FF80
03FF80
000000
000000
000000
000000
3E0F80
3E0F80
3E0F80
3E0F80
3C1F00
7C1F00
7C1F00
7C1F00
781E00
F83E00
F83E00
F83E00
F83E00
F87C00
FFFE00
FFFE00
7FFE00
3F9E00
ENDCHAR
STARTCHAR 016C
ENCODING 364
SWIDTH 488 0
DWIDTH 19 0
BBX 19 33 3 -1
BITMAP
00E1E0
00E1E0
00FFC0
00FFC0
007F80
001E00
000000
000000
0F01E0
1F03E0
1F03E0
1F03E0
1E03C0
3E07C0
3E07C0
3E07C0
3C0780
7C0F80
7C0F80
7C0F80
780F00
F81F00
F81F00
F81F00
F81E00
F03E00
F03E00
F87C00
FFFC00
FFF800
7FF000
3FE000
060000
ENDCHAR
STARTCHAR 016D
ENCODING 365
SWIDTH 488 0
DWIDTH 19 0
BBX 17 27 3 0
BITMAP
03C380
03C780
03CF80
03FF00
01FE00
00FC00
000000
000000
000000
3E0F80
3E0F80
3E0F80
3E0F80
3C1F00
7C1F00
7C1F00
7C1F00
781E00
F83E00
F83E00
F83E00
F83E00
F87C00
FFFE00
FFFE00
7FFE00
3F9E00
ENDCHAR
STARTCHAR 016E
ENCODING 366
SWIDTH 488 0
DWIDTH 19 0
BBX 19 33 3 -1
BITMAP
007C00
00FE00
00EF00
00C700
00C700
00FF00
007E00
003C00
000000
1F03E0
1F03E0
1F03E0
1E03C0
3E07C0
3E07C0
3E07C0
3C0780
7C0F80
7C0F80
7C0F80
780F00
F81F00
F81F00
F81F00
F81E00
F03E00
F03E00
F87C00
FFFC00
FFF800
7FF000
3FE000
060000
ENDCHAR
STARTCHAR 016F
ENCODING 367
SWIDTH 488 0
DWIDTH 19 0
BBX 17 28 3 0
BITMAP
007C00
00FE00
00E700
01C700
00C700
00FE00
007E00
003800
000000
000000
3E0F80
3E0F80
3E0F80
3E0F80
3C1F00
7C1F00
7C1F00
7C1F00
781E00
F83E00
F83E00
F83E00
F83E00
F87C00
FFFE00
FFFE00
7FFE00
3F9E00
ENDCHAR
STARTCHAR 0170
ENCODING 368
SWIDTH 488 0
DWIDTH 19 0
BBX 20 33 3 -1
BITMAP
002060
0070F0
01F9F0
03F3F0
07C7C0
038380
000200
000000
0F01E0
1F03E0
1F03E0
1F03E0
1E03C0
3E07C0
3E07C0
3E07C0
3C0780
7C0F80
7C0F80
7C0F80
780F00
F81F00
F81F00
F81F00
F81E00
F03E00
F03E00
F87C00
FFFC00
FFF800
7FF000
3FE000
060000
ENDCHAR
STARTCHAR 0171
ENCODING 369
SWIDTH 488 0
DWIDTH 19 0
BBX 19 27 3 0
BITMAP
004040
00E0C0
01E1E0
03E7E0
0FCFC0
070F00
060600
000000
000000
3E0F80
3E0F80
3E0F80
3E0F80
3C1F00
7C1F00
7C1F00
7C1F00
781E00
F83E00
F83E00
F83E00
F83E00
F87C00
FFFE00
FFFE00
7FFE00
3F9E00
ENDCHAR
STARTCHAR 0172
ENCODING 370
SWIDTH 488 0
DWIDTH 19 0
BBX 19 31 3 -7
BITMAP
0F01E0
1F03E0
1F03E0
1F03E0
1E03C0
3E07C0
3E07C0
3E07C0
3C0780
7C0F80
7C0F80
7C0F80
780F00
F81F00
F81F00
F81F00
F81E00
F03E00
F03E00
F87E00
FFFC00
FFF800
7FF000
3FE000
07C000
0F0000
1E0000
3E0000
3FC000
1FC000
0E0000
ENDCHAR
STARTCHAR 0173
ENCODING 371
SWIDTH 488 0
DWIDTH 19 0
BBX 17 25 3 -7
BITMAP
3E0F80
3E0F80
3E0F80
3E0F80
3C1F00
7C1F00
7C1F00
7C1F00
781E00
F83E00
F83E00
F83E00
F83E00
F87C00
FFFE00
FFFE00
7FFE00
3F9E00
003C00
00F800
01F000
01E000
01FC00
01FC00
007000
ENDCHAR
STARTCHAR 0174
ENCODING 372
SWIDTH 488 0
DWIDTH 19 0
BBX 22 32 2 0
BITMAP
000200
000F00
001F80
003FC0
007BE0
0071C0
000000
000000
0F007C
0F0078
1F0078
1F00F8
1E00F0
1E00F0
1E00F0
3E00F0
3C71E0
3CF1E0
3CF1E0
3DF9E0
79FBC0
7BBBC0
7BBBC0
7F3B80
773F80
FE3F80
FE3F80
FC3F00
FC3F00
F83F00
F83E00
F01E00
ENDCHAR
STARTCHAR 0175
ENCODING 373
SWIDTH 488 0
DWIDTH 19 0
BBX 20 27 2 0
BITMAP
000400
001C00
003E00
007F00
00F780
01E380
00C100
000000
000000
3C00F0
3C00F0
3C00F0
7871E0
78F1E0
78F1E0
79F3C0
79F3C0
7BF3C0
73F380
77F780
777700
7F3700
7E3F00
7C3E00
FC3E00
F83C00
F83C00
ENDCHAR
STARTCHAR 0176
ENCODING 374
SWIDTH 488 0
DWIDTH 19 0
BBX 18 32 6 0
BITMAP
003000
007000
01F800
03FC00
07DE00
070E00
020000
000000
F007C0
F00F80
F81F00
F81F00
F83E00
F83E00
787C00
78F800
7CF000
7DF000
3FE000
3FC000
3FC000
3F8000
1F0000
1F0000
3E0000
3E0000
3E0000
3E0000
7C0000
7C0000
7C0000
7C0000
ENDCHAR
STARTCHAR 0177
ENCODING 375
SWIDTH 488 0
DWIDTH 19 0
BBX 23 33 -2 -7
BITMAP
000040
0001C0
0003E0
0007F0
000F78
001E38
000C10
000000
000000
03E03E
03E03E
01E07C
01F07C
01F078
01F0F8
01F0F8
01F1F0
01F1F0
01F3E0
00F3E0
00F7C0
00FFC0
00FF80
00FF00
007F00
007E00
007C00
00F800
01F800
3FF000
7FE000
7FC000
FF0000
ENDCHAR
STARTCHAR 0178
ENCODING 376
SWIDTH 488 0
DWIDTH 19 0
BBX 18 32 6 0
BITMAP
020400
0F1F00
1F1F00
1F1F00
1F1E00
0C0C00
000000
000000
F007C0
F00F80
F81F00
F81F00
F83E00
F83E00
787C00
78F800
7CF000
7DF000
3FE000
3FC000
3FC000
3F8000
1F0000
1F0000
3E0000
3E0000
3E0000
3E0000
7C0000
7C0000
7C0000
7C0000
ENDCHAR
STARTCHAR 0179
ENCODING 377
SWIDTH 488 0
DWIDTH 19 0
BBX 21 32 1 0
BITMAP
0000C0
0001C0
0003E0
000FE0
001FC0
000F00
000400
000000
03FFF8
03FFF8
03FFF8
07FFF0
0003F0
0007E0
0007C0
000F80
001F00
003E00
007C00
00FC00
01F800
01F000
03E000
07C000
0F8000
1F8000
1F0000
3E0000
7FFF80
7FFF80
FFFF00
FFFF00
ENDCHAR
STARTCHAR 017A
ENCODING 378
SWIDTH 488 0
DWIDTH 19 0
BBX 18 27 2 0
BITMAP
000200
000700
000F00
003F80
007F00
007C00
003000
000000
000000
0FFFC0
0FFFC0
0FFFC0
0FFF80
001F00
003E00
007C00
00F800
01F000
03E000
07C000
0F8000
1F0000
3E0000
7FFE00
7FFE00
FFFE00
FFFE00
ENDCHAR
STARTCHAR 017B
ENCODING 379
SWIDTH 488 0
DWIDTH 19 0
BBX 21 32 1 0
BITMAP
000300
000F80
000F80
000F80
000F80
000700
000000
000000
03FFF8
03FFF8
03FFF8
07FFF0
0003F0
0007E0
0007C0
000F80
001F00
003E00
007C00
00FC00
01F800
01F000
03E000
07C000
0F8000
1F8000
1F0000
3E0000
7FFF80
7FFF80
FFFF00
FFFF00
ENDCHAR
STARTCHAR 017C
ENCODING 380
SWIDTH 488 0
DWIDTH 19 0
BBX 18 26 2 0
BITMAP
001E00
003F00
003F00
003E00
001E00
000000
000000
000000
0FFFC0
0FFFC0
0FFFC0
0FFF80
001F00
003E00
007C00
00F800
01F000
03E000
07C000
0F8000
1F0000
3E0000
7FFE00
7FFE00
FFFE00
FFFE00
ENDCHAR
STARTCHAR 017D
ENCODING 381
SWIDTH 488 0
DWIDTH 19 0
BBX 21 32 1 0
BITMAP
001060
0078F0
003FE0
001FC0
000F80
000600
000400
000000
03FFF8
03FFF8
03FFF8
07FFF0
0003F0
0007E0
0007C0
000F80
001F00
003E00
007C00
00FC00
01F800
01F000
03E000
07C000
0F8000
1F8000
1F0000
3E0000
7FFF80
7FFF80
FFFF00
FFFF00
ENDCHAR
STARTCHAR 017E
ENCODING 382
SWIDTH 488 0
DWIDTH 19 0
BBX 18 27 2 0
BITMAP
004080
00E3C0
00F7C0
007F80
003E00
001C00
001800
000000
000000
0FFFC0
0FFFC0
0FFFC0
0FFF80
001F00
003E00
007C00
00F800
01F000
03E000
07C000
0F8000
1F0000
3E0000
7FFE00
7FFE00
FFFE00
FFFE00
ENDCHAR
STARTCHAR 017F
ENCODING 383
SWIDTH 488 0
DWIDTH 19 0
BBX 24 34 -1 -7
BITMAP
0000FE
0003FF
0007FF
000FFF
000F82
001F00
001F00
001E00
003E00
003E00
003E00
003E00
003C00
007C00
007C00
007C00
007C00
007C00
00F800
00F800
00F800
00F800
00F800
01F000
01F000
01F000
01F000
03E000
03E000
7FE000
FFC000
FF8000
FF0000
380000
ENDCHAR
STARTCHAR 0180
ENCODING 384
SWIDTH 488 0
DWIDTH 19 0
BBX 18 28 2 -1
BITMAP
00E000
03E000
03E000
1FFE00
1FFE00
1FFE00
07C000
078000
0F8000
0FFF00
0FFF80
0FFF80
1FFF80
1F07C0
1F07C0
1E07C0
3E07C0
3E07C0
3E07C0
3E0F80
3C0F80
7C1F80
7C3F00
7FFE00
7FFE00
FFF800
7FF000
020000
ENDCHAR
STARTCHAR 0181
ENCODING 385
SWIDTH 488 0
DWIDTH 19 0
BBX 18 24 3 0
BITMAP
07FE00
1FFF80
3FFFC0
7DE7C0
79E3C0
73E3C0
F3C3C0
C3C3C0
03C7C0
07DF80
07FF00
07FE00
07FF00
0F8F00
0F0780
0F0780
0F0780
0F0780
1F0F80
1E1F00
1F7F00
1FFE00
3FFC00
3FF000
ENDCHAR
STARTCHAR 0182
ENCODING 386
SWIDTH 488 0
DWIDTH 19 0
BBX 19 24 1 0
BITMAP
03FFE0
03FFE0
07FFE0
07FFE0
07C000
078000
0F8000
0F8000
0FF000
0FFE00
1FFF80
1FFF80
1FFFC0
1E07C0
3E07C0
3E07C0
3E07C0
3E07C0
7C0FC0
7C1F80
7FFF00
7FFF00
7FFC00
FFF000
ENDCHAR
STARTCHAR 0183
ENCODING 387
SWIDTH 488 0
DWIDTH 19 0
BBX 19 28 2 -1
BITMAP
03FFE0
03FFE0
07FFE0
07FFE0
07C000
078000
0F8000
0F8000
0F9800
0FFE00
1FFF00
1FFF80
1FDF80
1E0F80
3E0780
3E07C0
3E0780
3E0780
7C0F80
7C0F80
7C0F80
7C1F00
F83F00
FFFE00
FFFC00
FFF800
FFE000
020000
ENDCHAR
STARTCHAR 0184
ENCODING 388
SWIDTH 488 0
DWIDTH 19 0
BBX 18 28 2 -1
BITMAP
006000
03E000
0FC000
1FC000
1FC000
0FC000
078000
0F8000
0F9800
0FFF00
0FFF80
1FFF80
1FDF80
1F07C0
1F07C0
3E07C0
3E07C0
3E07C0
3E07C0
7C0F80
7C0F80
7C1F80
7C3F00
7FFE00
FFFC00
FFF800
FFE000
020000
ENDCHAR
STARTCHAR 0185
ENCODING 389
SWIDTH 488 0
DWIDTH 19 0
BBX 18 24 2 0
BITMAP
00E000
07C000
1FC000
1FC000
0FC000
0F8000
078000
0F8000
0FF000
0FFE00
0FFF00
1FFF80
1F1F80
1F0FC0
1E07C0
3E07C0
3E0780
3E0F80
3C0F80
7C3F00
7FFF00
7FFE00
7FFC00
FFE000
ENDCHAR
STARTCHAR 0186
ENCODING 390
SWIDTH 488 0
DWIDTH 19 0
BBX 19 26 1 -1
BITMAP
007800
03FE00
07FF00
07FF80
07FFC0
0407C0
0007E0
0003E0
0003E0
0003E0
0003E0
0003E0
0003E0
0003E0
0003C0
0007C0
0007C0
000FC0
000F80
001F80
203F00
7FFE00
7FFC00
FFF800
7FF000
020000
ENDCHAR
STARTCHAR 0187
ENCODING 391
SWIDTH 488 0
DWIDTH 19 0
BBX 22 28 3 -1
BITMAP
00007C
0000FC
001DFC
00FFF8
03FFC0
07FFC0
0FFF80
1F8080
1F0000
3E0000
3E0000
7C0000
7C0000
7C0000
780000
F80000
F80000
F80000
F80000
F80000
F80000
F80000
FC0800
7FFC00
7FFC00
3FFC00
1FF800
010000
ENDCHAR
STARTCHAR 0188
ENCODING 392
SWIDTH 488 0
DWIDTH 19 0
BBX 20 23 3 -1
BITMAP
0001F0
0003F0
0007F0
00FFE0
03FF00
0FFE00
1FFE00
3FDC00
7E0000
7C0000
FC0000
F80000
F80000
F80000
F80000
F80000
F80000
FC0000
7FF000
7FF800
3FF800
1FF800
010000
ENDCHAR
STARTCHAR 0189
ENCODING 393
SWIDTH 488 0
DWIDTH 19 0
BBX 19 24 2 0
BITMAP
07FC00
07FF00
07FF80
07FFC0
0787C0
0F87C0
0F83C0
0F83E0
0F03E0
1F03E0
7FC3C0
7FC7C0
FFC7C0
FF87C0
3E07C0
3E0F80
3C0F80
7C1F80
7C3F00
7C7E00
7FFE00
FFFC00
FFF000
FFC000
ENDCHAR
STARTCHAR 018A
ENCODING 394
SWIDTH 488 0
DWIDTH 19 0
BBX 18 24 3 0
BITMAP
07FE00
1FFF00
3FFF80
7DE7C0
79E3C0
73E3C0
F3C3C0
C3C3C0
03C3C0
07C3C0
0783C0
0783C0
0783C0
0F87C0
0F8780
0F0780
0F0F80
0F0F00
1F1F00
1E3E00
1EFC00
1FFC00
3FF800
3FE000
ENDCHAR
STARTCHAR 018B
ENCODING 395
SWIDTH 488 0
DWIDTH 19 0
BBX 20 24 2 0
BITMAP
03FFF0
03FFF0
03FFF0
07FFF0
0001E0
0003E0
0003E0
0003E0
001FE0
03FFC0
0FFFC0
1FFFC0
3FFFC0
7E0F80
7C0F80
780F80
F80F80
F81F00
FC1F00
7C1F00
7FFF00
3FFE00
1FFE00
07FE00
ENDCHAR
STARTCHAR 018C
ENCODING 396
SWIDTH 488 0
DWIDTH 19 0
BBX 21 27 2 0
BITMAP
01FFF8
01FFF0
01FFF0
03FFF0
0001F0
0001E0
0003E0
0003E0
001BE0
01FFC0
07FFC0
0FFFC0
1FCFC0
3F0780
3E0F80
7C0F80
7C0F80
7C0F80
781F00
F81F00
F81F00
781F00
7C3F00
7FFF00
7FFF00
3FFF00
1FCF00
ENDCHAR
STARTCHAR 018D
ENCODING 397
SWIDTH 488 0
DWIDTH 19 0
BBX 19 25 1 -7
BITMAP
003C00
01FF80
07FFC0
0FFFC0
0FE7E0
1F83E0
1F03E0
3E03E0
3E03E0
3E03E0
3E07C0
3E07C0
3F0F80
1FBF00
1FFE00
0FFC00
07F000
01F800
00FC00
007C00
007C00
70FC00
7FF800
FFF800
7FE000
ENDCHAR
STARTCHAR 018E
ENCODING 398
SWIDTH 488 0
DWIDTH 19 0
BBX 21 24 1 0
BITMAP
03FFF8
03FFF8
03FFF0
03FFF0
0001F0
0001F0
0001E0
0003E0
0003E0
07FFE0
07FFC0
07FFC0
07FFC0
0007C0
000780
000F80
000F80
000F80
000F80
001F00
7FFF00
7FFF00
FFFF00
FFFE00
ENDCHAR
STARTCHAR 018F
ENCODING 399
SWIDTH 488 0
DWIDTH 19 0
BBX 19 26 2 -1
BITMAP
007000
07FE00
0FFF80
0FFFC0
07FFC0
0007C0
0003E0
0003E0
0003E0
0003E0
0003E0
0003E0
7FFFE0
7FFFE0
7FFFC0
7807C0
F807C0
F80780
780F80
781F80
783F00
7E7E00
3FFC00
3FF800
1FF000
010000
ENDCHAR
STARTCHAR 0190
ENCODING 400
SWIDTH 488 0
DWIDTH 19 0
BBX 19 26 3 -1
BITMAP
001C00
00FFE0
03FFE0
07FFE0
0FFFC0
0F8040
1F0000
1F0000
1F0000
0F0000
0FFE00
07FE00
0FFC00
1FFC00
3FC000
7C0000
F80000
F80000
F00000
F80000
F80200
FFFE00
7FFE00
7FFF00
1FFC00
010000
ENDCHAR
STARTCHAR 0191
ENCODING 401
SWIDTH 488 0
DWIDTH 19 0
BBX 26 31 -3 -7
BITMAP
001FFFC0
001FFF80
003FFF80
003FFF80
003E0000
003C0000
007C0000
007C0000
007C0000
00780000
00FFFC00
00FFFC00
00FFF800
00FFF800
01F00000
01F00000
01F00000
01F00000
01E00000
03E00000
03E00000
03E00000
03C00000
07C00000
07C00000
07C00000
7F800000
7F800000
FF000000
FE000000
20000000
ENDCHAR
STARTCHAR 0192
ENCODING 402
SWIDTH 488 0
DWIDTH 19 0
BBX 24 34 -1 -7
BITMAP
0000FE
0003FF
0007FE
000FFE
000F80
001F00
001F00
001E00
003E00
03FFFC
03FFF8
03FFF8
03FFF8
007C00
007C00
007C00
007C00
007C00
00F800
00F800
00F800
00F800
00F800
01F000
01F000
01F000
01F000
03E000
03E000
7FE000
FFC000
FF8000
FF0000
380000
ENDCHAR
STARTCHAR 0193
ENCODING 403
SWIDTH 488 0
DWIDTH 19 0
BBX 22 28 3 -1
BITMAP
00007C
0000FC
001DF8
00FFF8
03FFC0
07FF80
0FFF80
1F8000
1F0000
3E0000
3E0000
7C0000
7C0000
7C0000
F80F80
F80F80
F80F80
F81F00
F81F00
F81F00
F81F00
F81E00
FC3E00
7FFE00
7FFE00
3FFC00
1FFC00
010000
ENDCHAR
STARTCHAR 0194
ENCODING 404
SWIDTH 488 0
DWIDTH 19 0
BBX 20 30 4 -6
BITMAP
7C01F0
3C01E0
3C03E0
3C03C0
3C0780
3E0F80
3E0F00
1E1F00
1E3E00
1E3C00
1E7C00
0FF800
0FF000
0FE000
0FE000
0FC000
078000
0F8000
1F8000
1FC000
3FC000
7FC000
79C000
F1E000
F1E000
F1E000
FFC000
FFC000
7F8000
3F0000
ENDCHAR
STARTCHAR 0195
ENCODING 405
SWIDTH 488 0
DWIDTH 19 0
BBX 21 28 1 -1
BITMAP
01C000
038000
078000
078000
078000
070000
0F0000
0F0000
0F6000
0FF878
1FF878
1FF878
1E7870
1E38F0
3C78F0
3C78F0
3C78E0
3C71E0
38F1E0
78F1E0
78F1C0
78F3C0
70E3C0
F0F3C0
F0FF80
F0FF00
E07E00
001000
ENDCHAR
STARTCHAR 0196
ENCODING 406
SWIDTH 488 0
DWIDTH 19 0
BBX 15 25 6 -1
BITMAP
7FFE
FFFE
FFFE
FFFC
0F80
0F80
0F00
1F00
1F00
1F00
1F00
3E00
3E00
3E00
3E00
7C00
7C00
7C00
7C00
7C00
7FF0
7FF0
3FF0
1FF0
0200
ENDCHAR
STARTCHAR 0197
ENCODING 407
SWIDTH 488 0
DWIDTH 19 0
BBX 21 24 1 0
BITMAP
03FFF8
03FFF8
07FFF8
07FFF8
003E00
003E00
003E00
003C00
007C00
007C00
07FF80
07FF80
07FF80
00F800
00F800
00F000
01F000
01F000
01F000
01F000
7FFF00
7FFF00
7FFF00
FFFF00
ENDCHAR
STARTCHAR 0198
ENCODING 408
SWIDTH 488 0
DWIDTH 19 0
BBX 24 24 1 1
BITMAP
03E07E
03C0FF
07C1FE
07C3FC
07C7C0
078F80
0F9F00
0FBF00
0FBE00
0F7C00
1FF800
1FF000
1FF800
1EFC00
3E7C00
3E7E00
3E3E00
3E3F00
7C1F00
7C1F00
7C0F80
7C0F80
780F80
F807C0
ENDCHAR
STARTCHAR 0199
ENCODING 409
SWIDTH 488 0
DWIDTH 19 0
BBX 20 27 2 0
BITMAP
007E00
00FE00
01FC00
03FC00
03E000
07C000
07C000
07C000
078000
0F83F0
0F87C0
0F8FC0
0F1F80
1F3F00
1F7C00
1FF800
1FF000
3FF000
3FF000
3EF800
3CFC00
7C7C00
7C3E00
7C3E00
7C3F00
F81F00
F81F00
ENDCHAR
STARTCHAR 019A
ENCODING 410
SWIDTH 488 0
DWIDTH 19 0
BBX 15 27 4 0
BITMAP
1FF8
1FF8
3FF0
3FF0
01F0
01F0
01E0
03E0
03E0
03E0
03C0
FFFE
FFFE
FFFE
FFFE
0F80
0F80
0F80
0F80
1F00
1F00
1F00
1F00
1FFC
1FFC
0FFC
07FC
ENDCHAR
STARTCHAR 019B
ENCODING 411
SWIDTH 488 0
DWIDTH 19 0
BBX 19 27 6 0
BITMAP
03E000
07F000
07F820
07FFE0
007FE0
00FFC0
07FE00
07FE00
033E00
003E00
007E00
00FE00
00FF00
01FF00
03FF00
03DF00
07DF00
0F9F00
0F9F00
1F0F00
1F0F00
3E0F80
7E0F80
7C0F80
7C0F80
F80F80
F80F80
ENDCHAR
STARTCHAR 019C
ENCODING 412
SWIDTH 488 0
DWIDTH 19 0
BBX 22 24 1 0
BITMAP
07803C
07003C
0F003C
0F003C
0F0078
0E0078
1E0078
1E0078
1E0070
1E78F0
3C78F0
3C78F0
3C78E0
3C71E0
78F1E0
78F1E0
78F1C0
78E3C0
71E3C0
F1E3C0
FBF7C0
7FFF80
7FFF80
3F7F80
ENDCHAR
STARTCHAR 019D
ENCODING 413
SWIDTH 488 0
DWIDTH 19 0
BBX 27 31 -4 -7
BITMAP
001E03E0
001F03C0
003F03C0
003F03C0
003F07C0
003F8780
007F8780
007B8780
007B8F80
007BCF00
007BCF00
00F1CF00
00F1CF00
00F1DF00
00F1FE00
01F0FE00
01E0FE00
01E0FE00
01E0FC00
03E0FC00
03C07C00
03C07C00
03C07800
07C07800
07800000
07800000
7F800000
7F000000
FF000000
FC000000
20000000
ENDCHAR
STARTCHAR 019E
ENCODING 414
SWIDTH 488 0
DWIDTH 19 0
BBX 17 25 2 -6
BITMAP
007000
0FFE00
0FFF00
1FFF80
1FBF80
1F0F80
1E0F80
3E0F80
3E0F80
3E0F80
3E0F80
3C1F00
7C1F00
7C1F00
7C1F00
783E00
F83E00
F83E00
F83E00
003C00
007C00
007C00
007C00
007800
00F800
ENDCHAR
STARTCHAR 019F
ENCODING 415
SWIDTH 488 0
DWIDTH 19 0
BBX 18 26 3 -1
BITMAP
003800
01FE00
07FF00
0FFF80
0FFF80
1F07C0
3E07C0
3E07C0
7C07C0
7C07C0
7C07C0
FFFFC0
FFFFC0
FFFF80
FFFF80
F80F80
F00F80
F01F00
F01F00
F83E00
F87E00
FFFC00
7FF800
7FF000
1FE000
020000
ENDCHAR
STARTCHAR 01A0
ENCODING 416
SWIDTH 488 0
DWIDTH 19 0
BBX 20 29 3 -1
BITMAP
0000F0
0000F0
0000F0
0031F0
01FDE0
07FFC0
0FFFC0
1FFF80
1F0F80
3E0F80
3E0F80
7C0F80
7C0F80
780F80
F80F80
F80F80
F80F80
F80F00
F01F00
F01F00
F01F00
F03E00
F83E00
F87C00
FFF800
7FF800
7FF000
3FC000
060000
ENDCHAR
STARTCHAR 01A1
ENCODING 417
SWIDTH 488 0
DWIDTH 19 0
BBX 20 23 3 -1
BITMAP
0001F0
0001E0
0001E0
00F3E0
07FFC0
0FFFC0
1FFF80
3F7F00
7E1F00
7C1F00
F81F00
F81F00
F81F00
F01F00
F01E00
F03E00
F03E00
F87C00
FFF800
FFF800
7FE000
3FC000
040000
ENDCHAR
STARTCHAR 01A2
ENCODING 418
SWIDTH 488 0
DWIDTH 19 0
BBX 20 26 2 -1
BITMAP
004080
03F7E0
07FFE0
0FFFF0
0F7CF0
1E38F0
1E38F0
3C38F0
3C38E0
3838E0
7879E0
7879E0
7879C0
7071C0
7073C0
F0F3C0
F0F3C0
F0E380
F1E780
F1E780
F3C780
F3C700
FF8F00
7F0F00
7E0F00
080000
ENDCHAR
STARTCHAR 01A3
ENCODING 419
SWIDTH 488 0
DWIDTH 19 0
BBX 19 25 2 -6
BITMAP
01C300
07FFC0
0FFFE0
1FFFE0
3C71E0
3871E0
7871E0
7071C0
7071C0
F073C0
F0F3C0
F0F3C0
F0E380
F1E780
F1E780
F3C780
FF8700
7F8F00
7E0F00
000F00
000E00
001E00
001E00
001E00
001C00
ENDCHAR
STARTCHAR 01A4
ENCODING 420
SWIDTH 488 0
DWIDTH 19 0
BBX 18 24 4 0
BITMAP
0FFE00
3FFF00
7FFF80
FFCFC0
F3C7C0
E3C3C0
E7C3C0
C783C0
0787C0
078780
078F80
0F9F00
0FFF00
0FFE00
0FF800
1FE000
1E0000
1E0000
1E0000
3E0000
3C0000
3C0000
3C0000
7C0000
ENDCHAR
STARTCHAR 01A5
ENCODING 421
SWIDTH 488 0
DWIDTH 19 0
BBX 20 33 0 -6
BITMAP
001F00
007F00
00FF00
01FE00
01F000
01F000
03E000
03E000
03EC00
03FF80
07FFC0
07FFE0
07E7E0
07C1F0
0F81F0
0F81F0
0F81F0
0F81E0
1F03E0
1F03E0
1F07E0
1F07C0
1E1FC0
3FFF80
3FFF00
3FFE00
3FF800
7C0000
7C0000
7C0000
780000
F80000
F80000
ENDCHAR
STARTCHAR 01A6
ENCODING 422
SWIDTH 488 0
DWIDTH 19 0
BBX 20 31 1 -4
BITMAP
01E000
03E000
03E000
03FF80
03FFC0
07FFE0
07FFE0
07C3F0
0781F0
0781F0
0F81F0
0F81E0
0F83E0
0F07C0
1FFFC0
1FFF80
1FFE00
1FFC00
3E3C00
3E3E00
3E3E00
3C1F00
7C1F00
7C0F00
7C0F80
780F80
F80780
000780
0007C0
0007C0
0007C0
ENDCHAR
STARTCHAR 01A7
ENCODING 423
SWIDTH 488 0
DWIDTH 19 0
BBX 19 26 2 -1
BITMAP
003C00
03FF80
07FFC0
07FFE0
07CFE0
0003E0
0001E0
0003E0
0003E0
000FC0
003FC0
01FF80
07FE00
1FF800
3FE000
7F0000
7E0000
7C0000
F80000
F80000
7C0100
7FFF00
7FFF00
3FFF00
1FFE00
018000
ENDCHAR
STARTCHAR 01A8
ENCODING 424
SWIDTH 488 0
DWIDTH 19 0
BBX 16 20 3 -1
BITMAP
01F0
1FFE
1FFE
1FFF
181F
001F
001F
007F
03FE
0FFC
3FF0
7F80
FE00
F800
F800
FE7C
FFFC
7FFC
3FFC
0300
ENDCHAR
STARTCHAR 01A9
ENCODING 425
SWIDTH 488 0
DWIDTH 19 0
BBX 22 24 1 0
BITMAP
03FFFC
07FFFC
07FFFC
07FFF8
03E000
01E000
01F000
00F800
00F800
007C00
003C00
003E00
007E00
00FC00
01F800
03F000
07E000
0FC000
1F0000
3E0000
7FFF80
FFFF80
FFFF80
FFFF80
ENDCHAR
STARTCHAR 01AA
ENCODING 426
SWIDTH 488 0
DWIDTH 19 0
BBX 12 34 6 -7
BITMAP
0FC0
3FE0
7FF0
F9F0
F0F0
E0F0
E1F0
F3F0
FFF0
FFE0
7FE0
03E0
03E0
03C0
07C0
07C0
07C0
07C0
0F80
0F80
0F80
0F80
1F00
1F00
1F00
1F00
1E00
3E00
3F00
3FE0
1FE0
1FE0
0FE0
0180
ENDCHAR
STARTCHAR 01AB
ENCODING 427
SWIDTH 488 0
DWIDTH 19 0
BBX 17 31 4 -7
BITMAP
002000
03E000
03C000
07C000
07C000
07C000
FFFF80
FFFF80
FFFF00
FFFF00
0F8000
1F0000
1F0000
1F0000
1F0000
1E0000
3E0000
3E0000
3E0000
3E0000
3FFC00
3FFC00
1FFC00
0FFC00
003C00
007800
007800
07F800
0FF000
0FE000
020000
ENDCHAR
STARTCHAR 01AC
ENCODING 428
SWIDTH 488 0
DWIDTH 19 0
BBX 20 24 4 0
BITMAP
0FFFF0
3FFFE0
7FFFE0
FFFFE0
F0F800
F0F000
E1F000
C1F000
01F000
01E000
03E000
03E000
03E000
03C000
07C000
07C000
07C000
078000
0F8000
0F8000
0F8000
0F8000
1F0000
1F0000
ENDCHAR
STARTCHAR 01AD
ENCODING 429
SWIDTH 488 0
DWIDTH 19 0
BBX 19 27 4 0
BITMAP
001F80
007FE0
00FFC0
01FFC0
03F080
03E000
07C000
07C000
07C000
FFFF80
FFFF80
FFFF00
FFFF00
0F8000
1F0000
1F0000
1F0000
1F0000
1E0000
3E0000
3E0000
3E0000
3E0400
3FFC00
3FFC00
1FFC00
0FF800
ENDCHAR
STARTCHAR 01AE
ENCODING 430
SWIDTH 488 0
DWIDTH 19 0
BBX 18 31 5 -7
BITMAP
7FFFC0
7FFFC0
FFFFC0
FFFFC0
03E000
03E000
03E000
07C000
07C000
07C000
07C000
078000
0F8000
0F8000
0F8000
0F0000
1F0000
1F0000
1F0000
1E0000
3E0000
3E0000
3E0000
3C0000
7C0000
7C0000
7FC000
7FC000
3FC000
1F8000
020000
ENDCHAR
STARTCHAR 01AF
ENCODING 431
SWIDTH 488 0
DWIDTH 19 0
BBX 23 29 3 -1
BITMAP
00001E
00001E
00003C
00007C
0F07F8
1F07F0
1F07C0
1E0780
1E0F80
3E0F80
3E0F00
3C0F00
3C1F00
7C1F00
7C1E00
781E00
783E00
F83E00
F83E00
F03C00
F07C00
F07C00
F07800
F0F800
F9F800
FFF000
7FE000
3FC000
040000
ENDCHAR
STARTCHAR 01B0
ENCODING 432
SWIDTH 488 0
DWIDTH 19 0
BBX 21 22 2 0
BITMAP
000078
000078
000078
0000F8
1E0FF0
1E0FE0
3E0F00
3E1F00
3C1F00
3C1E00
7C1E00
7C3E00
783E00
783C00
F83C00
F87C00
F87C00
F87C00
FFFC00
7FFC00
7FFC00
3FBE00
ENDCHAR
STARTCHAR 01B1
ENCODING 433
SWIDTH 488 0
DWIDTH 19 0
BBX 22 25 2 -1
BITMAP
1FF3FC
1FE7F8
1FE7F8
1FE7F8
07C7C0
0783C0
0F03C0
1F03E0
1E03E0
3E03E0
3C03E0
7C03E0
7C03E0
7803C0
7803C0
F807C0
F807C0
F80780
F80F80
7C1F00
7FFF00
7FFE00
3FFC00
1FF000
010000
ENDCHAR
STARTCHAR 01B2
ENCODING 434
SWIDTH 488 0
DWIDTH 19 0
BBX 18 25 3 -1
BITMAP
0F1F00
1F1F80
1F3FC0
1F3FC0
1E07C0
3E07C0
3E07C0
3E07C0
3E07C0
7C07C0
7C07C0
7C07C0
7C0780
780F80
F80F80
F80F80
F81F00
F81F00
F03E00
F87C00
FFFC00
FFF800
7FF000
3FC000
040000
ENDCHAR
STARTCHAR 01B3
ENCODING 435
SWIDTH 488 0
DWIDTH 19 0
BBX 20 24 5 1
BITMAP
F807E0
F80FF0
781FE0
781FC0
783E00
783C00
7C7800
7CF800
3CF000
3DE000
3DE000
3FC000
1FC000
1F8000
1F0000
1F0000
1F0000
1E0000
3E0000
3E0000
3E0000
3C0000
7C0000
7C0000
ENDCHAR
STARTCHAR 01B4
ENCODING 436
SWIDTH 488 0
DWIDTH 19 0
BBX 23 26 -1 -7
BITMAP
000008
07C07E
07C0FE
03C1FE
03C1FC
03C1E0
03C3E0
03C3C0
03E7C0
03E780
03EF80
03EF00
03EF00
01FE00
01FE00
01FE00
01FC00
01FC00
00F800
01F000
03F000
7FE000
FFC000
FF8000
FE0000
100000
ENDCHAR
STARTCHAR 01B5
ENCODING 437
SWIDTH 488 0
DWIDTH 19 0
BBX 21 24 1 0
BITMAP
03FFF8
03FFF8
03FFF8
07FFF0
0003F0
0003E0
0007C0
000F80
001F00
003E00
0FFFE0
1FFFE0
1FFFC0
1FFFC0
03E000
07C000
0F8000
1F0000
1F0000
3E0000
7FFF80
7FFF80
FFFF00
FFFF00
ENDCHAR
STARTCHAR 01B6
ENCODING 438
SWIDTH 488 0
DWIDTH 19 0
BBX 18 18 2 0
BITMAP
0FFFC0
0FFFC0
0FFFC0
0FFF80
001F00
003E00
007C00
1FFF00
1FFF00
1FFF00
07C000
0F8000
1F0000
3E0000
7FFE00
7FFE00
FFFE00
FFFE00
ENDCHAR
STARTCHAR 01B7
ENCODING 439
SWIDTH 488 0
DWIDTH 19 0
BBX 21 25 1 -1
BITMAP
03FFF8
03FFF8
03FFF8
03FFF0
0003E0
0007C0
000F80
001F00
003E00
007C00
00FE00
00FF00
01FF80
000FC0
0007C0
0007C0
0007C0
0007C0
000FC0
301F80
7FFF80
7FFF00
FFFE00
3FF800
07C000
ENDCHAR
STARTCHAR 01B8
ENCODING 440
SWIDTH 488 0
DWIDTH 19 0
BBX 20 25 3 -1
BITMAP
07FFF0
07FFE0
0FFFE0
07FFE0
03C000
03E000
01E000
01F000
00F800
00F800
03FC00
0FF800
1FF800
3F0000
7C0000
F80000
F80000
F80000
F80000
FC0200
7FFE00
7FFE00
3FFE00
1FFE00
01E000
ENDCHAR
STARTCHAR 01B9
ENCODING 441
SWIDTH 488 0
DWIDTH 19 0
BBX 19 24 2 -6
BITMAP
07FFE0
07FFE0
07FFE0
07FFC0
03C000
03E000
01E000
01F000
00F800
00F800
03F800
0FF800
3FF800
7F0000
7C0000
F80000
F80000
F80000
F80000
FC0200
7FFE00
7FFE00
3FFE00
0FFC00
ENDCHAR
STARTCHAR 01BA
ENCODING 442
SWIDTH 488 0
DWIDTH 19 0
BBX 20 25 0 -7
BITMAP
03FFF0
03FFF0
03FFF0
07FFE0
000FC0
001F00
003E00
007C00
00F800
01FF00
01FF80
000F80
000F80
000F80
000F80
001F80
01FF00
1FFE00
3FFC00
7FE000
FE0000
F80000
F00000
F00000
800000
ENDCHAR
STARTCHAR 01BB
ENCODING 443
SWIDTH 488 0
DWIDTH 19 0
BBX 19 25 2 0
BITMAP
001C00
01FF00
07FFC0
07FFC0
07FFE0
0307E0
0003E0
0003C0
0007C0
0007C0
000F80
003F00
0FFFC0
1FFFC0
1FFFC0
03F000
0FC000
1F8000
1F0000
3E0000
7C0000
7FFF00
FFFF00
FFFF00
FFFE00
ENDCHAR
STARTCHAR 01BC
ENCODING 444
SWIDTH 488 0
DWIDTH 19 0
BBX 20 25 2 -1
BITMAP
0FFFF0
0FFFF0
0FFFF0
0FFFE0
03E000
03E000
03C000
07C000
07C000
07F800
0FFE00
0FFF00
007F00
001F80
000F80
000F80
000F80
000F80
000F80
401F80
7FFF00
7FFE00
FFFC00
7FF800
0B8000
ENDCHAR
STARTCHAR 01BD
ENCODING 445
SWIDTH 488 0
DWIDTH 19 0
BBX 18 19 2 -1
BITMAP
0FFFC0
0FFFC0
0FFF80
1FFF80
07C000
078000
07C000
0FFC00
0FFE00
07FF00
003F00
001F00
001F00
001F00
3FFE00
7FFE00
7FFC00
FFF000
070000
ENDCHAR
STARTCHAR 01BE
ENCODING 446
SWIDTH 488 0
DWIDTH 19 0
BBX 17 25 3 -1
BITMAP
001000
01F000
01E000
03E000
03E000
03E000
3FFF80
3FFF80
3FFF80
7FFF80
07C000
078000
0FC000
07F000
07FC00
03FE00
00FE00
003F00
001F00
603F00
7FFE00
7FFE00
FFFC00
7FF000
030000
ENDCHAR
STARTCHAR 01BF
ENCODING 447
SWIDTH 488 0
DWIDTH 19 0
BBX 20 25 0 -6
BITMAP
001C00
03FF80
07FFC0
07FFE0
07FFE0
07C3F0
0FC3F0
0F83F0
0F83F0
0F83E0
1F83E0
1F07E0
1F07C0
1F0FC0
3F3F80
3E7F00
3FFE00
3FFC00
7FF000
7FC000
7E0000
7C0000
7C0000
F80000
F80000
ENDCHAR
STARTCHAR 01C0
ENCODING 448
SWIDTH 488 0
DWIDTH 19 0
BBX 13 33 5 -6
BITMAP
00F8
00F0
01F0
01F0
01F0
01E0
03E0
03E0
03E0
03C0
07C0
07C0
07C0
0780
0F80
0F80
0F80
0F80
1F00
1F00
1F00
1F00
3E00
3E00
3E00
3E00
3C00
7C00
7C00
7C00
7800
F800
F800
ENDCHAR
STARTCHAR 01C1
ENCODING 449
SWIDTH 488 0
DWIDTH 19 0
BBX 21 33 1 -6
BITMAP
00F8F8
00F8F0
00F1F0
01F1F0
01F1F0
01F1E0
01F3E0
03E3E0
03E3E0
03E3C0
03E7C0
07C7C0
07C7C0
07C780
07CF80
078F80
0F8F80
0F8F80
0F9F00
0F1F00
1F1F00
1F1F00
1F1E00
1E3E00
3E3E00
3E3E00
3E3C00
3C7C00
7C7C00
7C7C00
7C7800
7CF800
F8F800
ENDCHAR
STARTCHAR 01C2
ENCODING 450
SWIDTH 488 0
DWIDTH 19 0
BBX 19 33 2 -6
BITMAP
001F00
001E00
003E00
003E00
003E00
003E00
007C00
007C00
007C00
007C00
007800
3FFFE0
3FFFE0
7FFFE0
7FFFE0
01F000
01F000
01F000
FFFFC0
FFFFC0
FFFF80
FFFF80
03C000
07C000
07C000
07C000
07C000
0F8000
0F8000
0F8000
0F8000
1F0000
1F0000
ENDCHAR
STARTCHAR 01C3
ENCODING 451
SWIDTH 488 0
DWIDTH 19 0
BBX 11 24 6 0
BITMAP
03E0
07E0
07E0
07C0
07C0
0FC0
0FC0
0F80
0F80
0F80
1F80
1F00
1F00
1F00
1E00
0000
0000
0000
3C00
7E00
7E00
FE00
7C00
7C00
ENDCHAR
STARTCHAR 01C4
ENCODING 452
SWIDTH 488 0
DWIDTH 19 0
BBX 26 31 0 1
BITMAP
000030C0
00003BC0
00001F80
00000F00
00000C00
00000000
00000000
03F87F00
03F87F00
07FC7F00
07BCFE00
071C0E00
071C1C00
0F1C1C00
0F1C3800
0E1C3800
0E1C7000
1E1C7000
1E1CE000
1C3CE000
1C39C000
1C39C000
3C7B8000
38738000
38F70000
38E70000
79EE0000
7FCFE000
7F9FE000
7F1FE000
FE1FE000
ENDCHAR
STARTCHAR 01C5
ENCODING 453
SWIDTH 488 0
DWIDTH 19 0
BBX 24 26 0 0
BITMAP
000021
000063
03F87F
03F83E
07FC18
07BC00
071C00
071C00
0F1CFE
0F1CFE
0E1DFE
0E1C1C
1E1C3C
1E1C78
1C3C70
1C38F0
1C38E0
3C79E0
3871C0
38F380
38E380
79E700
7FCFF0
7F8FF0
7F0FE0
FE0FE0
ENDCHAR
STARTCHAR 01C6
ENCODING 454
SWIDTH 488 0
DWIDTH 19 0
BBX 24 28 1 -1
BITMAP
000600
001E00
001CE7
001C7F
003C3C
003C38
003800
003800
013800
07F9FC
0FF1FC
1FF3FC
3CF038
3CF078
38E0F0
78E0E0
70E1E0
71E1C0
F1E3C0
F1C380
F1C700
E3C700
E3CE00
F39FE0
FF9FE0
7F9FC0
3F9FC0
080000
ENDCHAR
STARTCHAR 01C7
ENCODING 455
SWIDTH 488 0
DWIDTH 19 0
BBX 24 24 0 0
BITMAP
07800F
07800E
07000E
07001E
07001E
0F001C
0E001C
0E003C
0E003C
1E0038
1C0038
1C0078
1C0078
3C0070
3C0070
380070
3800F0
7800E0
7800E0
7001E0
7003E0
FFDFC0
FF9F80
FF9F00
ENDCHAR
STARTCHAR 01C8
ENCODING 456
SWIDTH 488 0
DWIDTH 19 0
BBX 22 32 1 -6
BITMAP
000018
00003C
07807C
07007C
070078
0F0000
0F0000
0E0000
0E0070
1E00F0
1E00F0
1C00E0
1C00E0
3C01E0
3C01E0
3801C0
3801C0
3803C0
7803C0
700380
700380
700780
F00780
FFC700
FFC700
FFCF00
000F00
000E00
001E00
03FC00
03FC00
03F800
ENDCHAR
STARTCHAR 01C9
ENCODING 457
SWIDTH 488 0
DWIDTH 19 0
BBX 21 33 3 -6
BITMAP
038000
078070
0700F0
0701F8
0F01F0
0F01F0
0E0040
0E0000
1E0000
1E01C0
1C01C0
1C01C0
1C03C0
3C0380
380380
380380
380780
780700
780700
700700
700F00
F00F00
F00E00
F80E00
FE1E00
7E1E00
3C1C00
001C00
003C00
007800
07F800
0FF000
0FE000
ENDCHAR
STARTCHAR 01CA
ENCODING 458
SWIDTH 488 0
DWIDTH 19 0
BBX 24 25 0 -1
BITMAP
078E0F
078E0E
078E0E
079E1E
079E1E
0F9C1C
0F9C1C
0FBC3C
0FBC3C
1FB838
1FB838
1DF878
1DF878
3DF070
3DF070
39F070
39F0F0
79E0E0
79E0E0
71E1E0
71E3E0
F1CFC0
F1CF80
E1DF00
001000
ENDCHAR
STARTCHAR 01CB
ENCODING 459
SWIDTH 488 0
DWIDTH 19 0
BBX 23 32 0 -6
BITMAP
00000C
00001E
038F3E
038F3E
078E3C
078E08
079E00
079E00
0F9C38
0F9C78
0FBC78
0FBC70
1FB870
1FB8F0
1DB8F0
1DF8E0
3DF0E0
3DF1E0
39F1E0
39F1C0
39F1C0
79E1C0
71E3C0
71E380
71E380
F1C380
000780
000700
000F00
01FE00
01FE00
01FC00
ENDCHAR
STARTCHAR 01CC
ENCODING 460
SWIDTH 488 0
DWIDTH 19 0
BBX 24 32 0 -6
BITMAP
000006
00001F
00001F
00001F
00001E
000008
000000
006000
0FFC3C
0FFC3C
0FFC38
0E1E38
1E1E78
1E1C78
1C1C70
1C1C70
3C3CF0
3C38F0
3838E0
3838E0
7878E0
7879E0
7071C0
7071C0
70F1C0
F0F3C0
000380
000380
008780
00FF00
00FE00
01FC00
ENDCHAR
STARTCHAR 01CD
ENCODING 461
SWIDTH 488 0
DWIDTH 19 0
BBX 21 32 0 0
BITMAP
000830
003C78
001FF0
000FE0
0007C0
000300
000000
000000
000F80
001F80
001F80
003FC0
007FC0
007BC0
00FBC0
00F3C0
01F3C0
01E3C0
03E3C0
03C3C0
07C3C0
0783C0
0F83C0
0FFFC0
1FFFC0
1FFFC0
3E03C0
3E03C0
7C03E0
7C03E0
F803E0
F803E0
ENDCHAR
STARTCHAR 01CE
ENCODING 462
SWIDTH 488 0
DWIDTH 19 0
BBX 19 27 2 0
BITMAP
002040
0071C0
007BE0
003F80
003F00
001E00
000C00
000000
003C00
01FFC0
07FFC0
0FFFC0
1FCFC0
3F0780
3E0F80
7C0F80
7C0F80
7C0F80
781F00
F81F00
F81F00
781F00
7C3F00
7FFF00
7FFF00
3FFF00
1FCF00
ENDCHAR
STARTCHAR 01CF
ENCODING 463
SWIDTH 488 0
DWIDTH 19 0
BBX 21 32 1 0
BITMAP
001860
003CF0
003FE0
001FC0
000F80
000700
000000
000000
03FFF8
03FFF8
07FFF8
07FFF8
003E00
003E00
003E00
003C00
007C00
007C00
007C00
007800
00F800
00F800
00F800
00F000
01F000
01F000
01F000
01F000
7FFF00
7FFF00
7FFF00
FFFF00
ENDCHAR
STARTCHAR 01D0
ENCODING 464
SWIDTH 488 0
DWIDTH 19 0
BBX 14 27 4 0
BITMAP
0200
071C
07BC
03F8
03F0
01E0
0080
0000
0000
7FE0
7FE0
7FC0
FFC0
07C0
07C0
07C0
0F80
0F80
0F80
0F80
0F00
1F00
1F80
1FFC
0FFC
0FFC
07FC
ENDCHAR
STARTCHAR 01D1
ENCODING 465
SWIDTH 488 0
DWIDTH 19 0
BBX 18 33 3 -1
BITMAP
0060C0
00F3C0
007FC0
003F00
003E00
001C00
000800
003800
01FE00
07FF00
0FFF80
1FFF80
1F07C0
3E07C0
3E07C0
7C07C0
7C07C0
7C07C0
F807C0
F807C0
F80780
F80F80
F80F80
F00F80
F01F00
F01F00
F83E00
F87E00
FFFC00
7FF800
7FF000
1FE000
020000
ENDCHAR
STARTCHAR 01D2
ENCODING 466
SWIDTH 488 0
DWIDTH 19 0
BBX 17 28 3 -1
BITMAP
008100
01C780
01EF80
00FF00
007C00
003800
003000
000000
00F000
07FC00
0FFE00
1FFF00
3F3F00
7E1F80
7C0F80
F80F80
F80F80
F80F00
F00F00
F01F00
F01F00
F83E00
F87E00
FFFC00
FFF800
7FF000
3FE000
040000
ENDCHAR
STARTCHAR 01D3
ENCODING 467
SWIDTH 488 0
DWIDTH 19 0
BBX 19 33 3 -1
BITMAP
006180
00F3C0
00FF80
007F00
003E00
001C00
000000
000000
0F01E0
1F03E0
1F03E0
1F03E0
1E03C0
3E07C0
3E07C0
3E07C0
3C0780
7C0F80
7C0F80
7C0F80
780F00
F81F00
F81F00
F81F00
F81E00
F03E00
F03E00
F87C00
FFFC00
FFF800
7FF000
3FE000
060000
ENDCHAR
STARTCHAR 01D4
ENCODING 468
SWIDTH 488 0
DWIDTH 19 0
BBX 17 27 3 0
BITMAP
008000
01C700
01EF80
00FE00
00FC00
007800
002000
000000
000000
3E0F80
3E0F80
3E0F80
3E0F80
3C1F00
7C1F00
7C1F00
7C1F00
781E00
F83E00
F83E00
F83E00
F83E00
F87C00
FFFE00
FFFE00
7FFE00
3F9E00
ENDCHAR
STARTCHAR 01D5
ENCODING 469
SWIDTH 488 0
DWIDTH 19 0
BBX 19 33 3 -1
BITMAP
007FC0
007FC0
000000
004100
01E380
01E7C0
01E780
00C300
000000
1F03E0
1F03E0
1F03E0
1E03C0
3E07C0
3E07C0
3E07C0
3C0780
7C0F80
7C0F80
7C0F80
780F00
F81F00
F81F00
F81F00
F81E00
F03E00
F03E00
F87C00
FFFC00
FFF800
7FF000
3FE000
060000
ENDCHAR
STARTCHAR 01D6
ENCODING 470
SWIDTH 488 0
DWIDTH 19 0
BBX 17 28 3 0
BITMAP
01FF00
01FF00
000000
018600
03CF00
03CF00
038F00
010600
000000
000000
3E0F80
3E0F80
3E0F80
3E0F80
3C1F00
7C1F00
7C1F00
7C1F00
781E00
F83E00
F83E00
F83E00
F83E00
F87C00
FFFE00
FFFE00
7FFE00
3F9E00
ENDCHAR
STARTCHAR 01D7
ENCODING 471
SWIDTH 488 0
DWIDTH 19 0
BBX 19 33 3 -1
BITMAP
000C00
000E00
001E00
039DE0
07D9E0
0781E0
0381C0
000000
000000
1F03E0
1F03E0
1F03E0
1E03C0
3E07C0
3E07C0
3E07C0
3C0780
7C0F80
7C0F80
7C0F80
780F00
F81F00
F81F00
F81F00
F81E00
F03E00
F03E00
F87C00
FFFC00
FFF800
7FF000
3FE000
060000
ENDCHAR
STARTCHAR 01D8
ENCODING 472
SWIDTH 488 0
DWIDTH 19 0
BBX 18 31 3 0
BITMAP
000400
000E00
000F00
001E00
003C00
003800
033980
0783C0
0783C0
0783C0
020000
000000
000000
3E0F80
3E0F80
3E0F80
3E0F80
3C1F00
7C1F00
7C1F00
7C1F00
781E00
F83E00
F83E00
F83E00
F83E00
F87C00
FFFE00
FFFE00
7FFE00
3F9E00
ENDCHAR
STARTCHAR 01D9
ENCODING 473
SWIDTH 488 0
DWIDTH 19 0
BBX 19 33 3 -1
BITMAP
003200
003F00
003E00
03DDE0
03C1E0
03C1E0
0381C0
000000
000000
1F03E0
1F03E0
1F03E0
1E03C0
3E07C0
3E07C0
3E07C0
3C0780
7C0F80
7C0F80
7C0F80
780F00
F81F00
F81F00
F81F00
F81E00
F03E00
F03E00
F87C00
FFFC00
FFF800
7FF000
3FE000
060000
ENDCHAR
STARTCHAR 01DA
ENCODING 474
SWIDTH 488 0
DWIDTH 19 0
BBX 18 30 3 0
BITMAP
000100
00E700
00FF00
00FE00
007C00
033980
0783C0
0783C0
0783C0
020000
000000
000000
3E0F80
3E0F80
3E0F80
3E0F80
3C1F00
7C1F00
7C1F00
7C1F00
781E00
F83E00
F83E00
F83E00
F83E00
F87C00
FFFE00
FFFE00
7FFE00
3F9E00
ENDCHAR
STARTCHAR 01DB
ENCODING 475
SWIDTH 488 0
DWIDTH 19 0
BBX 19 33 3 -1
BITMAP
001000
007800
003C00
03DDE0
03C9E0
03C1E0
0381C0
000000
000000
1F03E0
1F03E0
1F03E0
1E03C0
3E07C0
3E07C0
3E07C0
3C0780
7C0F80
7C0F80
7C0F80
780F00
F81F00
F81F00
F81F00
F81E00
F03E00
F03E00
F87C00
FFFC00
FFF800
7FF000
3FE000
060000
ENDCHAR
STARTCHAR 01DC
ENCODING 476
SWIDTH 488 0
DWIDTH 19 0
BBX 17 30 3 1
BITMAP
00E000
01E000
00F000
007000
007000
063380
0F2780
0F0780
0F0780
000000
000000
000000
3E0F80
3E0F80
3E0F80
3E0F80
3C1F00
7C1F00
7C1F00
7C1F00
781E00
F83E00
F83E00
F83E00
F83E00
F87C00
FFFE00
FFFE00
7FFE00
3F9E00
ENDCHAR
STARTCHAR 01DD
ENCODING 477
SWIDTH 488 0
DWIDTH 19 0
BBX 17 19 2 0
BITMAP
01F000
1FFC00
1FFF00
1FFF00
183F80
000F80
000780
003F80
07FF80
1FFF80
7FFF80
7C0F80
F80F80
F81F00
F83F00
FFFE00
FFFC00
7FF800
3FE000
ENDCHAR
STARTCHAR 01DE
ENCODING 478
SWIDTH 488 0
DWIDTH 19 0
BBX 21 32 0 0
BITMAP
000FF8
001FF0
000000
001020
003CF0
003CF0
003CF0
003860
000000
000F80
001F80
003F80
003F80
007F80
007FC0
00FFC0
00F3C0
01F3C0
01E3C0
03E3C0
07C3C0
07C3C0
0F83C0
0FFFC0
1FFFC0
1FFFC0
3FFFC0
3E03C0
7C03E0
7C03E0
F803E0
F803E0
ENDCHAR
STARTCHAR 01DF
ENCODING 479
SWIDTH 488 0
DWIDTH 19 0
BBX 19 28 2 0
BITMAP
007FE0
007FC0
000000
006180
00F3C0
00F3C0
00E3C0
004180
000000
003C00
01FFC0
07FFC0
0FFFC0
1FCFC0
3F0780
3E0F80
7C0F80
7C0F80
7C0F80
781F00
F81F00
F81F00
781F00
7C3F00
7FFF00
7FFF00
3FFF00
1FCF00
ENDCHAR
STARTCHAR 01E0
ENCODING 480
SWIDTH 488 0
DWIDTH 19 0
BBX 21 32 0 0
BITMAP
000FF8
001FF0
000000
000000
000780
000780
000780
000300
000000
000F80
001F80
003F80
003F80
007F80
007FC0
00FFC0
00F3C0
01F3C0
01E3C0
03E3C0
07C3C0
07C3C0
0F83C0
0FFFC0
1FFFC0
1FFFC0
3FFFC0
3E03C0
7C03E0
7C03E0
F803E0
F803E0
ENDCHAR
STARTCHAR 01E1
ENCODING 481
SWIDTH 488 0
DWIDTH 19 0
BBX 19 28 2 0
BITMAP
003FE0
007FC0
000000
000C00
001E00
001E00
001E00
000800
000000
003C00
01FFC0
07FFC0
0FFFC0
1FCFC0
3F0780
3E0F80
7C0F80
7C0F80
7C0F80
781F00
F81F00
F81F00
781F00
7C3F00
7FFF00
7FFF00
3FFF00
1FCF00
ENDCHAR
STARTCHAR 01E2
ENCODING 482
SWIDTH 488 0
DWIDTH 19 0
BBX 25 31 0 0
BITMAP
0003FF80
0003FF80
0003FF80
0007FF00
00000000
00000000
00000000
000FFE00
001FFE00
001FFE00
003FFE00
003BC000
007BC000
00F7C000
00F78000
01E78000
01E7F000
03CFF000
03CFF000
078FF000
078F0000
0F1F0000
0FFE0000
1FFE0000
1FFE0000
3E1E0000
3C3C0000
7C3FE000
783FE000
F83FE000
F87FC000
ENDCHAR
STARTCHAR 01E3
ENCODING 483
SWIDTH 488 0
DWIDTH 19 0
BBX 20 26 1 -1
BITMAP
00FFF0
00FFE0
00FFE0
000000
000000
000000
0701C0
1FC7E0
1FEFF0
1FEFF0
10FC70
00F870
0078F0
01F8F0
0FF1E0
1FFFC0
3FFF80
78FF00
70F000
F1F000
F1F000
F3F880
FFFF80
7F3FC0
7E1F80
100400
ENDCHAR
STARTCHAR 01E4
ENCODING 484
SWIDTH 488 0
DWIDTH 19 0
BBX 18 26 3 -1
BITMAP
000C00
00FFC0
03FFC0
07FFC0
0FFF80
1F8080
1F0000
3E0000
3E0000
7C0000
7C0000
7C0000
F80F80
F80F00
F87FC0
F8FFC0
F8FF80
F8FF80
F83E00
F83E00
FC3E00
7FFC00
7FFC00
3FFC00
1FF800
030000
ENDCHAR
STARTCHAR 01E5
ENCODING 485
SWIDTH 488 0
DWIDTH 19 0
BBX 21 26 0 -7
BITMAP
000F00
007FF0
01FFF0
03FFF0
07F1E0
0FC3E0
0F83E0
0F1FF8
1F1FF8
1F1FF8
1F07C0
1F07C0
1F0780
1F0F80
1FFF80
0FFF80
07FF00
01DF00
001F00
001F00
003E00
7FFE00
7FFC00
FFF800
7FE000
020000
ENDCHAR
STARTCHAR 01E6
ENCODING 486
SWIDTH 488 0
DWIDTH 19 0
BBX 19 33 3 -1
BITMAP
003060
0079E0
003FE0
001F80
001F00
000E00
000400
000E00
00FFC0
01FFE0
07FFE0
0FFFC0
0FC040
1F0000
3F0000
3E0000
7C0000
7C0000
7C0000
F80F80
F80F80
F80F80
F81F00
F81F00
F81F00
F81F00
F81E00
FC3E00
7FFE00
7FFE00
3FFC00
1FFC00
010000
ENDCHAR
STARTCHAR 01E7
ENCODING 487
SWIDTH 488 0
DWIDTH 19 0
BBX 22 34 0 -7
BITMAP
000408
000E38
000F7C
0007F0
0007E0
0003C0
000180
000000
000F00
007FF8
01FFF0
03FFF0
07F1F0
07C1F0
0F81F0
0F03E0
1F03E0
1F03E0
1F03E0
1F03C0
1F07C0
1F8FC0
1FFFC0
0FFF80
07FF80
01EF80
000F80
001F00
003F00
7FFE00
7FFE00
FFFC00
7FF000
030000
ENDCHAR
STARTCHAR 01E8
ENCODING 488
SWIDTH 488 0
DWIDTH 19 0
BBX 22 32 1 0
BITMAP
001060
0078F0
003FE0
001FC0
000F80
000600
000400
000000
03E07C
03C0F8
07C1F0
07C3F0
07C7E0
0787C0
0F8F80
0F9F00
0FBE00
0F7C00
1FF800
1FF000
1FF800
1FFC00
3E7C00
3E7E00
3E3E00
3E3F00
3C1F00
7C1F00
7C0F80
7C0F80
780F80
F807C0
ENDCHAR
STARTCHAR 01E9
ENCODING 489
SWIDTH 488 0
DWIDTH 19 0
BBX 20 32 2 0
BITMAP
00C300
01EF00
00FE00
007C00
003800
000000
000000
002000
03E000
07C000
07C000
07C000
07C000
078000
0F83F0
0F87C0
0F8FC0
0F1F80
1F3F00
1F7C00
1FF800
1FF000
3FF000
3FF000
3EF800
3CFC00
7C7C00
7C3E00
7C3E00
7C3F00
F81F00
F81F00
ENDCHAR
STARTCHAR 01EA
ENCODING 490
SWIDTH 488 0
DWIDTH 19 0
BBX 18 32 3 -7
BITMAP
003800
01FE00
07FF00
0FFF80
1FFF80
1F07C0
3E07C0
3E07C0
7C07C0
7C07C0
7C07C0
F807C0
F807C0
F80780
F80F80
F80F80
F00F80
F01F00
F01F00
F83E00
F87E00
FFFC00
7FF800
7FF000
1FE000
0F8000
1E0000
3E0000
3C0000
7F8000
3F8000
0E0000
ENDCHAR
STARTCHAR 01EB
ENCODING 491
SWIDTH 488 0
DWIDTH 19 0
BBX 17 26 3 -7
BITMAP
00F000
07FC00
0FFE00
1FFF00
3F3F00
7E1F80
7C0F80
F80F80
F80F80
F80F00
F00F00
F01F00
F01F00
F83E00
F87E00
FFFC00
FFF800
7FF000
3FE000
078000
1F0000
3E0000
3E0000
3F8000
3F8000
0E0000
ENDCHAR
STARTCHAR 01EC
ENCODING 492
SWIDTH 488 0
DWIDTH 19 0
BBX 19 38 3 -7
BITMAP
00FFE0
01FFE0
01FFC0
01FFC0
000000
000000
003800
01FE00
07FF00
0FFF80
1FFF80
1F07C0
3E07C0
3E07C0
7C07C0
7C07C0
7C07C0
F807C0
F807C0
F80780
F80F80
F80F80
F00F80
F01F00
F01F00
F83E00
F87E00
FFFC00
7FF800
7FF000
1FE000
0F8000
1E0000
3E0000
3C0000
7F8000
3F8000
0E0000
ENDCHAR
STARTCHAR 01ED
ENCODING 493
SWIDTH 488 0
DWIDTH 19 0
BBX 18 32 3 -7
BITMAP
01FFC0
03FFC0
03FF80
000000
000000
000000
00F000
07FC00
0FFE00
1FFF00
3F3F00
7E1F80
7C0F80
F80F80
F80F80
F80F00
F00F00
F01F00
F01F00
F83E00
F87E00
FFFC00
FFF800
7FF000
3FE000
078000
1F0000
3E0000
3E0000
3F8000
3F8000
0E0000
ENDCHAR
STARTCHAR 01EE
ENCODING 494
SWIDTH 488 0
DWIDTH 19 0
BBX 21 33 1 -1
BITMAP
001860
003CF0
003FE0
001FC0
000F80
000700
000000
000000
03FFF8
03FFF8
03FFF8
03FFF0
0003E0
0007C0
000F80
001F00
003E00
007C00
00FE00
00FF00
01FF80
000FC0
0007C0
0007C0
0007C0
0007C0
000FC0
301F80
7FFF80
7FFF00
FFFE00
3FF800
07C000
ENDCHAR
STARTCHAR 01EF
ENCODING 495
SWIDTH 488 0
DWIDTH 19 0
BBX 20 33 0 -6
BITMAP
001020
0038F0
003DF0
001FE0
000F80
000700
000600
000000
000000
03FFF0
07FFF0
07FFE0
07FFE0
0007C0
000F80
001F00
003E00
007C00
00F000
01FC00
01FE00
03FF00
001F00
000F80
000F80
000F80
000F80
001F00
403F00
7FFE00
7FFE00
FFFC00
7FF000
ENDCHAR
STARTCHAR 01F0
ENCODING 496
SWIDTH 488 0
DWIDTH 19 0
BBX 19 34 0 -7
BITMAP
001040
0038E0
003DE0
003FC0
001F80
000F00
000400
000000
000000
03FFC0
03FFC0
03FFC0
07FFC0
000F80
000F80
000F80
000F80
000F00
001F00
001F00
001F00
001E00
003E00
003E00
003E00
003C00
007C00
007C00
40FC00
7FF800
FFF800
FFF000
7FE000
060000
ENDCHAR
STARTCHAR 01F1
ENCODING 497
SWIDTH 488 0
DWIDTH 19 0
BBX 24 24 0 0
BITMAP
03F87F
03F87F
07FC7F
07BCFE
071C0E
071C1C
0F1C1C
0F1C38
0E1C38
0E1C70
1E1C70
1E1CE0
1C3CE0
1C39C0
1C39C0
3C7B80
387380
38F700
38E700
79EE00
7FCFE0
7F9FE0
7F1FE0
FE1FE0
ENDCHAR
STARTCHAR 01F2
ENCODING 498
SWIDTH 488 0
DWIDTH 19 0
BBX 23 24 0 0
BITMAP
03F800
03F800
07FC00
07BC00
071C00
071C00
0F1CFE
0F1CFE
0E1DFE
0E1C1C
1E1C3C
1E1C78
1C3C70
1C38F0
1C38E0
3C79E0
3871C0
38F380
38E380
79E700
7FCFF0
7F8FF0
7F0FE0
FE0FE0
ENDCHAR
STARTCHAR 01F3
ENCODING 499
SWIDTH 488 0
DWIDTH 19 0
BBX 22 28 1 -1
BITMAP
000600
001E00
001C00
001C00
003C00
003C00
003800
003800
013800
07F9FC
0FF1FC
1FF3FC
3CF038
3CF078
38E0F0
78E0E0
70E1E0
71E1C0
F1E3C0
F1C380
F1C700
E3C700
E3CE00
F39FE0
FF9FE0
7F9FC0
3F9FC0
080000
ENDCHAR
STARTCHAR 01F4
ENCODING 500
SWIDTH 488 0
DWIDTH 19 0
BBX 19 33 3 -1
BITMAP
000200
000F00
001F00
003F80
007E00
007800
002000
000E00
00FFC0
01FFE0
07FFE0
0FFFC0
0FC040
1F0000
3F0000
3E0000
7C0000
7C0000
7C0000
F80F80
F80F80
F80F80
F81F00
F81F00
F81F00
F81F00
F81E00
FC3E00
7FFE00
7FFE00
3FFC00
1FFC00
010000
ENDCHAR
STARTCHAR 01F5
ENCODING 501
SWIDTH 488 0
DWIDTH 19 0
BBX 21 34 0 -7
BITMAP
000040
0000C0
0003E0
0007F0
000FE0
000F80
000600
000000
000F00
007FF8
01FFF0
03FFF0
07F1F0
07C1F0
0F81F0
0F03E0
1F03E0
1F03E0
1F03E0
1F03C0
1F07C0
1F8FC0
1FFFC0
0FFF80
07FF80
01EF80
000F80
001F00
003F00
7FFE00
7FFE00
FFFC00
7FF000
030000
ENDCHAR
STARTCHAR 01F6
ENCODING 502
SWIDTH 488 0
DWIDTH 19 0
BBX 22 25 0 -1
BITMAP
03C780
038700
078F00
078F00
078F00
070E00
0F1E3C
0F1E3C
0F1E3C
0F1E38
1FFC78
1FFC78
1FFC78
1E3C70
3C78F0
3C78F0
3C78F0
3C78E0
3871E0
7871E0
7879E0
787FC0
707F80
F03F00
000800
ENDCHAR
STARTCHAR 01F7
ENCODING 503
SWIDTH 488 0
DWIDTH 19 0
BBX 21 30 1 -6
BITMAP
00FF80
03FFE0
03FFE0
03FFF0
03C1F0
07C1F0
07C0F8
07C0F8
07C0F8
0F80F0
0F81F0
0F81F0
0F83E0
1F03E0
1F07E0
1F0FC0
1F1F80
1E3F00
3E7E00
3FFC00
3FF800
3FE000
7FC000
7E0000
7C0000
780000
F80000
F80000
F80000
F00000
ENDCHAR
STARTCHAR 01F8
ENCODING 504
SWIDTH 488 0
DWIDTH 19 0
BBX 22 32 1 0
BITMAP
001000
003C00
003E00
007F00
001F80
000780
000100
000000
03C07C
07C078
07E078
07E078
07E0F8
0FF0F0
0FF0F0
0F70F0
0F71F0
1F79E0
1E79E0
1E39E0
1E39E0
1E3BE0
3E3FC0
3C3FC0
3C1FC0
3C1FC0
7C1F80
781F80
781F80
780F80
F80F00
F00F00
ENDCHAR
STARTCHAR 01F9
ENCODING 505
SWIDTH 488 0
DWIDTH 19 0
BBX 17 27 2 0
BITMAP
004000
006000
00F800
01FC00
007E00
003E00
000E00
000000
007800
0FFF00
0FFF80
1FFF80
1FFF80
1F0F80
1F0F80
3E0F80
3E0F80
3E0F80
3E0F80
3C1F00
7C1F00
7C1F00
7C1F00
783E00
F83E00
F83E00
F83E00
ENDCHAR
STARTCHAR 01FA
ENCODING 506
SWIDTH 488 0
DWIDTH 19 0
BBX 19 32 0 0
BITMAP
000040
0001E0
0007C0
000700
000000
000780
000FC0
001CC0
001CC0
001CC0
001FC0
001F80
003F80
007FC0
007BC0
00F3C0
00F3C0
01E3C0
01E3C0
03C3C0
03C3C0
0783C0
0783C0
0FFFC0
1FFFC0
1FFFC0
3FFFC0
3E03C0
7C03E0
7C03E0
F803E0
F803E0
ENDCHAR
STARTCHAR 01FB
ENCODING 507
SWIDTH 488 0
DWIDTH 19 0
BBX 18 32 2 0
BITMAP
000180
000780
001F80
001C00
000000
000F00
001F80
003180
003180
003B80
001F00
000E00
000000
003C00
01FFC0
07FFC0
0FFFC0
1FCFC0
3F0780
3E0F80
7C0F80
7C0F80
7C0F80
781F00
F81F00
F81F00
781F00
7C3F00
7FFF00
7FFF00
3FFF00
1FCF00
ENDCHAR
STARTCHAR 01FC
ENCODING 508
SWIDTH 488 0
DWIDTH 19 0
BBX 23 32 0 0
BITMAP
000018
00003C
00007C
0001FE
0001F8
0001E0
000080
000000
000FFE
001FFE
001FFE
003FFE
003BC0
007BC0
00F7C0
00F780
01E780
01E7F0
03CFF0
03CFF0
078FF0
078F00
0F1F00
0FFE00
1FFE00
1FFE00
3E1E00
3C3C00
7C3FE0
783FE0
F83FE0
F87FC0
ENDCHAR
STARTCHAR 01FD
ENCODING 509
SWIDTH 488 0
DWIDTH 19 0
BBX 20 28 1 -1
BITMAP
000100
000380
000780
001FC0
003F80
003E00
001800
000000
0701C0
1FC7E0
1FEFF0
1FEFF0
10FC70
00F870
0078F0
01F8F0
0FF1E0
1FFFC0
3FFF80
78FF00
70F000
F1F000
F1F000
F3F880
FFFF80
7F3FC0
7E1F80
100400
ENDCHAR
STARTCHAR 01FE
ENCODING 510
SWIDTH 488 0
DWIDTH 19 0
BBX 19 33 2 -2
BITMAP
000400
001E00
003F00
007F00
00FC00
007000
004000
0018E0
00FFE0
03FFE0
07FFC0
0FE7C0
0F87E0
1F0FE0
1F1FE0
3E1FE0
3E3FE0
3C7BE0
7C7BE0
7CF3E0
79E3C0
79E3C0
7BC7C0
7F87C0
7F8F80
7F0F80
7E1F00
7E3F00
7EFE00
7FFC00
7FF800
FFF000
610000
ENDCHAR
STARTCHAR 01FF
ENCODING 511
SWIDTH 488 0
DWIDTH 19 0
BBX 18 28 3 -2
BITMAP
000800
001C00
003C00
00FE00
01FC00
01F000
00C000
000080
0079C0
03FFC0
07FF80
0FFF80
1F9F80
3E1F80
3C3FC0
7C7FC0
7CF7C0
79E780
7BC780
FFCF80
FF8F80
7F1F00
7E1F00
7FFE00
7FFC00
7FF800
FFF000
E30000
ENDCHAR
STARTCHAR 0200
ENCODING 512
SWIDTH 488 0
DWIDTH 19 0
BBX 21 32 0 0
BITMAP
001060
0078E0
0078F0
003C78
001C78
000C38
000810
000000
000F80
001F80
001F80
003FC0
007FC0
007BC0
00FBC0
00F3C0
01F3C0
01E3C0
03E3C0
03C3C0
07C3C0
0783C0
0F83C0
0FFFC0
1FFFC0
1FFFC0
3E03C0
3E03C0
7C03E0
7C03E0
F803E0
F803E0
ENDCHAR
STARTCHAR 0201
ENCODING 513
SWIDTH 488 0
DWIDTH 19 0
BBX 19 27 2 0
BITMAP
000100
01C300
03C780
01E7C0
00E3C0
00F1E0
0060C0
000000
003C00
01FFC0
07FFC0
0FFFC0
1FCFC0
3F0780
3E0F80
7C0F80
7C0F80
7C0F80
781F00
F81F00
F81F00
781F00
7C3F00
7FFF00
7FFF00
3FFF00
1FCF00
ENDCHAR
STARTCHAR 0202
ENCODING 514
SWIDTH 488 0
DWIDTH 19 0
BBX 21 32 0 0
BITMAP
0003C0
000FE0
001FF0
003FF0
003C78
003878
000000
000000
000F80
001F80
001F80
003FC0
007FC0
007BC0
00FBC0
00F3C0
01F3C0
01E3C0
03E3C0
03C3C0
07C3C0
0783C0
0F83C0
0FFFC0
1FFFC0
1FFFC0
3E03C0
3E03C0
7C03E0
7C03E0
F803E0
F803E0
ENDCHAR
STARTCHAR 0203
ENCODING 515
SWIDTH 488 0
DWIDTH 19 0
BBX 18 26 2 0
BITMAP
003F00
007F80
00FFC0
01F3C0
01E3C0
01E3C0
000000
003C00
01FFC0
07FFC0
0FFFC0
1FCFC0
3F0780
3E0F80
7C0F80
7C0F80
7C0F80
781F00
F81F00
F81F00
781F00
7C3F00
7FFF00
7FFF00
3FFF00
1FCF00
ENDCHAR
STARTCHAR 0204
ENCODING 516
SWIDTH 488 0
DWIDTH 19 0
BBX 20 32 2 0
BITMAP
0060C0
00E1C0
00F3E0
0079E0
0078F0
003870
001000
000000
03FFF0
07FFF0
07FFE0
07FFE0
07C000
0F8000
0F8000
0F8000
0F8000
0FFF80
1FFF00
1FFF00
1FFF00
1E0000
3E0000
3E0000
3E0000
3C0000
7C0000
7C0000
7FFF00
7FFF00
FFFF00
FFFE00
ENDCHAR
STARTCHAR 0205
ENCODING 517
SWIDTH 488 0
DWIDTH 19 0
BBX 18 27 3 0
BITMAP
000200
038600
078F00
03CF80
01C780
01E3C0
00C180
000000
007800
03FE00
0FFF00
1FFF80
3F0F80
3E0780
7C0780
780F80
F83F00
FFFF00
FFFC00
FFF000
FC0000
F80000
F80000
7FFC00
7FFC00
3FFC00
1FFC00
ENDCHAR
STARTCHAR 0206
ENCODING 518
SWIDTH 488 0
DWIDTH 19 0
BBX 20 32 2 0
BITMAP
000780
001FC0
003FE0
007FE0
0070E0
00F0E0
000000
000000
03FFF0
07FFF0
07FFE0
07FFE0
07C000
0F8000
0F8000
0F8000
0F8000
0FFF80
1FFF00
1FFF00
1FFF00
1E0000
3E0000
3E0000
3E0000
3C0000
7C0000
7C0000
7FFF00
7FFF00
FFFF00
FFFE00
ENDCHAR
STARTCHAR 0207
ENCODING 519
SWIDTH 488 0
DWIDTH 19 0
BBX 17 26 3 0
BITMAP
007E00
00FF00
01FF00
03C780
03C780
038780
000000
007800
03FE00
0FFF00
1FFF80
3F0F80
3E0780
7C0780
780F80
F83F00
FFFF00
FFFC00
FFF000
FC0000
F80000
F80000
7FFC00
7FFC00
3FFC00
1FFC00
ENDCHAR
STARTCHAR 0208
ENCODING 520
SWIDTH 488 0
DWIDTH 19 0
BBX 21 32 1 0
BITMAP
0020C0
00F1C0
00F1E0
0078F0
0038F0
001870
001020
000000
03FFF8
03FFF8
07FFF8
07FFF8
003E00
003E00
003E00
003C00
007C00
007C00
007C00
007800
00F800
00F800
00F800
00F000
01F000
01F000
01F000
01F000
7FFF00
7FFF00
7FFF00
FFFF00
ENDCHAR
STARTCHAR 0209
ENCODING 521
SWIDTH 488 0
DWIDTH 19 0
BBX 15 27 4 0
BITMAP
0400
0C18
1E7C
1E3C
0F1E
078E
0304
0000
0000
7FE0
7FE0
7FC0
FFC0
07C0
07C0
07C0
0F80
0F80
0F80
0F80
0F00
1F00
1F80
1FFC
0FFC
0FFC
07FC
ENDCHAR
STARTCHAR 020A
ENCODING 522
SWIDTH 488 0
DWIDTH 19 0
BBX 21 32 1 0
BITMAP
000780
001FC0
003FE0
007FF0
0078F0
0070F0
000000
000000
03FFF8
03FFF8
07FFF8
07FFF8
003E00
003E00
003E00
003C00
007C00
007C00
007C00
007800
00F800
00F800
00F800
00F000
01F000
01F000
01F000
01F000
7FFF00
7FFF00
7FFF00
FFFF00
ENDCHAR
STARTCHAR 020B
ENCODING 523
SWIDTH 488 0
DWIDTH 19 0
BBX 14 26 4 0
BITMAP
03F0
07F8
0FFC
0F3C
1E1C
1E1C
0000
0000
7FE0
7FE0
7FC0
FFC0
07C0
07C0
07C0
0F80
0F80
0F80
0F80
0F00
1F00
1F80
1FFC
0FFC
0FFC
07FC
ENDCHAR
STARTCHAR 020C
ENCODING 524
SWIDTH 488 0
DWIDTH 19 0
BBX 18 33 3 -1
BITMAP
018200
038700
03CF80
03C780
01E3C0
00E1C0
000000
003800
01FE00
07FF00
0FFF80
1FFF80
1F07C0
3E07C0
3E07C0
7C07C0
7C07C0
7C07C0
F807C0
F807C0
F80780
F80F80
F80F80
F00F80
F01F00
F01F00
F83E00
F87E00
FFFC00
7FF800
7FF000
1FE000
020000
ENDCHAR
STARTCHAR 020D
ENCODING 525
SWIDTH 488 0
DWIDTH 19 0
BBX 17 28 3 -1
BITMAP
010000
030600
079F00
07CF00
03C780
01E380
00C100
000000
00F000
07FC00
0FFE00
1FFF00
3F3F00
7E1F80
7C0F80
F80F80
F80F80
F80F00
F00F00
F01F00
F01F00
F83E00
F87E00
FFFC00
FFF800
7FF000
3FE000
040000
ENDCHAR
STARTCHAR 020E
ENCODING 526
SWIDTH 488 0
DWIDTH 19 0
BBX 18 33 3 -1
BITMAP
001E00
007F80
00FFC0
00FFC0
01E3C0
01E1C0
000000
003800
01FE00
07FF00
0FFF80
1FFF80
1F07C0
3E07C0
3E07C0
7C07C0
7C07C0
7C07C0
F807C0
F807C0
F80780
F80F80
F80F80
F00F80
F01F00
F01F00
F83E00
F87E00
FFFC00
7FF800
7FF000
1FE000
020000
ENDCHAR
STARTCHAR 020F
ENCODING 527
SWIDTH 488 0
DWIDTH 19 0
BBX 17 27 3 -1
BITMAP
007E00
00FF00
01FF00
03C780
03C780
038780
000000
00F000
07FC00
0FFE00
1FFF00
3F3F00
7E1F80
7C0F80
F80F80
F80F80
F80F00
F00F00
F01F00
F01F00
F83E00
F87E00
FFFC00
FFF800
7FF000
3FE000
040000
ENDCHAR
STARTCHAR 0210
ENCODING 528
SWIDTH 488 0
DWIDTH 19 0
BBX 20 32 1 0
BITMAP
004080
00E3C0
01F3C0
00F1E0
0078E0
003860
000040
000000
03FF80
03FFC0
07FFE0
07FFE0
07C3F0
0781F0
0F81F0
0F81F0
0F81E0
0F83E0
0F07E0
1FFFC0
1FFF80
1FFE00
1FFC00
3E3E00
3E3E00
3E1E00
3C1F00
7C1F00
7C0F00
7C0F80
780F80
F80780
ENDCHAR
STARTCHAR 0211
ENCODING 529
SWIDTH 488 0
DWIDTH 19 0
BBX 18 27 3 0
BITMAP
010000
030600
079F00
07CF00
03C780
01E380
00C100
000000
003E00
07FFC0
0FFF80
1FFF80
1FFF00
1F0000
1E0000
3E0000
3E0000
3E0000
3E0000
7C0000
7C0000
7C0000
7C0000
780000
F80000
F80000
F80000
ENDCHAR
STARTCHAR 0212
ENCODING 530
SWIDTH 488 0
DWIDTH 19 0
BBX 20 32 1 0
BITMAP
000780
001FC0
003FE0
007FF0
0078F0
0070F0
000000
000000
03FF80
03FFC0
07FFE0
07FFE0
07C3F0
0781F0
0F81F0
0F81F0
0F81E0
0F83E0
0F07E0
1FFFC0
1FFF80
1FFE00
1FFC00
3E3E00
3E3E00
3E1E00
3C1F00
7C1F00
7C0F00
7C0F80
780F80
F80780
ENDCHAR
STARTCHAR 0213
ENCODING 531
SWIDTH 488 0
DWIDTH 19 0
BBX 18 26 3 0
BITMAP
007E00
00FF00
01FF80
03E780
03C780
03C780
000000
003E00
07FFC0
0FFF80
1FFF80
1FFF00
1F0000
1E0000
3E0000
3E0000
3E0000
3E0000
7C0000
7C0000
7C0000
7C0000
780000
F80000
F80000
F80000
ENDCHAR
STARTCHAR 0214
ENCODING 532
SWIDTH 488 0
DWIDTH 19 0
BBX 19 33 3 -1
BITMAP
008300
03C700
03C780
01E3C0
00E3C0
0061C0
004080
000000
0F01E0
1F03E0
1F03E0
1F03E0
1E03C0
3E07C0
3E07C0
3E07C0
3C0780
7C0F80
7C0F80
7C0F80
780F00
F81F00
F81F00
F81F00
F81E00
F03E00
F03E00
F87C00
FFFC00
FFF800
7FF000
3FE000
060000
ENDCHAR
STARTCHAR 0215
ENCODING 533
SWIDTH 488 0
DWIDTH 19 0
BBX 17 27 3 0
BITMAP
010000
030600
079F00
07CF00
03C780
01E380
00C100
000000
000000
3E0F80
3E0F80
3E0F80
3E0F80
3C1F00
7C1F00
7C1F00
7C1F00
781E00
F83E00
F83E00
F83E00
F83E00
F87C00
FFFE00
FFFE00
7FFE00
3F9E00
ENDCHAR
STARTCHAR 0216
ENCODING 534
SWIDTH 488 0
DWIDTH 19 0
BBX 19 33 3 -1
BITMAP
001E00
007F00
00FF80
01FFC0
01E3C0
01C3C0
000000
000000
0F01E0
1F03E0
1F03E0
1F03E0
1E03C0
3E07C0
3E07C0
3E07C0
3C0780
7C0F80
7C0F80
7C0F80
780F00
F81F00
F81F00
F81F00
F81E00
F03E00
F03E00
F87C00
FFFC00
FFF800
7FF000
3FE000
060000
ENDCHAR
STARTCHAR 0217
ENCODING 535
SWIDTH 488 0
DWIDTH 19 0
BBX 17 26 3 0
BITMAP
007E00
01FF00
01FF00
03C780
03C780
038780
000000
000000
3E0F80
3E0F80
3E0F80
3E0F80
3C1F00
7C1F00
7C1F00
7C1F00
781E00
F83E00
F83E00
F83E00
F83E00
F87C00
FFFE00
FFFE00
7FFE00
3F9E00
ENDCHAR
STARTCHAR 0218
ENCODING 536
SWIDTH 488 0
DWIDTH 19 0
BBX 20 32 1 -7
BITMAP
001E00
00FFE0
01FFF0
03FFE0
07F7E0
07C000
0F8000
0F8000
0F8000
0FC000
07F000
07FC00
03FE00
00FF00
007F80
001F80
000F80
000F80
000780
000F80
300F80
7FFF00
7FFF00
FFFE00
3FF800
010000
000000
078000
0F8000
3F0000
3E0000
300000
ENDCHAR
STARTCHAR 0219
ENCODING 537
SWIDTH 488 0
DWIDTH 19 0
BBX 18 26 2 -7
BITMAP
007C00
03FFC0
07FF80
0FFF80
0F8300
1F0000
1F0000
1FC000
0FF000
0FFC00
03FE00
00FE00
003F00
001F00
603E00
7FFE00
7FFE00
FFFC00
7FF000
030000
000000
078000
0F0000
3F0000
7E0000
300000
ENDCHAR
STARTCHAR 021A
ENCODING 538
SWIDTH 488 0
DWIDTH 19 0
BBX 20 31 3 -7
BITMAP
1FFFF0
1FFFF0
3FFFF0
3FFFF0
00F800
00F800
00F800
01F000
01F000
01F000
01F000
01E000
03E000
03E000
03E000
03C000
07C000
07C000
07C000
078000
0F8000
0F8000
0F8000
0F0000
000000
000000
1E0000
1E0000
FC0000
FC0000
C00000
ENDCHAR
STARTCHAR 021B
ENCODING 539
SWIDTH 488 0
DWIDTH 19 0
BBX 16 31 4 -7
BITMAP
0020
03E0
03C0
07C0
07C0
07C0
7FFF
7FFF
7FFF
FFFF
0F80
1F00
1F00
1F00
1F00
1E00
3E00
3E00
3E00
3E04
3FFC
3FFC
1FFC
0FF8
0000
0000
0780
0F80
3F00
7E00
3000
ENDCHAR
STARTCHAR 021C
ENCODING 540
SWIDTH 488 0
DWIDTH 19 0
BBX 21 31 -1 -6
BITMAP
000E00
00FFE0
03FFF0
01FFF8
01FFF8
0100F8
0000F8
000078
0000F8
0000F8
0001F0
0003F0
003FE0
01FF80
01FF00
01FF80
03FFC0
000FE0
0007E0
0003E0
0003E0
0003E0
0003E0
0007E0
0007C0
001FC0
007F80
7FFF00
FFFE00
FFF800
FFE000
ENDCHAR
STARTCHAR 021D
ENCODING 541
SWIDTH 488 0
DWIDTH 19 0
BBX 19 26 0 -7
BITMAP
003800
07FF80
07FFC0
07FFE0
07DFE0
0003E0
0003E0
0003E0
0007C0
001FC0
01FF80
01FE00
03FE00
03FF00
001F80
000F80
000F80
000F80
000F80
003F80
00FF00
7FFE00
FFFC00
FFF000
FF8000
800000
ENDCHAR
STARTCHAR 021E
ENCODING 542
SWIDTH 488 0
DWIDTH 19 0
BBX 22 32 1 0
BITMAP
001860
003CF0
003FE0
001FC0
000F80
000700
000000
000000
03C07C
07C078
07C0F8
07C0F8
07C0F8
0F80F0
0F81F0
0F81F0
0F81F0
1FFFF0
1FFFE0
1FFFE0
1FFFE0
1E03E0
3E07C0
3E07C0
3E07C0
3C07C0
7C0780
7C0F80
7C0F80
780F80
F80F00
F81F00
ENDCHAR
STARTCHAR 021F
ENCODING 543
SWIDTH 488 0
DWIDTH 19 0
BBX 17 32 2 0
BITMAP
018600
01EF00
00FE00
007C00
003000
000000
000000
004000
07C000
07C000
07C000
078000
0F8000
0FB800
0FFF00
0FFF80
1FFF80
1FFF80
1F0F80
1F0F80
3E0F80
3E0F80
3E0F80
3E0F80
7C1F00
7C1F00
7C1F00
7C1F00
781E00
F83E00
F83E00
F83E00
ENDCHAR
STARTCHAR 0220
ENCODING 544
SWIDTH 488 0
DWIDTH 19 0
BBX 20 31 1 -6
BITMAP
001C00
03FFC0
07FFE0
07FFE0
07FFF0
07C3F0
0781F0
0F81F0
0F81F0
0F81F0
0F01E0
1F03E0
1F03E0
1F03E0
1E03C0
3E07C0
3E07C0
3E07C0
3C07C0
7C0F80
7C0F80
7C0F80
780F80
F81F00
F81F00
001F00
001F00
001E00
003E00
003E00
003E00
ENDCHAR
STARTCHAR 0221
ENCODING 545
SWIDTH 488 0
DWIDTH 19 0
BBX 18 33 2 -6
BITMAP
0001C0
0007C0
000780
000780
000780
000F80
000F00
000F00
000F00
03FF00
0FFE00
1FFE00
3F3E00
3C3E00
783C00
783C00
F03C00
F07C00
F07C00
F07800
F07800
F07800
F0FE00
FFFF80
FFFF80
7FF780
3FE3C0
03E3C0
07E380
0FE780
3EFF80
1CFF00
187E00
ENDCHAR
STARTCHAR 0222
ENCODING 546
SWIDTH 488 0
DWIDTH 19 0
BBX 19 25 2 -1
BITMAP
03C1E0
07C1E0
07C1E0
0781E0
0F83E0
0F83E0
0F83E0
0F87C0
0FCFC0
07FF80
03FF00
0FFF00
3FFF80
7E0F80
7C07C0
F807C0
F807C0
F807C0
F80F80
FC1F80
FFFF80
7FFF00
7FFE00
1FF800
010000
ENDCHAR
STARTCHAR 0223
ENCODING 547
SWIDTH 488 0
DWIDTH 19 0
BBX 20 28 2 -1
BITMAP
03E0F0
03E1F0
07C1F0
07C1F0
0781F0
0F81F0
0F83F0
0F83E0
0F83E0
0FC7C0
07FF80
03FF00
07FF00
1FFF80
3F0F80
3E0780
7C07C0
7C07C0
7807C0
F80F80
F80F80
F81F80
FC3F00
7FFF00
7FFE00
3FFC00
1FF000
010000
ENDCHAR
STARTCHAR 0224
ENCODING 548
SWIDTH 488 0
DWIDTH 19 0
BBX 21 31 1 -7
BITMAP
03FFF8
03FFF8
03FFF8
07FFF0
0003F0
0007E0
0007C0
000F80
001F00
003E00
007C00
00FC00
01F800
01F000
03E000
07C000
0F8000
1F8000
1F0000
3E0000
7FFF80
7FFF80
FFFF00
FFFF00
000F00
000F00
001E00
01FE00
01FC00
03F800
004000
ENDCHAR
STARTCHAR 0225
ENCODING 549
SWIDTH 488 0
DWIDTH 19 0
BBX 19 25 0 -7
BITMAP
07FFE0
0FFFE0
0FFFC0
0FFFC0
001F80
003F00
007E00
00FC00
01F800
03E000
07C000
0F8000
1F8000
3F0000
7FFF00
7FFE00
7FFE00
FFFE00
001E00
003C00
003C00
03FC00
03F800
07F000
018000
ENDCHAR
STARTCHAR 0226
ENCODING 550
SWIDTH 488 0
DWIDTH 19 0
BBX 19 32 0 0
BITMAP
000180
0007C0
0007C0
0007C0
0007C0
000300
000000
000000
000F80
001F80
001F80
003FC0
007FC0
007BC0
00FBC0
00F3C0
01F3C0
01E3C0
03E3C0
03C3C0
07C3C0
0783C0
0F83C0
0FFFC0
1FFFC0
1FFFC0
3E03C0
3E03C0
7C03E0
7C03E0
F803E0
F803E0
ENDCHAR
STARTCHAR 0227
ENCODING 551
SWIDTH 488 0
DWIDTH 19 0
BBX 18 26 2 0
BITMAP
001E00
001F00
001F00
001F00
001E00
000000
000000
003C00
01FFC0
07FFC0
0FFFC0
1FCFC0
3F0780
3E0F80
7C0F80
7C0F80
7C0F80
781F00
F81F00
F81F00
781F00
7C3F00
7FFF00
7FFF00
3FFF00
1FCF00
ENDCHAR
STARTCHAR 0228
ENCODING 552
SWIDTH 488 0
DWIDTH 19 0
BBX 20 31 2 -7
BITMAP
03FFF0
07FFF0
07FFE0
07FFE0
07C000
0F8000
0F8000
0F8000
0F8000
0FFF80
1FFF00
1FFF00
1FFF00
1E0000
3E0000
3E0000
3E0000
3C0000
7C0000
7C0000
7FFF00
7FFF00
FFFF00
FFFE00
038000
07C000
01E000
01E000
1FC000
1FC000
060000
ENDCHAR
STARTCHAR 0229
ENCODING 553
SWIDTH 488 0
DWIDTH 19 0
BBX 17 26 3 -7
BITMAP
007800
03FE00
0FFF00
1FFF80
3F0F80
3E0780
7C0780
780F80
F83F00
FFFF00
FFFC00
FFF000
FC0000
F80000
F80000
7FFC00
7FFC00
3FFC00
1FFC00
038000
078000
03C000
03C000
3FC000
3F8000
0C0000
ENDCHAR
STARTCHAR 022A
ENCODING 554
SWIDTH 488 0
DWIDTH 19 0
BBX 18 33 3 -1
BITMAP
007FC0
007FC0
000000
000100
01E380
01E7C0
01E780
00C300
000000
00FC00
03FF00
07FF80
0FFF80
1F8FC0
3F07C0
3E07C0
7C07C0
7C07C0
7C07C0
F807C0
F807C0
F80F80
F80F80
F80F80
F01F00
F01F00
F03E00
F87E00
FFFC00
FFF800
7FF000
3FE000
020000
ENDCHAR
STARTCHAR 022B
ENCODING 555
SWIDTH 488 0
DWIDTH 19 0
BBX 18 29 3 -1
BITMAP
007FC0
00FF80
000000
00C300
01E780
01E780
01E780
008300
000000
00F000
07FC00
0FFE00
1FFF00
3F3F00
7E1F80
7C0F80
F80F80
F80F80
F80F00
F00F00
F01F00
F01F00
F83E00
F87E00
FFFC00
FFF800
7FF000
3FE000
040000
ENDCHAR
STARTCHAR 022C
ENCODING 556
SWIDTH 488 0
DWIDTH 19 0
BBX 18 33 3 -1
BITMAP
00FFC0
00FFC0
000000
000100
00FB80
01FF80
01FF00
008400
000000
00FC00
03FF00
07FF80
0FFF80
1F8FC0
3F07C0
3E07C0
7C07C0
7C07C0
7C07C0
F807C0
F807C0
F80F80
F80F80
F80F80
F01F00
F01F00
F03E00
F87E00
FFFC00
FFF800
7FF000
3FE000
020000
ENDCHAR
STARTCHAR 022D
ENCODING 557
SWIDTH 488 0
DWIDTH 19 0
BBX 18 29 3 -1
BITMAP
00FFC0
00FF80
000000
002100
00FF80
01FF00
03FF00
000000
000000
00F000
07FC00
0FFE00
1FFF00
3F3F00
7E1F80
7C0F80
F80F80
F80F80
F80F00
F00F00
F01F00
F01F00
F83E00
F87E00
FFFC00
FFF800
7FF000
3FE000
040000
ENDCHAR
STARTCHAR 022E
ENCODING 558
SWIDTH 488 0
DWIDTH 19 0
BBX 18 33 3 -1
BITMAP
000600
001F00
001F00
001F00
001F00
000C00
000000
003800
01FE00
07FF00
0FFF80
1FFF80
1F07C0
3E07C0
3E07C0
7C07C0
7C07C0
7C07C0
F807C0
F807C0
F80780
F80F80
F80F80
F00F80
F01F00
F01F00
F83E00
F87E00
FFFC00
7FF800
7FF000
1FE000
020000
ENDCHAR
STARTCHAR 022F
ENCODING 559
SWIDTH 488 0
DWIDTH 19 0
BBX 17 27 3 -1
BITMAP
003C00
007E00
007E00
007C00
003C00
000000
000000
00F000
07FC00
0FFE00
1FFF00
3F3F00
7E1F80
7C0F80
F80F80
F80F80
F80F00
F00F00
F01F00
F01F00
F83E00
F87E00
FFFC00
FFF800
7FF000
3FE000
040000
ENDCHAR
STARTCHAR 0230
ENCODING 560
SWIDTH 488 0
DWIDTH 19 0
BBX 18 33 3 -1
BITMAP
007FC0
007FC0
000000
000800
001C00
003E00
003C00
001800
000000
00FC00
03FF00
07FF80
0FFF80
1F8FC0
3F07C0
3E07C0
7C07C0
7C07C0
7C07C0
F807C0
F807C0
F80F80
F80F80
F80F80
F01F00
F01F00
F03E00
F87E00
FFFC00
FFF800
7FF000
3FE000
020000
ENDCHAR
STARTCHAR 0231
ENCODING 561
SWIDTH 488 0
DWIDTH 19 0
BBX 17 29 3 -1
BITMAP
00FF80
00FF80
000000
001800
003C00
007C00
003800
001000
000000
00F000
07FC00
0FFE00
1FFF00
3F3F00
7E1F80
7C0F80
F80F80
F80F80
F80F00
F00F00
F01F00
F01F00
F83E00
F87E00
FFFC00
FFF800
7FF000
3FE000
040000
ENDCHAR
STARTCHAR 0232
ENCODING 562
SWIDTH 488 0
DWIDTH 19 0
BBX 18 31 6 0
BITMAP
07FF00
07FF00
0FFF00
0FFE00
000000
000000
000000
F007C0
F00F80
F81F00
F81F00
F83E00
F83E00
787C00
78F800
7CF000
7DF000
3FE000
3FC000
3FC000
3F8000
1F0000
1F0000
3E0000
3E0000
3E0000
3E0000
7C0000
7C0000
7C0000
7C0000
ENDCHAR
STARTCHAR 0233
ENCODING 563
SWIDTH 488 0
DWIDTH 19 0
BBX 23 31 -2 -7
BITMAP
001FFC
001FFC
001FFC
000000
000000
000000
000000
03E03E
03E03E
01E07C
01F07C
01F078
01F0F8
01F0F8
01F1F0
01F1F0
01F3E0
00F3E0
00F7C0
00FFC0
00FF80
00FF00
007F00
007E00
007C00
00F800
01F800
3FF000
7FE000
7FC000
FF0000
ENDCHAR
STARTCHAR 0234
ENCODING 564
SWIDTH 488 0
DWIDTH 19 0
BBX 18 33 0 -6
BITMAP
01FF00
03FF00
03FF00
03FF00
001E00
003E00
003E00
003E00
003E00
007C00
007C00
007C00
007C00
007800
00F800
00F800
00F800
00F000
01F000
01F000
01F000
01E000
03FF00
03FF80
03FFC0
03FFC0
07C3C0
0FC3C0
1FC3C0
3FC780
FBFF80
71FF00
20FC00
ENDCHAR
STARTCHAR 0235
ENCODING 565
SWIDTH 488 0
DWIDTH 19 0
BBX 19 25 1 -6
BITMAP
006000
0FFC00
0FFE00
1FFE00
1F3E00
1E1E00
1E1E00
1E1E00
3E1E00
3C1E00
3C3E00
3C3C00
7C3C00
783C00
787F80
787FC0
F87FC0
F079E0
F0F1E0
01F1E0
07F1C0
0FF3C0
1F7FC0
0E7F80
0C3F00
ENDCHAR
STARTCHAR 0236
ENCODING 566
SWIDTH 488 0
DWIDTH 19 0
BBX 21 30 0 -6
BITMAP
000200
003E00
003C00
007C00
007C00
007C00
0FFFF8
0FFFF8
0FFFF0
0FFFF0
00F800
00F000
01F000
01F000
01F000
01E000
03E000
03E000
03E000
03FE00
07FF00
07FF80
07FF80
0F8780
1F8780
3F8780
7F8F00
F7FF00
E3FE00
41FC00
ENDCHAR
STARTCHAR 0237
ENCODING 567
SWIDTH 488 0
DWIDTH 19 0
BBX 18 25 0 -7
BITMAP
03FFC0
03FFC0
03FFC0
07FFC0
000F80
000F80
000F80
000F80
000F00
001F00
001F00
001F00
001E00
003E00
003E00
003E00
003C00
007C00
007C00
40FC00
7FF800
FFF800
FFF000
7FE000
060000
ENDCHAR
STARTCHAR 0238
ENCODING 568
SWIDTH 488 0
DWIDTH 19 0
BBX 19 28 2 -1
BITMAP
000600
001E00
001E00
001C00
003C00
003C00
003C00
003800
037B00
0FFF80
1FFFC0
1FFFC0
3CF3C0
78F1E0
78F1E0
78F1C0
F0E1C0
F1E3C0
F1E3C0
F1E3C0
E1C380
E3C780
E3CF80
F3CF00
FFFE00
FFFE00
7FF800
100000
ENDCHAR
STARTCHAR 0239
ENCODING 569
SWIDTH 488 0
DWIDTH 19 0
BBX 19 25 2 -6
BITMAP
018600
07FF80
1FFFC0
1FFFC0
3CF3C0
78F1E0
78F1E0
70F1C0
F0E1C0
F1E3C0
F1E3C0
F1E3C0
E1C380
E3C780
F3C780
F7CF00
FFFF00
FFFE00
7FFC00
078000
078000
0F0000
0F0000
0F0000
0F0000
ENDCHAR
STARTCHAR 023A
ENCODING 570
SWIDTH 488 0
DWIDTH 19 0
BBX 22 31 -1 -4
BITMAP
000008
00001C
00001C
000FF8
000FF8
001FF0
001FF0
003FE0
007FE0
0079E0
00F9E0
00F3E0
01F3E0
01E7E0
03E7E0
03CFE0
07CDE0
079DE0
0FFFE0
0FFFE0
1FFFF0
1E71F0
3E71F0
3CE1F0
7CE1F0
7DC1F0
F9C1F0
038000
038000
070000
010000
ENDCHAR
STARTCHAR 023B
ENCODING 571
SWIDTH 488 0
DWIDTH 19 0
BBX 20 30 3 -4
BITMAP
0000E0
0000E0
000FE0
00FFC0
03FFF0
07FFE0
0FFFE0
1F8F40
1F0F00
3E1E00
3E1E00
7C3C00
7C3C00
7C7800
787800
F8F000
F8E000
F9E000
F9C000
FBC000
FB8000
FF8000
7F0600
7FFE00
7FFE00
3FFF00
3FFC00
3D8000
780000
380000
ENDCHAR
STARTCHAR 023C
ENCODING 572
SWIDTH 488 0
DWIDTH 19 0
BBX 18 24 3 -3
BITMAP
000380
000380
003F00
03FFC0
07FF80
1FFF80
1FFF00
3F1800
7E3800
7C3000
F87000
F86000
F8E000
F9C000
F9C000
FB8000
FF8000
7FFC00
7FFE00
3FFE00
0FFC00
1C0000
1C0000
180000
ENDCHAR
STARTCHAR 023D
ENCODING 573
SWIDTH 488 0
DWIDTH 19 0
BBX 15 24 3 0
BITMAP
03C0
07C0
07C0
07C0
0780
0F80
0F80
0F80
0F00
7FF8
FFF8
FFF0
FFF0
3E00
3E00
3E00
3E00
7C00
7C00
7C00
7FFE
7FFC
FFFC
FFFC
ENDCHAR
STARTCHAR 023E
ENCODING 574
SWIDTH 488 0
DWIDTH 19 0
BBX 25 27 0 -2
BITMAP
00000300
00000380
07FFFF80
07FFFF00
07FFFE00
0FFFFC00
003E7800
003EF000
003FE000
003FC000
003F8000
007F0000
007E0000
007C0000
007C0000
00F80000
00F80000
01F80000
03F00000
07F00000
0FF00000
1FF00000
1DE00000
3BE00000
7BE00000
F3E00000
60000000
ENDCHAR
STARTCHAR 023F
ENCODING 575
SWIDTH 488 0
DWIDTH 19 0
BBX 18 25 2 -6
BITMAP
007C00
03FFC0
07FF80
0FFF80
0F8300
1F0000
1F0000
1FC000
0FF000
0FFC00
03FE00
00FE00
003F00
001F00
603E00
7FFE00
7FFE00
FFFC00
7FF000
3C0000
1E0000
1F8800
0FF800
07F000
03F000
ENDCHAR
STARTCHAR 0240
ENCODING 576
SWIDTH 488 0
DWIDTH 19 0
BBX 18 24 2 -6
BITMAP
0FFFC0
0FFFC0
0FFFC0
0FFF80
001F00
003E00
007C00
00F800
01F000
03E000
07C000
0F8000
1F0000
3E0000
7C0000
7C0000
FF0000
FF8000
0FC000
07C000
03F200
01FE00
00FE00
007E00
ENDCHAR
STARTCHAR 0241
ENCODING 577
SWIDTH 488 0
DWIDTH 19 0
BBX 16 25 5 0
BITMAP
00C0
1FFC
3FFE
3FFE
3FFF
203F
001F
001F
003E
007E
00FC
03F8
07F0
0FE0
1F80
3F00
3E00
7C00
7C00
7C00
7800
F800
F800
F800
F800
ENDCHAR
STARTCHAR 0242
ENCODING 578
SWIDTH 488 0
DWIDTH 19 0
BBX 13 19 6 0
BITMAP
07C0
7FF0
7FF8
7FF8
79F8
0078
0078
00F8
01F0
03F0
0FE0
1F80
3E00
7C00
7C00
F800
F800
F800
F800
ENDCHAR
STARTCHAR 0243
ENCODING 579
SWIDTH 488 0
DWIDTH 19 0
BBX 19 24 2 0
BITMAP
03FF00
03FFC0
07FFC0
07FFE0
0783E0
0783E0
0F83E0
0F83C0
0F87C0
0F3F80
1FFF00
1FFE00
1FFF00
1E3F80
3E0F80
FF87C0
FF87C0
FF8780
7C0F80
7C1F80
7FFF00
7FFE00
FFFC00
FFF000
ENDCHAR
STARTCHAR 0244
ENCODING 580
SWIDTH 488 0
DWIDTH 19 0
BBX 20 25 2 -1
BITMAP
07C1F0
0781F0
0F81E0
0F83E0
0F83E0
0F03E0
1F03E0
1F07C0
1F07C0
FFFFF0
FFFFF0
FFFFE0
FFFFE0
3C0F80
7C0F80
7C0F00
7C1F00
7C1F00
7C1E00
7C3E00
7FFE00
7FFC00
3FF800
1FF000
030000
ENDCHAR
STARTCHAR 0245
ENCODING 581
SWIDTH 488 0
DWIDTH 19 0
BBX 19 24 0 0
BITMAP
000F80
001F80
001F80
003FC0
007FC0
007FC0
00FBC0
00F3C0
01F3C0
01E3C0
03E3C0
03C3C0
07C3C0
0783C0
0F83C0
0F03C0
1F03C0
1E03C0
3E03C0
3E03C0
7C03E0
7C03E0
F803E0
F803E0
ENDCHAR
STARTCHAR 0246
ENCODING 582
SWIDTH 488 0
DWIDTH 19 0
BBX 22 30 2 -4
BITMAP
00001C
00003C
07FFF8
07FFF8
07FFF0
0FFFE0
0F81E0
0F81C0
0F8380
1F0780
1F0700
1FFFC0
1FFF80
1FFF80
3FFF80
3E3800
3E7800
3CF000
7CE000
7DE000
7DC000
7B8000
FFFF00
FFFF00
FFFE00
FFFE00
1C0000
3C0000
380000
100000
ENDCHAR
STARTCHAR 0247
ENCODING 583
SWIDTH 488 0
DWIDTH 19 0
BBX 17 24 3 -3
BITMAP
000E00
000E00
007C00
03FE00
0FFF00
1FFF80
3F3780
3E7780
7C7780
78EF80
F8FF00
FFFF00
FFFC00
FFE000
F38000
F38000
FF0000
7F7C00
7FFC00
3FFC00
1FF800
1D0000
1C0000
180000
ENDCHAR
STARTCHAR 0248
ENCODING 584
SWIDTH 488 0
DWIDTH 19 0
BBX 20 25 2 -1
BITMAP
01FFE0
01FFE0
01FFC0
03FFC0
0007C0
0007C0
000780
000F80
000F80
01FFF0
01FFE0
03FFE0
03FFE0
001F00
001F00
001E00
003E00
003E00
007C00
607C00
FFFC00
FFF800
FFF000
3FE000
060000
ENDCHAR
STARTCHAR 0249
ENCODING 585
SWIDTH 488 0
DWIDTH 19 0
BBX 19 34 0 -7
BITMAP
000100
0007C0
0007E0
0007E0
0007C0
0007C0
000000
000000
000000
03FFC0
03FFC0
03FFC0
07FFC0
000F80
000F80
000F80
0FFFE0
0FFFE0
0FFFC0
001F00
001F00
001E00
003E00
003E00
003E00
003C00
007C00
007C00
40FC00
7FF800
FFF800
FFF000
7FE000
060000
ENDCHAR
STARTCHAR 024A
ENCODING 586
SWIDTH 488 0
DWIDTH 19 0
BBX 17 31 3 -7
BITMAP
003800
01FE00
07FF00
0FFF80
0FFF80
1F0F80
3E0F80
3E0780
3C0780
7C0780
7C0F80
780F80
F80F80
F80F80
F80F00
F81F00
F81F00
F01F00
F03E00
F83E00
F87E00
FFFE00
7FFC00
7FFC00
3FBC00
047C00
007C00
007F00
007F00
003F00
003F00
ENDCHAR
STARTCHAR 024B
ENCODING 587
SWIDTH 488 0
DWIDTH 19 0
BBX 17 26 3 -7
BITMAP
007800
03FF80
0FFF80
1FFF80
3F9F80
3E0F00
7C1F00
7C1F00
F81F00
F81E00
F83E00
F03E00
F03E00
F83C00
F87C00
FFFC00
FFFC00
7FF800
3FF800
00F800
00F800
00FC00
00FE00
00FE00
007E00
000800
ENDCHAR
STARTCHAR 024C
ENCODING 588
SWIDTH 488 0
DWIDTH 19 0
BBX 19 24 2 0
BITMAP
03FF00
03FF80
03FFC0
07FFC0
07C3E0
07C3E0
0783E0
0783E0
0F83C0
0F87C0
0F0FC0
7FFF80
7FFF00
FFFE00
FFF800
1E7C00
3E3C00
3E3C00
3C3E00
3C1E00
7C1F00
7C1F00
780F00
780F00
ENDCHAR
STARTCHAR 024D
ENCODING 589
SWIDTH 488 0
DWIDTH 19 0
BBX 19 19 2 0
BITMAP
001F00
03FFE0
07FFC0
07FFC0
0FFF80
0F8000
0F8000
0F8000
0F0000
7FFC00
7FFC00
FFFC00
1E0000
3E0000
3E0000
3E0000
3C0000
7C0000
7C0000
ENDCHAR
STARTCHAR 024E
ENCODING 590
SWIDTH 488 0
DWIDTH 19 0
BBX 19 24 4 0
BITMAP
3C01E0
3C03E0
3C07C0
3E07C0
FFFFE0
FFFFE0
FFFFE0
FFFFC0
1E3C00
1F7C00
0F7800
0FF000
0FF000
0FE000
07C000
07C000
0F8000
0F8000
0F8000
0F8000
1F0000
1F0000
1F0000
1F0000
ENDCHAR
STARTCHAR 024F
ENCODING 591
SWIDTH 488 0
DWIDTH 19 0
BBX 23 24 -2 -7
BITMAP
01F03E
01F07C
01F07C
01F07C
01F0F8
07FFFE
07FFFE
07FFFE
0FFFFE
01F3E0
00F3E0
00F7C0
00F780
00FF80
00FF00
007F00
007E00
007C00
00FC00
01F800
3FF000
7FE000
7FC000
FF0000
ENDCHAR
STARTCHAR 0292
ENCODING 658
SWIDTH 488 0
DWIDTH 19 0
BBX 20 24 0 -6
BITMAP
03FFF0
07FFF0
07FFE0
07FFE0
0007C0
000F80
001F00
003E00
007C00
00F000
01FC00
01FE00
03FF00
001F00
000F80
000F80
000F80
000F80
001F00
403F00
7FFE00
7FFE00
FFFC00
7FF000
ENDCHAR
STARTCHAR 02BC
ENCODING 700
SWIDTH 488 0
DWIDTH 19 0
BBX 7 8 10 19
BITMAP
3E
3E
3C
3C
78
78
F0
20
ENDCHAR
STARTCHAR 02C6
ENCODING 710
SWIDTH 488 0
DWIDTH 19 0
BBX 10 7 9 20
BITMAP
0200
0E00
1F00
3F80
7BC0
F1C0
6080
ENDCHAR
STARTCHAR 02C7
ENCODING 711
SWIDTH 488 0
DWIDTH 19 0
BBX 10 7 10 20
BITMAP
4080
E3C0
F7C0
7F80
3E00
1C00
1800
ENDCHAR
STARTCHAR 02C9
ENCODING 713
SWIDTH 488 0
DWIDTH 19 0
BBX 11 3 9 22
BITMAP
FFE0
FFE0
FFE0
ENDCHAR
STARTCHAR 02D8
ENCODING 728
SWIDTH 488 0
DWIDTH 19 0
BBX 11 6 9 21
BITMAP
70E0
F0E0
F1E0
7FC0
7FC0
3F00
ENDCHAR
STARTCHAR 02D9
ENCODING 729
SWIDTH 488 0
DWIDTH 19 0
BBX 5 5 12 21
BITMAP
F0
F8
F8
F8
F0
ENDCHAR
STARTCHAR 02DA
ENCODING 730
SWIDTH 488 0
DWIDTH 19 0
BBX 9 8 10 20
BITMAP
3E00
7F00
7380
E380
6380
7F00
3F00
1C00
ENDCHAR
STARTCHAR 02DB
ENCODING 731
SWIDTH 488 0
DWIDTH 19 0
BBX 9 8 4 -7
BITMAP
0F80
1E00
7C00
F800
F800
FE00
FE00
3800
ENDCHAR
STARTCHAR 02DC
ENCODING 732
SWIDTH 488 0
DWIDTH 19 0
BBX 12 5 8 21
BITMAP
3C20
7FF0
FFF0
FFE0
63C0
ENDCHAR
STARTCHAR 02DD
ENCODING 733
SWIDTH 488 0
DWIDTH 19 0
BBX 15 7 7 20
BITMAP
0400
0C1C
3E3E
7E7E
FCF8
F0F0
6040
ENDCHAR
STARTCHAR 0311
ENCODING 785
SWIDTH 488 0
DWIDTH 19 0
BBX 11 6 8 20
BITMAP
1F80
3FC0
7FE0
79E0
F0E0
F0E0
ENDCHAR
STARTCHAR 0384
ENCODING 900
SWIDTH 488 0
DWIDTH 19 0
BBX 7 8 11 20
BITMAP
0C
1E
3E
3C
78
F0
F0
60
ENDCHAR
STARTCHAR 0385
ENCODING 901
SWIDTH 488 0
DWIDTH 19 0
BBX 17 8 6 20
BITMAP
004000
00E000
78E700
F9EF00
FBDF80
FB8F00
770E00
010000
ENDCHAR
STARTCHAR 0386
ENCODING 902
SWIDTH 488 0
DWIDTH 19 0
BBX 19 25 0 1
BITMAP
038000
07CF80
079F80
0F9F80
0F3FC0
0F7FC0
1E7BC0
04FBC0
00F3C0
01F3C0
01E3C0
03E3C0
03C3C0
07C3C0
0783C0
0F83C0
0FFFC0
1FFFC0
1FFFC0
3E03C0
3E03C0
7C03E0
7C03E0
F803E0
F803E0
ENDCHAR
STARTCHAR 0388
ENCODING 904
SWIDTH 488 0
DWIDTH 19 0
BBX 23 25 -1 1
BITMAP
1C0000
3E7FFE
3CFFFE
7CFFFC
78FFFC
78F800
F1F000
21F000
01F000
01F000
01FFF0
03FFE0
03FFE0
03FFE0
03C000
07C000
07C000
07C000
078000
0F8000
0F8000
0FFFE0
0FFFE0
1FFFE0
1FFFC0
ENDCHAR
STARTCHAR 0389
ENCODING 905
SWIDTH 488 0
DWIDTH 19 0
BBX 25 25 -2 1
BITMAP
1C000000
3E780F80
3CF80F00
7CF81F00
78F81F00
F0F81F00
F1F01E00
21F03E00
01F03E00
01F03E00
03FFFE00
03FFFC00
03FFFC00
03FFFC00
03C07C00
07C0F800
07C0F800
07C0F800
0780F800
0F80F000
0F81F000
0F81F000
0F01F000
1F01E000
1F03E000
ENDCHAR
STARTCHAR 038A
ENCODING 906
SWIDTH 488 0
DWIDTH 19 0
BBX 24 26 -2 0
BITMAP
100000
1C0000
1E7FFF
3E7FFF
3CFFFF
78FFFF
7807C0
F007C0
3007C0
000780
000F80
000F80
000F80
000F00
001F00
001F00
001F00
001E00
003E00
003E00
003E00
003E00
0FFFE0
0FFFE0
0FFFE0
1FFFE0
ENDCHAR
STARTCHAR 038C
ENCODING 908
SWIDTH 488 0
DWIDTH 19 0
BBX 21 26 0 0
BITMAP
3C0700
3E3FC0
3CFFE0
79FFF0
7BFFF0
F3E0F8
F7C0F8
27C0F8
0F80F8
0F80F8
0F80F8
1F00F8
1F00F8
1F00F0
1F01F0
1F01F0
1E01F0
1E03E0
1E03E0
1F07C0
1F0FC0
1FFF80
0FFF00
0FFE00
03FC00
004000
ENDCHAR
STARTCHAR 038E
ENCODING 910
SWIDTH 488 0
DWIDTH 19 0
BBX 27 26 -3 0
BITMAP
10000000
1C000000
3E7803E0
3C7807C0
7C7C0F80
787C0F80
787C1F00
F07C1F00
203C3E00
003C7C00
003E7800
003EF800
001FF000
001FE000
001FE000
001FC000
000F8000
000F8000
001F0000
001F0000
001F0000
001F0000
003E0000
003E0000
003E0000
003E0000
ENDCHAR
STARTCHAR 038F
ENCODING 911
SWIDTH 488 0
DWIDTH 19 0
BBX 22 26 -1 0
BITMAP
100000
1C0300
3E3FE0
3C7FF8
3CFFF8
79FFFC
7BF07C
F3E07C
37C03C
07C03C
07803C
0F803C
0F807C
0F807C
0F807C
0F0078
0F00F8
0F80F0
0F81F0
0F83E0
0783C0
078780
3FCFF0
3FCFF0
7F9FF0
7F9FE0
ENDCHAR
STARTCHAR 0390
ENCODING 912
SWIDTH 488 0
DWIDTH 19 0
BBX 19 28 4 0
BITMAP
001000
003800
1E39C0
3E7BC0
3EF7E0
3EE3C0
1DC380
004000
000000
000000
7FE000
7FE000
7FC000
FFC000
07C000
07C000
07C000
0F8000
0F8000
0F8000
0F8000
0F0000
1F0000
1F8000
1FFC00
0FFC00
0FFC00
07FC00
ENDCHAR
STARTCHAR 0391
ENCODING 913
SWIDTH 488 0
DWIDTH 19 0
BBX 19 24 0 0
BITMAP
000F80
001F80
001F80
003FC0
007FC0
007BC0
00FBC0
00F3C0
01F3C0
01E3C0
03E3C0
03C3C0
07C3C0
0783C0
0F83C0
0FFFC0
1FFFC0
1FFFC0
3E03C0
3E03C0
7C03E0
7C03E0
F803E0
F803E0
ENDCHAR
STARTCHAR 0392
ENCODING 914
SWIDTH 488 0
DWIDTH 19 0
BBX 19 24 2 0
BITMAP
07FF00
07FF80
07FFC0
0FFFE0
0F83E0
0F83E0
0F03E0
1F03C0
1F07C0
1F3F80
1FFF00
3FFE00
3FFF00
3E3F80
3C0F80
7C07C0
7C07C0
7C0780
780F80
F81F80
FFFF00
FFFE00
FFFC00
FFF000
ENDCHAR
STARTCHAR 0393
ENCODING 915
SWIDTH 488 0
DWIDTH 19 0
BBX 22 24 1 0
BITMAP
007FFC
00FFFC
00FFFC
00FFFC
00F800
01F000
01F000
01F000
01F000
03E000
03E000
03E000
03E000
03C000
07C000
07C000
07C000
078000
0F8000
0F8000
FFFC00
FFFC00
FFF800
FFF800
ENDCHAR
STARTCHAR 0394
ENCODING 916
SWIDTH 488 0
DWIDTH 19 0
BBX 18 24 0 0
BITMAP
000F80
001F80
001F80
003FC0
007FC0
007BC0
00FBC0
00F3C0
01F3C0
01E3C0
03E3C0
03C3C0
07C3C0
0783C0
0F83C0
0F03C0
1F03C0
1E03C0
3E03C0
3C03C0
7FFFC0
7FFFC0
FFFFC0
FFFFC0
ENDCHAR
STARTCHAR 0395
ENCODING 917
SWIDTH 488 0
DWIDTH 19 0
BBX 20 24 2 0
BITMAP
03FFF0
07FFF0
07FFE0
07FFE0
07C000
0F8000
0F8000
0F8000
0F8000
0FFF80
1FFF00
1FFF00
1FFF00
1E0000
3E0000
3E0000
3E0000
3C0000
7C0000
7C0000
7FFF00
7FFF00
FFFF00
FFFE00
ENDCHAR
STARTCHAR 0396
ENCODING 918
SWIDTH 488 0
DWIDTH 19 0
BBX 21 24 1 0
BITMAP
03FFF8
03FFF8
03FFF8
07FFF0
0003F0
0007E0
0007C0
000F80
001F00
003E00
007C00
00FC00
01F800
01F000
03E000
07C000
0F8000
1F8000
1F0000
3E0000
7FFF80
7FFF80
FFFF00
FFFF00
ENDCHAR
STARTCHAR 0397
ENCODING 919
SWIDTH 488 0
DWIDTH 19 0
BBX 22 24 1 0
BITMAP
03C07C
07C078
07C0F8
07C0F8
07C0F8
0F80F0
0F81F0
0F81F0
0F81F0
1FFFF0
1FFFE0
1FFFE0
1FFFE0
1E03E0
3E07C0
3E07C0
3E07C0
3C07C0
7C0780
7C0F80
7C0F80
780F80
F80F00
F81F00
ENDCHAR
STARTCHAR 0398
ENCODING 920
SWIDTH 488 0
DWIDTH 19 0
BBX 18 26 3 -1
BITMAP
003800
01FE00
07FF00
0FFF80
0FFF80
1F07C0
3E07C0
3E07C0
7C03C0
7C07C0
7807C0
FBF7C0
FBF7C0
FBF780
F3E780
F00F80
F00F80
F00F00
F01F00
F03E00
F87E00
FFFC00
7FF800
7FF000
1FE000
020000
ENDCHAR
STARTCHAR 0399
ENCODING 921
SWIDTH 488 0
DWIDTH 19 0
BBX 21 24 1 0
BITMAP
03FFF8
03FFF8
07FFF8
07FFF8
003E00
003E00
003E00
003C00
007C00
007C00
007C00
007800
00F800
00F800
00F800
00F000
01F000
01F000
01F000
01F000
7FFF00
7FFF00
7FFF00
FFFF00
ENDCHAR
STARTCHAR 039A
ENCODING 922
SWIDTH 488 0
DWIDTH 19 0
BBX 22 24 1 0
BITMAP
03E07C
03C0F8
07C1F0
07C3F0
07C7E0
0787C0
0F8F80
0F9F00
0FBE00
0F7C00
1FF800
1FF000
1FF800
1FFC00
3E7C00
3E7E00
3E3E00
3E3F00
3C1F00
7C1F00
7C0F80
7C0F80
780F80
F807C0
ENDCHAR
STARTCHAR 039B
ENCODING 923
SWIDTH 488 0
DWIDTH 19 0
BBX 19 24 0 0
BITMAP
000F80
001F80
001F80
003FC0
007FC0
007FC0
00FBC0
00F3C0
01F3C0
01E3C0
03E3C0
03C3C0
07C3C0
0783C0
0F83C0
0F03C0
1F03C0
1E03C0
3E03C0
3E03C0
7C03E0
7C03E0
F803E0
F803E0
ENDCHAR
STARTCHAR 039C
ENCODING 924
SWIDTH 488 0
DWIDTH 19 0
BBX 22 24 0 0
BITMAP
01E03C
01E07C
03F07C
03F0FC
03F0FC
07F1FC
07F1F8
0773B8
0773F8
0F7778
0F7778
0F7E70
1E7EF0
1E7CF0
1E38F0
1E00F0
3C01E0
3C01E0
3C01E0
7C01E0
7803E0
7803C0
7803C0
F803C0
ENDCHAR
STARTCHAR 039D
ENCODING 925
SWIDTH 488 0
DWIDTH 19 0
BBX 22 24 1 0
BITMAP
03C07C
07C078
07E078
07E078
07E0F8
0FF0F0
0FF0F0
0F70F0
0F71F0
1F79E0
1E79E0
1E39E0
1E39E0
1E3BE0
3E3FC0
3C3FC0
3C1FC0
3C1FC0
7C1F80
781F80
781F80
780F80
F80F00
F00F00
ENDCHAR
STARTCHAR 039E
ENCODING 926
SWIDTH 488 0
DWIDTH 19 0
BBX 22 24 1 0
BITMAP
07FFFC
07FFFC
07FFF8
07FFF8
000000
000000
000000
000000
000000
07FFC0
0FFFC0
0FFFC0
0FFFC0
000000
000000
000000
000000
000000
000000
000000
7FFF80
FFFF80
FFFF80
FFFF00
ENDCHAR
STARTCHAR 039F
ENCODING 927
SWIDTH 488 0
DWIDTH 19 0
BBX 18 26 3 -1
BITMAP
003800
01FE00
07FF00
0FFF80
1FFF80
1F07C0
3E07C0
3E07C0
7C07C0
7C07C0
7C07C0
F807C0
F807C0
F80780
F80F80
F80F80
F00F80
F01F00
F01F00
F83E00
F87E00
FFFC00
7FF800
7FF000
1FE000
020000
ENDCHAR
STARTCHAR 03A0
ENCODING 928
SWIDTH 488 0
DWIDTH 19 0
BBX 22 24 1 0
BITMAP
03FFFC
07FFF8
07FFF8
07FFF8
07C0F8
0F80F0
0F81F0
0F81F0
0F81F0
0F01E0
1F03E0
1F03E0
1F03E0
1E03C0
3E07C0
3E07C0
3E07C0
3C07C0
7C0F80
7C0F80
7C0F80
780F80
F80F00
F81F00
ENDCHAR
STARTCHAR 03A1
ENCODING 929
SWIDTH 488 0
DWIDTH 19 0
BBX 20 24 2 0
BITMAP
07FF00
07FFC0
07FFE0
0FFFE0
0F83E0
0F83F0
0F01F0
1F01F0
1F01E0
1F03E0
1F07E0
3E3FC0
3FFF80
3FFF00
3FFC00
3FE000
7C0000
7C0000
7C0000
780000
F80000
F80000
F80000
F00000
ENDCHAR
STARTCHAR 03A3
ENCODING 931
SWIDTH 488 0
DWIDTH 19 0
BBX 22 24 1 0
BITMAP
03FFFC
07FFFC
07FFFC
07FFF8
03E000
01E000
01F000
00F800
00F800
007C00
003C00
003E00
007E00
00FC00
01F800
03F000
07E000
0FC000
1F0000
3E0000
7FFF80
FFFF80
FFFF80
FFFF80
ENDCHAR
STARTCHAR 03A4
ENCODING 932
SWIDTH 488 0
DWIDTH 19 0
BBX 18 24 5 0
BITMAP
7FFFC0
7FFFC0
FFFFC0
FFFFC0
03E000
03E000
03E000
07C000
07C000
07C000
07C000
078000
0F8000
0F8000
0F8000
0F0000
1F0000
1F0000
1F0000
1E0000
3E0000
3E0000
3E0000
3C0000
ENDCHAR
STARTCHAR 03A5
ENCODING 933
SWIDTH 488 0
DWIDTH 19 0
BBX 18 24 6 0
BITMAP
F007C0
F00F80
F81F00
F81F00
F83E00
F83E00
787C00
78F800
7CF000
7DF000
3FE000
3FC000
3FC000
3F8000
1F0000
1F0000
3E0000
3E0000
3E0000
3E0000
7C0000
7C0000
7C0000
7C0000
ENDCHAR
STARTCHAR 03A6
ENCODING 934
SWIDTH 488 0
DWIDTH 19 0
BBX 18 26 3 0
BITMAP
003C00
003C00
003800
01FE00
07FF00
0FFF80
1F7FC0
3EF3C0
3CF3C0
78F3C0
78F3C0
F1E3C0
F1E3C0
F1E3C0
F1E3C0
F1C780
F3C780
F3CF80
F3DF00
FBBE00
7FFC00
7FF800
1FF000
070000
0F0000
0F0000
ENDCHAR
STARTCHAR 03A7
ENCODING 935
SWIDTH 488 0
DWIDTH 19 0
BBX 23 24 0 0
BITMAP
03E03E
03E03E
01F07C
01F0F8
00F1F0
00F9F0
00FBE0
007FC0
007F80
003F00
003F00
003E00
007F00
00FF00
01FF00
01FF80
03EF80
07CF80
0F8780
1F87C0
1F07C0
3E07C0
7E07C0
FC03C0
ENDCHAR
STARTCHAR 03A8
ENCODING 936
SWIDTH 488 0
DWIDTH 19 0
BBX 20 24 3 0
BITMAP
1E00F0
1E00F0
3C00F0
3C00E0
3C01E0
3C01E0
78F1E0
78F1E0
78F3C0
79E3C0
71E3C0
F1E7C0
F1E780
71CF80
7BDF00
7FFF00
3FFE00
1FF800
078000
078000
078000
070000
0F0000
0F0000
ENDCHAR
STARTCHAR 03A9
ENCODING 937
SWIDTH 488 0
DWIDTH 19 0
BBX 21 25 0 0
BITMAP
000600
007FC0
00FFF0
01FFF0
03FFF8
07E0F8
07C0F8
0F8078
0F8078
0F0078
1F0078
1F00F8
1F00F8
1F00F8
1E00F0
1E01F0
1F01E0
1F03E0
1F07C0
0F0780
0F0F00
7F9FE0
7F9FE0
FF3FE0
FF3FC0
ENDCHAR
STARTCHAR 03AA
ENCODING 938
SWIDTH 488 0
DWIDTH 19 0
BBX 21 32 1 0
BITMAP
001020
0078F8
00F8F8
00F8F8
00F8F0
006060
000000
000000
03FFF8
03FFF8
07FFF8
07FFF8
003E00
003E00
003E00
003C00
007C00
007C00
007C00
007800
00F800
00F800
00F800
00F000
01F000
01F000
01F000
01F000
7FFF00
7FFF00
7FFF00
FFFF00
ENDCHAR
STARTCHAR 03AB
ENCODING 939
SWIDTH 488 0
DWIDTH 19 0
BBX 18 32 6 0
BITMAP
020400
0F1F00
1F1F00
1F1F00
1F1E00
0C0C00
000000
000000
F007C0
F00F80
F81F00
F81F00
F83E00
F83E00
787C00
78F800
7CF000
7DF000
3FE000
3FC000
3FC000
3F8000
1F0000
1F0000
3E0000
3E0000
3E0000
3E0000
7C0000
7C0000
7C0000
7C0000
ENDCHAR
STARTCHAR 03AC
ENCODING 940
SWIDTH 488 0
DWIDTH 19 0
BBX 18 28 2 0
BITMAP
000180
0003C0
0007C0
000780
000F80
001F00
001E00
000C00
000000
003C00
01FFC0
07FFC0
0FFFC0
1FCFC0
3F0780
3E0F80
7C0F80
7C0F80
7C0F00
781F00
F81F00
F81F00
781F00
7C3F00
7FFF80
7FFF80
3FFF00
1FCF00
ENDCHAR
STARTCHAR 03AD
ENCODING 941
SWIDTH 488 0
DWIDTH 19 0
BBX 17 29 3 -1
BITMAP
000300
000780
000F80
000F00
001F00
003E00
003C00
001800
000000
00FC00
07FF80
1FFF80
1FFF80
3F8300
3E0000
3E0000
3E0000
1FF800
1FF800
3FF000
7F0000
F80000
F80000
F80000
FF7E00
FFFE00
7FFE00
3FFC00
010000
ENDCHAR
STARTCHAR 03AE
ENCODING 942
SWIDTH 488 0
DWIDTH 19 0
BBX 18 34 2 -6
BITMAP
000180
0003C0
0007C0
000780
000F80
001F00
001E00
000C00
000000
007000
0FFE00
0FFF00
1FFF80
1FBF80
1F0F80
1E0F80
3E0F80
3E0F80
3E0F80
3E0F80
3C1F00
7C1F00
7C1F00
7C1F00
783E00
F83E00
F83E00
F83E00
003C00
007C00
007C00
007C00
007800
00F800
ENDCHAR
STARTCHAR 03AF
ENCODING 943
SWIDTH 488 0
DWIDTH 19 0
BBX 15 28 4 0
BITMAP
0008
001C
003E
007C
00F8
00F0
01E0
0040
0000
0000
7FE0
7FE0
7FC0
FFC0
07C0
07C0
07C0
0F80
0F80
0F80
0F80
0F00
1F00
1F80
1FFC
0FFC
0FFC
07FC
ENDCHAR
STARTCHAR 03B0
ENCODING 944
SWIDTH 488 0
DWIDTH 19 0
BBX 20 29 3 -1
BITMAP
000800
001C00
0F1CE0
1F3DE0
1F7BF0
1F71E0
0EE1C0
002000
000000
000000
1E07C0
3E0F80
3E0F80
3E0F80
3E0F80
7C0F00
7C1F00
7C1F00
7C1F00
781E00
F83E00
F83E00
F83E00
F87C00
FFFC00
7FF800
7FF000
3FE000
060000
ENDCHAR
STARTCHAR 03B1
ENCODING 945
SWIDTH 488 0
DWIDTH 19 0
BBX 18 19 2 0
BITMAP
003C00
01FFC0
07FFC0
0FFFC0
1FCFC0
3F0780
3E0F80
7C0F80
7C0F80
7C0F00
781F00
F81F00
F81F00
781F00
7C3F00
7FFF80
7FFF80
3FFF00
1FCF00
ENDCHAR
STARTCHAR 03B2
ENCODING 946
SWIDTH 488 0
DWIDTH 19 0
BBX 21 33 0 -6
BITMAP
000F80
003FE0
00FFF0
00FFF0
01F9F8
01F0F8
03E0F8
03E0F0
03C1F0
07C1F0
07C3E0
07DFC0
079F00
0F9FC0
0F9FE0
0F83E0
0F03E0
1F01E0
1F01F0
1F01E0
1E03E0
3E03E0
3E0FC0
3FFFC0
3FFF80
7FFF00
7FFC00
7C0000
7C0000
780000
F80000
F80000
F80000
ENDCHAR
STARTCHAR 03B3
ENCODING 947
SWIDTH 488 0
DWIDTH 19 0
BBX 17 24 4 -6
BITMAP
F80F80
7C0F80
7C0F80
7C1F00
7C1F00
7C3E00
7C3E00
7C3E00
7C7C00
7CF800
7CF800
3DF000
3FE000
3FE000
3FC000
3F8000
3F0000
3E0000
3C0000
7C0000
7C0000
7C0000
7C0000
7C0000
ENDCHAR
STARTCHAR 03B4
ENCODING 948
SWIDTH 488 0
DWIDTH 19 0
BBX 18 28 3 -1
BITMAP
007F00
01FFC0
03FFC0
07FF80
07C180
07C000
07C000
07C000
03E000
03F000
07F800
0FFC00
1FFE00
3E3E00
7C1F00
781F00
F81F00
F81F00
F01F00
F01F00
F01F00
F81F00
F83E00
FFFC00
7FFC00
7FF800
1FE000
020000
ENDCHAR
STARTCHAR 03B5
ENCODING 949
SWIDTH 488 0
DWIDTH 19 0
BBX 17 20 3 -1
BITMAP
00FC00
07FF80
1FFF80
1FFF80
3F8300
3E0000
3E0000
3E0000
1FF800
1FF800
3FF000
7F0000
F80000
F80000
F80000
FF7E00
FFFE00
7FFE00
3FFC00
010000
ENDCHAR
STARTCHAR 03B6
ENCODING 950
SWIDTH 488 0
DWIDTH 19 0
BBX 19 33 4 -7
BITMAP
07FFE0
0FFFE0
0FFFC0
0FFFC0
000FC0
001F00
007E00
00FC00
01F800
03E000
07C000
0F8000
1F0000
3F0000
3E0000
7C0000
7C0000
F80000
F80000
F80000
F80000
FC0000
FE0000
FFC000
7FF000
1FFC00
07FC00
00FC00
007C00
007C00
007800
00F800
007000
ENDCHAR
STARTCHAR 03B7
ENCODING 951
SWIDTH 488 0
DWIDTH 19 0
BBX 17 25 2 -6
BITMAP
007000
0FFE00
0FFF00
1FFF80
1FBF80
1F0F80
1E0F80
3E0F80
3E0F80
3E0F80
3E0F80
3C1F00
7C1F00
7C1F00
7C1F00
783E00
F83E00
F83E00
F83E00
003C00
007C00
007C00
007C00
007800
00F800
ENDCHAR
STARTCHAR 03B8
ENCODING 952
SWIDTH 488 0
DWIDTH 19 0
BBX 18 28 3 -1
BITMAP
007C00
01FF00
03FF80
07FF80
0FCFC0
1F07C0
1F07C0
3E03C0
3E03C0
3C03C0
7C03C0
7C07C0
7FFFC0
7FFFC0
FFFFC0
FFFF80
F80F80
F80F80
F80F00
F81F00
F81F00
F83E00
F87E00
7FFC00
7FF800
3FF000
1FC000
020000
ENDCHAR
STARTCHAR 03B9
ENCODING 953
SWIDTH 488 0
DWIDTH 19 0
BBX 14 18 4 0
BITMAP
7FE0
7FE0
7FC0
FFC0
07C0
07C0
07C0
0F80
0F80
0F80
0F80
0F00
1F00
1F80
1FFC
0FFC
0FFC
07FC
ENDCHAR
STARTCHAR 03BA
ENCODING 954
SWIDTH 488 0
DWIDTH 19 0
BBX 20 18 2 0
BITMAP
0F83F0
0F87C0
0F8FC0
0F1F80
1F3F00
1F7C00
1FF800
1FF000
3FF000
3FF000
3EF800
3CFC00
7C7C00
7C3E00
7C3E00
7C3F00
F81F00
F81F00
ENDCHAR
STARTCHAR 03BB
ENCODING 955
SWIDTH 488 0
DWIDTH 19 0
BBX 17 27 1 0
BITMAP
03E000
03F800
03F800
07FC00
007C00
003C00
003E00
003E00
003E00
003E00
007E00
00FF00
00FF00
01FF00
03FF00
03DF00
07DF00
0F8F00
0F8F00
1F0F00
1F0F80
3E0F80
3E0F80
7C0F80
7C0F80
F80F80
F80F80
ENDCHAR
STARTCHAR 03BC
ENCODING 956
SWIDTH 488 0
DWIDTH 19 0
BBX 20 24 0 -6
BITMAP
03E0F0
03C1F0
07C1F0
07C1F0
07C1E0
0783E0
0F83E0
0F83E0
0F83C0
0F07C0
1F07C0
1F07C0
1F07C0
1F0FC0
3FFFE0
3FFFE0
3FFFC0
3FF3C0
7C0000
7C0000
7C0000
780000
F80000
F80000
ENDCHAR
STARTCHAR 03BD
ENCODING 957
SWIDTH 488 0
DWIDTH 19 0
BBX 17 18 4 0
BITMAP
F80F80
F80F80
F81F00
F81F00
F81F00
783E00
783E00
7C7C00
7C7800
7CF800
7DF000
7DF000
3FE000
3FC000
3FC000
3F8000
3F0000
1E0000
ENDCHAR
STARTCHAR 03BE
ENCODING 958
SWIDTH 488 0
DWIDTH 19 0
BBX 20 33 3 -7
BITMAP
001FC0
00FFF0
01FFE0
03FFE0
07F040
07C000
07C000
078000
078000
07C000
07F000
03FF00
01FF00
07FF00
1FFE00
3F0000
7E0000
7C0000
F80000
F80000
F80000
FC0000
FE0000
7FC000
3FF800
1FFC00
07FC00
00FE00
003E00
003C00
007C00
00F800
007000
ENDCHAR
STARTCHAR 03BF
ENCODING 959
SWIDTH 488 0
DWIDTH 19 0
BBX 17 20 3 -1
BITMAP
00F000
07FC00
0FFE00
1FFF00
3F3F00
7E1F80
7C0F80
F80F80
F80F80
F80F00
F00F00
F01F00
F01F00
F83E00
F87E00
FFFC00
FFF800
7FF000
3FE000
040000
ENDCHAR
STARTCHAR 03C0
ENCODING 960
SWIDTH 488 0
DWIDTH 19 0
BBX 19 18 2 0
BITMAP
0FFFE0
0FFFC0
1FFFC0
1FFFC0
1F07C0
1F0780
3E0F80
3E0F80
3E0F80
3E0F00
3C1F00
7C1F00
7C1F00
7C1E00
783E00
F83E00
F83E00
F83C00
ENDCHAR
STARTCHAR 03C1
ENCODING 961
SWIDTH 488 0
DWIDTH 19 0
BBX 20 25 0 -6
BITMAP
001C00
00FF80
01FFC0
03FFE0
07F7E0
07C3E0
0F81E0
0F81F0
0F81E0
0F01E0
1F03E0
1F03E0
1F03E0
1E07C0
3E0FC0
3FFF80
3FFF00
3FFE00
7FF800
7C0000
7C0000
7C0000
F80000
F80000
F80000
ENDCHAR
STARTCHAR 03C2
ENCODING 962
SWIDTH 488 0
DWIDTH 19 0
BBX 18 25 3 -7
BITMAP
003C00
01FFC0
07FF80
0FFF80
1FE780
3F0000
3E0000
7C0000
7C0000
F80000
F80000
F80000
F80000
FC0000
7E0000
7FC000
3FF800
1FFC00
07FC00
00FC00
007C00
007C00
007800
00F800
007000
ENDCHAR
STARTCHAR 03C3
ENCODING 963
SWIDTH 488 0
DWIDTH 19 0
BBX 19 18 3 -1
BITMAP
03FFE0
0FFFE0
1FFFE0
3FFFE0
7E1E00
7C1F00
F81F00
F81F00
F81F00
F01F00
F01F00
F03E00
F83E00
F87C00
FFFC00
7FF800
7FF000
3FC000
ENDCHAR
STARTCHAR 03C4
ENCODING 964
SWIDTH 488 0
DWIDTH 19 0
BBX 17 18 4 0
BITMAP
FFFF80
FFFF80
FFFF00
FFFF00
0F8000
0F0000
1F0000
1F0000
1F0000
1E0000
3E0000
3E0000
3E0000
3E0400
3FFC00
3FFC00
1FFC00
0FF800
ENDCHAR
STARTCHAR 03C5
ENCODING 965
SWIDTH 488 0
DWIDTH 19 0
BBX 18 19 3 -1
BITMAP
1E07C0
3E0F80
3E0F80
3E0F80
3E0F80
7C0F00
7C1F00
7C1F00
7C1F00
781E00
F83E00
F83E00
F83E00
F87C00
FFFC00
7FF800
7FF000
3FE000
060000
ENDCHAR
STARTCHAR 03C6
ENCODING 966
SWIDTH 488 0
DWIDTH 19 0
BBX 19 25 2 -6
BITMAP
007000
03FF00
0FFF80
1FFF80
3E77C0
3CF3C0
78F3C0
78F1C0
F0F3E0
F1E3C0
F1E3C0
F1E3C0
F1E3C0
F3C780
FBCF80
7FFF00
7FFE00
3FFC00
0FF000
078000
078000
070000
0F0000
0F0000
0F0000
ENDCHAR
STARTCHAR 03C7
ENCODING 967
SWIDTH 488 0
DWIDTH 19 0
BBX 20 18 1 0
BITMAP
0F81F0
0F83E0
07C7C0
07C7C0
03CF80
03FF00
01FE00
01FC00
00F800
01FC00
03FC00
07FE00
0FBE00
1FBE00
1F1F00
3E1F00
7C0F80
F80F80
ENDCHAR
STARTCHAR 03C8
ENCODING 968
SWIDTH 488 0
DWIDTH 19 0
BBX 20 24 2 -6
BITMAP
1C00F0
3C00E0
3C01E0
3C01E0
3CF1E0
38F1C0
78F3C0
78E3C0
79E3C0
71E380
F1E780
F1C780
F3C780
F3CF00
FBDF00
7FFE00
7FFC00
3FF800
078000
070000
0F0000
0F0000
0F0000
0E0000
ENDCHAR
STARTCHAR 03C9
ENCODING 969
SWIDTH 488 0
DWIDTH 19 0
BBX 19 19 1 0
BITMAP
020040
0783C0
0783E0
0F01E0
1F01E0
1E01E0
3C01E0
3C01E0
7C71E0
78F1E0
78F1E0
78F1E0
78F1E0
F9E3E0
F9F3C0
FFFFC0
7FFFC0
7F7F80
3E3F00
ENDCHAR
STARTCHAR 03CA
ENCODING 970
SWIDTH 488 0
DWIDTH 19 0
BBX 17 26 4 0
BITMAP
078700
0F8F80
0F8F80
0F8F80
070F00
000000
000000
000000
7FE000
7FE000
7FC000
FFC000
07C000
07C000
07C000
0F8000
0F8000
0F8000
0F8000
0F0000
1F0000
1F8000
1FFC00
0FFC00
0FFC00
07FC00
ENDCHAR
STARTCHAR 03CB
ENCODING 971
SWIDTH 488 0
DWIDTH 19 0
BBX 18 27 3 -1
BITMAP
078780
07CF80
0FCF80
078F80
070700
000000
000000
000000
1E07C0
3E0F80
3E0F80
3E0F80
3E0F80
7C0F00
7C1F00
7C1F00
7C1F00
781E00
F83E00
F83E00
F83E00
F87C00
FFFC00
7FF800
7FF000
3FE000
060000
ENDCHAR
STARTCHAR 03CC
ENCODING 972
SWIDTH 488 0
DWIDTH 19 0
BBX 17 29 3 -1
BITMAP
000300
000780
000F80
000F00
001F00
003E00
003C00
001800
000000
00F000
07FC00
0FFE00
1FFF00
3F3F00
7E1F80
7C0F80
F80F80
F80F80
F80F00
F00F00
F01F00
F01F00
F83E00
F87E00
FFFC00
FFF800
7FF000
3FE000
040000
ENDCHAR
STARTCHAR 03CD
ENCODING 973
SWIDTH 488 0
DWIDTH 19 0
BBX 18 29 3 -1
BITMAP
000400
000E00
001F00
003E00
007C00
007800
00F000
002000
000000
000000
1E07C0
3E0F80
3E0F80
3E0F80
3E0F80
7C0F00
7C1F00
7C1F00
7C1F00
781E00
F83E00
F83E00
F83E00
F87C00
FFFC00
7FF800
7FF000
3FE000
060000
ENDCHAR
STARTCHAR 03CE
ENCODING 974
SWIDTH 488 0
DWIDTH 19 0
BBX 19 28 1 0
BITMAP
000300
000380
0007C0
000F80
001F00
003E00
003C00
000800
000000
020040
0783C0
0783E0
0F01E0
1F01E0
1E01E0
3C01E0
3C01E0
7C71E0
78F1E0
78F1E0
78F1E0
78F1E0
F9E3E0
F9F3C0
FFFFC0
7FFFC0
7F7F80
3E3F00
ENDCHAR
STARTCHAR 0400
ENCODING 1024
SWIDTH 488 0
DWIDTH 19 0
BBX 20 32 2 0
BITMAP
003000
003800
007E00
007F00
001F80
000700
000100
000000
03FFF0
07FFF0
07FFE0
07FFE0
07C000
0F8000
0F8000
0F8000
0F8000
0FFF80
1FFF00
1FFF00
1FFF00
1E0000
3E0000
3E0000
3E0000
3C0000
7C0000
7C0000
7FFF00
7FFF00
FFFF00
FFFE00
ENDCHAR
STARTCHAR 0401
ENCODING 1025
SWIDTH 488 0
DWIDTH 19 0
BBX 20 32 2 0
BITMAP
002000
00F0F0
00F9F0
01F9F0
00F1F0
0060C0
000000
000000
03FFF0
07FFF0
07FFE0
07FFE0
07C000
0F8000
0F8000
0F8000
0F8000
0FFF80
1FFF00
1FFF00
1FFF00
1E0000
3E0000
3E0000
3E0000
3C0000
7C0000
7C0000
7FFF00
7FFF00
FFFF00
FFFE00
ENDCHAR
STARTCHAR 0402
ENCODING 1026
SWIDTH 488 0
DWIDTH 19 0
BBX 17 24 3 0
BITMAP
3FFF80
3FFF80
3FFF00
3FFF00
0F8000
0F8000
0F8000
0F0000
1F0000
1FFC00
1FFE00
1FFF00
1FFF80
3E0F80
3E0F80
3C0F80
3C0F80
7C0F80
7C1F00
7C1F00
79FF00
F9FE00
F9FC00
F9F000
ENDCHAR
STARTCHAR 0403
ENCODING 1027
SWIDTH 488 0
DWIDTH 19 0
BBX 22 32 1 0
BITMAP
000020
000070
0001F8
0003F8
0007E0
000380
000200
000000
007FFC
00FFFC
00FFFC
00FFFC
00F800
01F000
01F000
01F000
01F000
03E000
03E000
03E000
03E000
03C000
07C000
07C000
07C000
078000
0F8000
0F8000
FFFC00
FFFC00
FFF800
FFF800
ENDCHAR
STARTCHAR 0404
ENCODING 1028
SWIDTH 488 0
DWIDTH 19 0
BBX 19 26 3 -1
BITMAP
000E00
00FFC0
01FFE0
03FFE0
07FFC0
0FC040
1F8000
1F0000
3E0000
3E0000
7C0000
7FFC00
7FFC00
7FF800
7FF800
F80000
F80000
F80000
F80000
7C0000
7E0400
7FFC00
3FFE00
1FFE00
0FF800
018000
ENDCHAR
STARTCHAR 0405
ENCODING 1029
SWIDTH 488 0
DWIDTH 19 0
BBX 20 26 1 -1
BITMAP
001E00
00FFE0
01FFF0
03FFE0
07F7E0
07C000
0F8000
0F8000
0F8000
0FC000
07F000
07FC00
03FE00
00FF00
007F80
001F80
000F80
000F80
000780
000F80
300F80
7FFF00
7FFF00
FFFE00
3FF800
010000
ENDCHAR
STARTCHAR 0406
ENCODING 1030
SWIDTH 488 0
DWIDTH 19 0
BBX 21 24 1 0
BITMAP
03FFF8
03FFF8
07FFF8
07FFF8
003E00
003E00
003E00
003C00
007C00
007C00
007C00
007800
00F800
00F800
00F800
00F000
01F000
01F000
01F000
01F000
7FFF00
7FFF00
7FFF00
FFFF00
ENDCHAR
STARTCHAR 0407
ENCODING 1031
SWIDTH 488 0
DWIDTH 19 0
BBX 21 32 1 0
BITMAP
001000
007878
007CF8
00FCF8
0078F8
003020
000000
000000
03FFF8
03FFF8
07FFF8
07FFF8
003E00
003E00
003E00
003C00
007C00
007C00
007C00
007800
00F800
00F800
00F800
00F000
01F000
01F000
01F000
01F000
7FFF00
7FFF00
7FFF00
FFFF00
ENDCHAR
STARTCHAR 0408
ENCODING 1032
SWIDTH 488 0
DWIDTH 19 0
BBX 20 25 2 -1
BITMAP
01FFF0
01FFE0
03FFE0
03FFE0
0003E0
0003C0
0007C0
0007C0
0007C0
000780
000F80
000F80
000F80
000F00
001F00
001F00
001F00
001E00
003E00
607E00
FFFC00
FFFC00
FFF800
3FE000
020000
ENDCHAR
STARTCHAR 0409
ENCODING 1033
SWIDTH 488 0
DWIDTH 19 0
BBX 20 24 0 -1
BITMAP
00FF80
01FF80
01FF00
01C700
01CF00
03CF00
03CF00
038E00
039F00
079FE0
079FF0
071FF0
071CF0
0F3C70
0F3C70
0E3870
1E3870
1E78F0
3C78F0
3C71E0
7873E0
F8FFC0
F0FF80
E0FF00
ENDCHAR
STARTCHAR 040A
ENCODING 1034
SWIDTH 488 0
DWIDTH 19 0
BBX 19 24 1 0
BITMAP
078F00
078F00
070E00
0F1E00
0F1E00
0F1E00
0E1C00
1E3C00
1E3C00
1FFF80
1FFFC0
1FFFE0
3C79E0
3C78E0
3870E0
38F0E0
78F1E0
78F1E0
70E1E0
70E3C0
F1E7C0
F1FF80
F1FF00
E1FC00
ENDCHAR
STARTCHAR 040B
ENCODING 1035
SWIDTH 488 0
DWIDTH 19 0
BBX 17 24 3 0
BITMAP
1FFF80
3FFF80
3FFF80
3FFF00
078000
078000
0F8000
0F8000
0F0000
0FFC00
1FFE00
1FFF00
1FFF00
1E1F00
3E0F00
3E0F00
3E1F00
3C1F00
7C1F00
7C1E00
7C3E00
783E00
F83E00
F83E00
ENDCHAR
STARTCHAR 040C
ENCODING 1036
SWIDTH 488 0
DWIDTH 19 0
BBX 22 32 1 0
BITMAP
000080
0003C0
0007E0
000FE0
001F80
001E00
000800
000000
03E07C
03C0F8
07C1F0
07C3F0
07C7E0
0787C0
0F8F80
0F9F00
0FBE00
0F7C00
1FF800
1FF000
1FF800
1FFC00
3E7C00
3E7E00
3E3E00
3E3F00
3C1F00
7C1F00
7C0F80
7C0F80
780F80
F807C0
ENDCHAR
STARTCHAR 040D
ENCODING 1037
SWIDTH 488 0
DWIDTH 19 0
BBX 22 32 1 0
BITMAP
001800
003C00
003E00
007F80
001FC0
000780
000100
000000
03C07C
07C0F8
0781F8
0781F8
0783F8
0F87F0
0F07F0
0F0FF0
0F1FF0
1F3DE0
1F39E0
1E79E0
1EF3E0
1EE3E0
3FE3C0
3FC3C0
3F83C0
3F87C0
7F0780
7E0780
7E0780
7C0F80
F80F00
F80F00
ENDCHAR
STARTCHAR 040E
ENCODING 1038
SWIDTH 488 0
DWIDTH 19 0
BBX 24 33 0 -1
BITMAP
001820
007878
003FF8
003FF0
001FE0
000F80
000000
000000
07C03F
03E03E
03E07E
03E07C
03E0FC
03E0F8
01F1F8
01F1F0
01F3E0
01F3E0
00F7C0
00FFC0
00FF80
007F00
007F00
007E00
003E00
007C00
00F800
01F800
3FF000
7FE000
7FC000
FF0000
080000
ENDCHAR
STARTCHAR 040F
ENCODING 1039
SWIDTH 488 0
DWIDTH 19 0
BBX 22 30 1 -6
BITMAP
03E07C
03C0F8
07C0F8
07C0F8
07C0F8
0780F0
0F81F0
0F81F0
0F81F0
0F01E0
1F03E0
1F03E0
1F03E0
1E03C0
3E07C0
3E07C0
3E07C0
3E0780
7C0F80
7C0F80
7FFF80
7FFF00
FFFF00
FFFF00
03C000
07C000
07C000
078000
078000
0F8000
ENDCHAR
STARTCHAR 0410
ENCODING 1040
SWIDTH 488 0
DWIDTH 19 0
BBX 19 24 0 0
BITMAP
000F80
001F80
001F80
003FC0
007FC0
007BC0
00FBC0
00F3C0
01F3C0
01E3C0
03E3C0
03C3C0
07C3C0
0783C0
0F83C0
0FFFC0
1FFFC0
1FFFC0
3E03C0
3E03C0
7C03E0
7C03E0
F803E0
F803E0
ENDCHAR
STARTCHAR 0411
ENCODING 1041
SWIDTH 488 0
DWIDTH 19 0
BBX 19 24 1 0
BITMAP
03FFE0
03FFE0
07FFE0
07FFE0
07C000
078000
0F8000
0F8000
0FF000
0FFE00
1FFF80
1FFF80
1FFFC0
1E07C0
3E07C0
3E07C0
3E07C0
3E07C0
7C0FC0
7C1F80
7FFF00
7FFF00
7FFC00
FFF000
ENDCHAR
STARTCHAR 0412
ENCODING 1042
SWIDTH 488 0
DWIDTH 19 0
BBX 19 24 2 0
BITMAP
07FF00
07FF80
07FFC0
0FFFE0
0F83E0
0F83E0
0F03E0
1F03C0
1F07C0
1F3F80
1FFF00
3FFE00
3FFF00
3E3F80
3C0F80
7C07C0
7C07C0
7C0780
780F80
F81F80
FFFF00
FFFE00
FFFC00
FFF000
ENDCHAR
STARTCHAR 0413
ENCODING 1043
SWIDTH 488 0
DWIDTH 19 0
BBX 22 24 1 0
BITMAP
007FFC
00FFFC
00FFFC
00FFFC
00F800
01F000
01F000
01F000
01F000
03E000
03E000
03E000
03E000
03C000
07C000
07C000
07C000
078000
0F8000
0F8000
FFFC00
FFFC00
FFF800
FFF800
ENDCHAR
STARTCHAR 0414
ENCODING 1044
SWIDTH 488 0
DWIDTH 19 0
BBX 23 30 -1 -6
BITMAP
001FFE
001FFE
003FFC
003FFC
003C7C
003C7C
007878
0078F8
0078F8
0078F8
00F0F0
00F0F0
01F1F0
01E1F0
01E1E0
03C1E0
03C3E0
0783E0
0F83C0
0F03C0
3FFFF0
3FFFE0
7FFFE0
7FFFE0
7803E0
7803C0
F803C0
F803C0
F007C0
F00780
ENDCHAR
STARTCHAR 0415
ENCODING 1045
SWIDTH 488 0
DWIDTH 19 0
BBX 20 24 2 0
BITMAP
03FFF0
07FFF0
07FFE0
07FFE0
07C000
0F8000
0F8000
0F8000
0F8000
0FFF80
1FFF00
1FFF00
1FFF00
1E0000
3E0000
3E0000
3E0000
3C0000
7C0000
7C0000
7FFF00
7FFF00
FFFF00
FFFE00
ENDCHAR
STARTCHAR 0416
ENCODING 1046
SWIDTH 488 0
DWIDTH 19 0
BBX 24 24 0 0
BITMAP
03878F
03C70E
03CF1E
03CF3C
03CF3C
03CE78
01DE70
01DEF0
01DFE0
01FDC0
00FFC0
01FF80
03FF80
03BB80
07FBC0
0F7BC0
0E7BC0
1E79C0
3C71C0
3CF1C0
78F1E0
78F1E0
F0E1E0
F1E1E0
ENDCHAR
STARTCHAR 0417
ENCODING 1047
SWIDTH 488 0
DWIDTH 19 0
BBX 20 26 0 -1
BITMAP
000400
01FFC0
03FFE0
03FFF0
01FFF0
0101F0
0000F0
0000F0
0001F0
0003E0
001FE0
01FF80
01FF00
03FF80
03FFC0
0007E0
0003E0
0003E0
0003E0
0007E0
300FC0
3FFFC0
7FFF80
FFFF00
3FFC00
018000
ENDCHAR
STARTCHAR 0418
ENCODING 1048
SWIDTH 488 0
DWIDTH 19 0
BBX 22 24 1 0
BITMAP
03C07C
07C0F8
0781F8
0781F8
0783F8
0F87F0
0F07F0
0F0FF0
0F1FF0
1F3DE0
1F39E0
1E79E0
1EF3E0
1EE3E0
3FE3C0
3FC3C0
3F83C0
3F87C0
7F0780
7E0780
7E0780
7C0F80
F80F00
F80F00
ENDCHAR
STARTCHAR 0419
ENCODING 1049
SWIDTH 488 0
DWIDTH 19 0
BBX 22 32 1 0
BITMAP
001820
007878
007FF8
003FF0
001FE0
000F80
000000
000000
03C07C
07C0F8
0781F8
0781F8
0783F8
0F87F0
0F07F0
0F0FF0
0F1FF0
1F3DE0
1F39E0
1E79E0
1EF3E0
1EE3E0
3FE3C0
3FC3C0
3F83C0
3F87C0
7F0780
7E0780
7E0780
7C0F80
F80F00
F80F00
ENDCHAR
STARTCHAR 041A
ENCODING 1050
SWIDTH 488 0
DWIDTH 19 0
BBX 22 24 1 0
BITMAP
03E07C
03C0F8
07C1F0
07C3F0
07C7E0
0787C0
0F8F80
0F9F00
0FBE00
0F7C00
1FF800
1FF000
1FF800
1FFC00
3E7C00
3E7E00
3E3E00
3E3F00
3C1F00
7C1F00
7C0F80
7C0F80
780F80
F807C0
ENDCHAR
STARTCHAR 041B
ENCODING 1051
SWIDTH 488 0
DWIDTH 19 0
BBX 23 24 0 0
BITMAP
003FFE
003FFE
003FFC
007FFC
00787C
00787C
007878
00F8F8
00F0F8
00F0F8
00F0F0
01F1F0
01E1F0
01E1F0
03E1E0
03C3E0
07C3E0
0783E0
0F83C0
1F03C0
FF07C0
FE07C0
7C0780
700780
ENDCHAR
STARTCHAR 041C
ENCODING 1052
SWIDTH 488 0
DWIDTH 19 0
BBX 22 24 0 0
BITMAP
01E03C
01E07C
03F07C
03F0FC
03F0FC
07F1FC
07F1F8
0773B8
0773F8
0F7778
0F7778
0F7E70
1E7EF0
1E7CF0
1E38F0
1E00F0
3C01E0
3C01E0
3C01E0
7C01E0
7803E0
7803C0
7803C0
F803C0
ENDCHAR
STARTCHAR 041D
ENCODING 1053
SWIDTH 488 0
DWIDTH 19 0
BBX 22 24 1 0
BITMAP
03C07C
07C078
07C0F8
07C0F8
07C0F8
0F80F0
0F81F0
0F81F0
0F81F0
1FFFF0
1FFFE0
1FFFE0
1FFFE0
1E03E0
3E07C0
3E07C0
3E07C0
3C07C0
7C0780
7C0F80
7C0F80
780F80
F80F00
F81F00
ENDCHAR
STARTCHAR 041E
ENCODING 1054
SWIDTH 488 0
DWIDTH 19 0
BBX 18 26 3 -1
BITMAP
003800
01FE00
07FF00
0FFF80
1FFF80
1F07C0
3E07C0
3E07C0
7C07C0
7C07C0
7C07C0
F807C0
F807C0
F80780
F80F80
F80F80
F00F80
F01F00
F01F00
F83E00
F87E00
FFFC00
7FF800
7FF000
1FE000
020000
ENDCHAR
STARTCHAR 041F
ENCODING 1055
SWIDTH 488 0
DWIDTH 19 0
BBX 22 24 1 0
BITMAP
03FFFC
07FFF8
07FFF8
07FFF8
07C0F8
0F80F0
0F81F0
0F81F0
0F81F0
0F01E0
1F03E0
1F03E0
1F03E0
1E03C0
3E07C0
3E07C0
3E07C0
3C07C0
7C0F80
7C0F80
7C0F80
780F80
F80F00
F81F00
ENDCHAR
STARTCHAR 0420
ENCODING 1056
SWIDTH 488 0
DWIDTH 19 0
BBX 20 24 2 0
BITMAP
07FF00
07FFC0
07FFE0
0FFFE0
0F83E0
0F83F0
0F01F0
1F01F0
1F01E0
1F03E0
1F07E0
3E3FC0
3FFF80
3FFF00
3FFC00
3FE000
7C0000
7C0000
7C0000
780000
F80000
F80000
F80000
F00000
ENDCHAR
STARTCHAR 0421
ENCODING 1057
SWIDTH 488 0
DWIDTH 19 0
BBX 19 26 3 -1
BITMAP
000E00
00FFC0
01FFE0
03FFE0
07FFC0
0FC040
1F8000
1F0000
3E0000
3E0000
7C0000
7C0000
7C0000
7C0000
780000
F80000
F80000
F80000
F80000
7C0000
7E0400
7FFE00
3FFE00
1FFE00
0FFC00
018000
ENDCHAR
STARTCHAR 0422
ENCODING 1058
SWIDTH 488 0
DWIDTH 19 0
BBX 18 24 5 0
BITMAP
7FFFC0
7FFFC0
FFFFC0
FFFFC0
03E000
03E000
03E000
07C000
07C000
07C000
07C000
078000
0F8000
0F8000
0F8000
0F0000
1F0000
1F0000
1F0000
1E0000
3E0000
3E0000
3E0000
3C0000
ENDCHAR
STARTCHAR 0423
ENCODING 1059
SWIDTH 488 0
DWIDTH 19 0
BBX 24 25 0 -1
BITMAP
07C03F
03E03E
03E07E
03E07C
03E0FC
03E0F8
01F1F8
01F1F0
01F3E0
01F3E0
00F7C0
00FFC0
00FF80
007F00
007F00
007E00
003E00
007C00
00F800
01F800
3FF000
7FE000
7FC000
FF0000
080000
ENDCHAR
STARTCHAR 0424
ENCODING 1060
SWIDTH 488 0
DWIDTH 19 0
BBX 18 26 3 0
BITMAP
003C00
003C00
003800
01FE00
07FF00
0FFF80
1F7FC0
3EF3C0
3CF3C0
78F3C0
78F3C0
F1E3C0
F1E3C0
F1E3C0
F1E3C0
F1C780
F3C780
F3CF80
F3DF00
FBBE00
7FFC00
7FF800
1FF000
070000
0F0000
0F0000
ENDCHAR
STARTCHAR 0425
ENCODING 1061
SWIDTH 488 0
DWIDTH 19 0
BBX 23 24 0 0
BITMAP
03E03E
03E03E
01F07C
01F0F8
00F1F0
00F9F0
00FBE0
007FC0
007F80
003F00
003F00
003E00
007F00
00FF00
01FF00
01FF80
03EF80
07CF80
0F8780
1F87C0
1F07C0
3E07C0
7E07C0
FC03C0
ENDCHAR
STARTCHAR 0426
ENCODING 1062
SWIDTH 488 0
DWIDTH 19 0
BBX 21 30 1 -6
BITMAP
03C0F8
07C0F8
07C0F0
07C1F0
0781F0
0781F0
0F81E0
0F83E0
0F03E0
0F03E0
1F03C0
1F07C0
1F07C0
1E07C0
3E0780
3E0F80
3E0F80
3C0F80
7C0F00
7C1F00
7FFFC0
7FFF80
FFFF80
FFFF80
000F80
000F00
000F00
001F00
001F00
001E00
ENDCHAR
STARTCHAR 0427
ENCODING 1063
SWIDTH 488 0
DWIDTH 19 0
BBX 18 24 4 0
BITMAP
3E07C0
3E07C0
3E07C0
3E07C0
7C0F80
7C0F80
7C0F80
7C0F80
780F00
F81F00
F81F00
7C1F00
7FFE00
7FFE00
3FFE00
0FFE00
003C00
007C00
007C00
007C00
007800
00F800
00F800
00F800
ENDCHAR
STARTCHAR 0428
ENCODING 1064
SWIDTH 488 0
DWIDTH 19 0
BBX 23 24 0 0
BITMAP
03C00E
03801E
07801E
07801E
07801C
07003C
0F003C
0F003C
0F003C
0F1C78
1E3C78
1E3C78
1E3C78
1E38F0
3C78F0
3C78F0
3C78F0
3C71E0
78F1E0
78F1E0
7FFFE0
7FFFC0
7FFFC0
FFFFC0
ENDCHAR
STARTCHAR 0429
ENCODING 1065
SWIDTH 488 0
DWIDTH 19 0
BBX 22 30 1 -6
BITMAP
07803C
078038
078078
070078
0F0078
0F0070
0F00F0
0F00F0
0E00F0
1E38F0
1E79E0
1E79E0
1C71E0
3C71E0
3CF3C0
3CF3C0
38F3C0
78E3C0
79E380
79E780
7FFFC0
FFFFC0
FFFFC0
FFFFC0
000380
000780
000780
000780
000700
000F00
ENDCHAR
STARTCHAR 042A
ENCODING 1066
SWIDTH 488 0
DWIDTH 19 0
BBX 17 24 3 0
BITMAP
3FC000
3FC000
3FC000
3F8000
078000
0F8000
0F8000
0F8000
0FE000
1FFC00
1FFE00
1FFF00
1E3F00
3E1F00
3E0F80
3E0F00
3C0F00
7C1F00
7C1F00
7C7E00
7FFE00
FFFC00
FFF000
FFE000
ENDCHAR
STARTCHAR 042B
ENCODING 1067
SWIDTH 488 0
DWIDTH 19 0
BBX 22 24 1 0
BITMAP
07803C
07803C
07003C
0F0038
0F0078
0F0078
0E0078
1E0078
1FC070
1FF0F0
1FF0F0
3FF8F0
3C78E0
3C79E0
3879E0
7879E0
7879C0
787BC0
78F3C0
70F3C0
F3E380
FFE780
FFC780
FF0780
ENDCHAR
STARTCHAR 042C
ENCODING 1068
SWIDTH 488 0
DWIDTH 19 0
BBX 18 24 1 0
BITMAP
03E000
03E000
07C000
07C000
07C000
07C000
078000
0F8000
0FF800
0FFF00
0FFF80
1FFFC0
1F0FC0
1F07C0
1E07C0
3E03C0
3E07C0
3E07C0
3C0FC0
7C1F80
7FFF80
7FFF00
7FFC00
FFF000
ENDCHAR
STARTCHAR 042D
ENCODING 1069
SWIDTH 488 0
DWIDTH 19 0
BBX 19 26 1 -1
BITMAP
007800
03FF00
07FF80
07FFC0
03FFC0
0007E0
0003E0
0003E0
0003E0
0003E0
0003E0
01FFE0
01FFE0
01FFE0
03FFE0
0003E0
0007C0
0007C0
000FC0
001F80
203F00
7FFF00
7FFE00
FFFC00
3FF000
020000
ENDCHAR
STARTCHAR 042E
ENCODING 1070
SWIDTH 488 0
DWIDTH 19 0
BBX 21 25 1 -1
BITMAP
000180
0787E0
078FF0
070FF0
0F1E78
0F3C78
0F3C78
0E3878
0E7878
1E7878
1E7070
1FF070
1FF0F0
3FF0F0
3CF0F0
38E0E0
38E1E0
79E1E0
79E1C0
71E3C0
71E3C0
F1E780
F0FF00
F0FF00
E07E00
ENDCHAR
STARTCHAR 042F
ENCODING 1071
SWIDTH 488 0
DWIDTH 19 0
BBX 22 24 0 0
BITMAP
001FFC
007FFC
00FFFC
01FFF8
03F0F8
07E0F8
07C0F8
07C0F8
07C1F0
07C1F0
07E1F0
07FFF0
03FFE0
01FFE0
01FFE0
03E3E0
07C3C0
0FC7C0
0F87C0
1F07C0
3E0780
3E0F80
7C0F80
F80F80
ENDCHAR
STARTCHAR 0430
ENCODING 1072
SWIDTH 488 0
DWIDTH 19 0
BBX 18 19 2 0
BITMAP
003C00
01FFC0
07FFC0
0FFFC0
1FCFC0
3F0780
3E0F80
7C0F80
7C0F80
7C0F80
781F00
F81F00
F81F00
781F00
7C3F00
7FFF00
7FFF00
3FFF00
1FCF00
ENDCHAR
STARTCHAR 0431
ENCODING 1073
SWIDTH 488 0
DWIDTH 19 0
BBX 19 28 3 -1
BITMAP
0001E0
003FE0
00FFE0
03FFE0
07FE00
0FE000
0F8000
1F0000
3E0000
3EF000
3FFC00
7FFE00
7FFF00
7E3F00
F81F80
F80F80
F80F80
F00F80
F00F00
F01F00
F01F00
F03E00
F87E00
FFFC00
FFFC00
7FF000
3FE000
020000
ENDCHAR
STARTCHAR 0432
ENCODING 1074
SWIDTH 488 0
DWIDTH 19 0
BBX 17 19 2 0
BITMAP
007800
03FF00
07FF80
0FFF80
1F8F80
1F0780
1E0780
3E0F80
3FFF00
3FFC00
3FFE00
7C3F00
7C0F00
780F80
781F00
FC7F00
FFFF00
FFFE00
FFF800
ENDCHAR
STARTCHAR 0433
ENCODING 1075
SWIDTH 488 0
DWIDTH 19 0
BBX 16 20 3 -1
BITMAP
01F0
1FFE
1FFE
1FFF
181F
001F
001F
007F
03FE
0FFC
3FF0
7F80
FE00
F800
F800
FE7C
FFFC
7FFC
3FFC
0300
ENDCHAR
STARTCHAR 0434
ENCODING 1076
SWIDTH 488 0
DWIDTH 19 0
BBX 17 28 3 -1
BITMAP
0FE000
1FF800
1FFC00
0FFE00
083F00
001F00
000F00
000F80
000F80
03FF80
0FFF80
1FFF80
3FFF80
7E0F80
7C0F80
F80F80
F80F80
F80F00
F81F00
F01F00
F01F00
F83E00
F87E00
FFFC00
7FF800
7FF000
3FE000
020000
ENDCHAR
STARTCHAR 0435
ENCODING 1077
SWIDTH 488 0
DWIDTH 19 0
BBX 17 19 3 0
BITMAP
007800
03FE00
0FFF00
1FFF80
3F0F80
3E0780
7C0780
780F80
F83F00
FFFF00
FFFC00
FFF000
FC0000
F80000
F80000
7FFC00
7FFC00
3FFC00
1FFC00
ENDCHAR
STARTCHAR 0436
ENCODING 1078
SWIDTH 488 0
DWIDTH 19 0
BBX 22 19 0 0
BITMAP
0C000C
1E0E3C
1F1C7C
1F1CFC
071CF0
071CE0
0739C0
0739C0
07FFC0
07FFC0
07FF80
0E7380
0E7380
0E7380
1EF380
3CE3C0
FCE3E0
F8E3E0
F0E1E0
ENDCHAR
STARTCHAR 0437
ENCODING 1079
SWIDTH 488 0
DWIDTH 19 0
BBX 17 20 2 -1
BITMAP
01F800
0FFF00
0FFF00
0FFF80
0C1F80
000F80
000F80
001F00
07FE00
07FC00
07FE00
00FF00
001F00
001F00
003F00
7DFF00
FFFE00
FFFC00
FFF000
060000
ENDCHAR
STARTCHAR 0438
ENCODING 1080
SWIDTH 488 0
DWIDTH 19 0
BBX 17 18 3 0
BITMAP
3E0F80
3E0F80
3E0F80
3E0F80
3C1F00
7C1F00
7C1F00
7C1F00
781E00
F83E00
F83E00
F83E00
F83E00
F87C00
FFFE00
FFFE00
7FFE00
3F9E00
ENDCHAR
STARTCHAR 0439
ENCODING 1081
SWIDTH 488 0
DWIDTH 19 0
BBX 17 27 3 0
BITMAP
008000
078780
07CF80
03FF00
03FE00
00FC00
000000
000000
000000
3E0F80
3E0F80
3E0F80
3E0F80
3C1F00
7C1F00
7C1F00
7C1F00
781E00
F83E00
F83E00
F83E00
F83E00
F87C00
FFFE00
FFFE00
7FFE00
3F9E00
ENDCHAR
STARTCHAR 043A
ENCODING 1082
SWIDTH 488 0
DWIDTH 19 0
BBX 20 18 2 0
BITMAP
0F83F0
0F87C0
0F8FC0
0F1F80
1F3F00
1F7C00
1FF800
1FF000
3FF000
3FF000
3EF800
3CFC00
7C7C00
7C3E00
7C3E00
7C3F00
F81F00
F81F00
ENDCHAR
STARTCHAR 043B
ENCODING 1083
SWIDTH 488 0
DWIDTH 19 0
BBX 21 18 0 0
BITMAP
00FFF8
00FFF0
00FFF0
01FFF0
01E1F0
01E1E0
01E3E0
03E3E0
03C3E0
07C3C0
07C7C0
0F87C0
0F87C0
1F0780
FF0780
7E0F80
7C0F80
700F80
ENDCHAR
STARTCHAR 043C
ENCODING 1084
SWIDTH 488 0
DWIDTH 19 0
BBX 21 18 0 0
BITMAP
03C0F8
07C0F8
07C1F8
07C1F0
0FC3F0
0EE7F0
0EE7F0
1EEEF0
1EEEF0
1EFCF0
3CFDE0
3CF9E0
3CF9E0
3CF1E0
7803E0
7803C0
7803C0
F803C0
ENDCHAR
STARTCHAR 043D
ENCODING 1085
SWIDTH 488 0
DWIDTH 19 0
BBX 19 18 2 0
BITMAP
0F83E0
0F03C0
1F07C0
1F07C0
1F07C0
1E0780
3E0F80
3FFF80
3FFF80
3FFF00
7FFF00
7C1F00
7C1F00
781E00
F83E00
F83E00
F83E00
F03E00
ENDCHAR
STARTCHAR 043E
ENCODING 1086
SWIDTH 488 0
DWIDTH 19 0
BBX 17 20 3 -1
BITMAP
00F000
07FC00
0FFE00
1FFF00
3F3F00
7E1F80
7C0F80
F80F80
F80F80
F80F00
F00F00
F01F00
F01F00
F83E00
F87E00
FFFC00
FFF800
7FF000
3FE000
040000
ENDCHAR
STARTCHAR 043F
ENCODING 1087
SWIDTH 488 0
DWIDTH 19 0
BBX 17 19 2 0
BITMAP
007800
0FFF00
0FFF80
1FFF80
1FFF80
1F0F80
1F0F80
3E0F80
3E0F80
3E0F80
3E0F80
3C1F00
7C1F00
7C1F00
7C1F00
783E00
F83E00
F83E00
F83E00
ENDCHAR
STARTCHAR 0440
ENCODING 1088
SWIDTH 488 0
DWIDTH 19 0
BBX 20 25 0 -6
BITMAP
003C00
03FF80
07FFC0
07FFE0
07C7E0
07C1F0
0F81F0
0F81F0
0F81F0
0F81E0
0F03E0
1F03E0
1F07E0
1F07C0
1E1FC0
3FFF80
3FFF00
3FFE00
3FF800
7C0000
7C0000
7C0000
780000
F80000
F80000
ENDCHAR
STARTCHAR 0441
ENCODING 1089
SWIDTH 488 0
DWIDTH 19 0
BBX 18 19 3 0
BITMAP
003E00
03FFC0
07FF80
1FFF80
1FF700
3F0000
7E0000
7C0000
F80000
F80000
F80000
F80000
F80000
F80000
FC0000
7FFC00
7FFE00
3FFE00
0FFC00
ENDCHAR
STARTCHAR 0442
ENCODING 1090
SWIDTH 488 0
DWIDTH 19 0
BBX 20 18 1 0
BITMAP
0FF7E0
0FFFE0
0FFFF0
1E79F0
1E78F0
1E79E0
1C79E0
3C79E0
3CF1E0
3CF3C0
3CF3C0
7803C0
7803C0
780380
780780
F00780
F00780
F00700
ENDCHAR
STARTCHAR 0443
ENCODING 1091
SWIDTH 488 0
DWIDTH 19 0
BBX 23 24 -2 -7
BITMAP
03E03E
03E03E
01E07C
01F07C
01F078
01F0F8
01F0F8
01F1F0
01F1F0
01F3E0
00F3E0
00F7C0
00FFC0
00FF80
00FF00
007F00
007E00
007C00
00F800
01F800
3FF000
7FE000
7FC000
FF0000
ENDCHAR
STARTCHAR 0444
ENCODING 1092
SWIDTH 488 0
DWIDTH 19 0
BBX 19 33 2 -6
BITMAP
000600
001E00
001E00
001E00
001C00
003C00
003C00
003C00
003800
03FE00
0FFF80
1FFF80
3E77C0
3CF3C0
78F3C0
78F1C0
F0F3E0
F1E3C0
F1E3C0
F1E3C0
F1E3C0
F3C780
FBCF80
7FFF00
7FFE00
3FFC00
0FF000
078000
078000
070000
0F0000
0F0000
0F0000
ENDCHAR
STARTCHAR 0445
ENCODING 1093
SWIDTH 488 0
DWIDTH 19 0
BBX 20 18 1 0
BITMAP
0F81F0
0F83E0
07C7C0
07C7C0
03CF80
03FF00
01FE00
01FC00
00F800
01FC00
03FC00
07FE00
0FBE00
1FBE00
1F1F00
3E1F00
7C0F80
F80F80
ENDCHAR
STARTCHAR 0446
ENCODING 1094
SWIDTH 488 0
DWIDTH 19 0
BBX 17 23 3 -5
BITMAP
3E0F80
3E0F00
3E1F00
3C1F00
7C1F00
7C1E00
7C3E00
783E00
F83E00
F83E00
F83C00
F87C00
F87C00
F8FC00
FFFE00
FFFF00
7FFF00
3F9F00
001E00
001E00
003E00
003E00
003C00
ENDCHAR
STARTCHAR 0447
ENCODING 1095
SWIDTH 488 0
DWIDTH 19 0
BBX 17 18 3 0
BITMAP
3E0F80
3C0F80
7C0F80
7C0F00
7C1F00
781F00
F81F00
FC1F00
7FFE00
7FFE00
3FFE00
1FFE00
007C00
007C00
007C00
007C00
007800
00F800
ENDCHAR
STARTCHAR 0448
ENCODING 1096
SWIDTH 488 0
DWIDTH 19 0
BBX 19 18 2 0
BITMAP
1C01E0
3C01E0
3C01E0
3C01E0
38F3C0
78E3C0
78E3C0
79E3C0
71E380
F1E780
F1C780
F3C780
F3C700
E3CF00
F3CF00
FFFF00
FFFF80
7FF780
ENDCHAR
STARTCHAR 0449
ENCODING 1097
SWIDTH 488 0
DWIDTH 19 0
BBX 19 23 2 -5
BITMAP
3C01E0
3C01C0
3C01C0
3803C0
78E3C0
78E3C0
79E380
71E780
F1C780
F1C780
F3C700
E3CF00
E38F00
E38F00
E3CF00
FFFF80
FFFF80
7DF780
000780
000700
000700
000F00
000F00
ENDCHAR
STARTCHAR 044A
ENCODING 1098
SWIDTH 488 0
DWIDTH 19 0
BBX 16 18 3 0
BITMAP
7F80
7F80
7F00
FF00
1F00
1F00
1FF8
1FFE
3FFF
3FFF
3E1F
3C0F
7C0F
7C1F
7C7F
7FFE
FFFC
FFF0
ENDCHAR
STARTCHAR 044B
ENCODING 1099
SWIDTH 488 0
DWIDTH 19 0
BBX 20 18 1 0
BITMAP
0F0070
0E0070
1E00F0
1E00F0
1E00F0
1C00E0
3FC1E0
3FE1E0
3FF1E0
39F1C0
7873C0
7873C0
7873C0
70F380
71F780
FFE780
FFC780
FF0700
ENDCHAR
STARTCHAR 044C
ENCODING 1100
SWIDTH 488 0
DWIDTH 19 0
BBX 17 18 2 0
BITMAP
0F8000
0F0000
1F0000
1F0000
1F0000
1E0000
3FFC00
3FFE00
3FFF00
3FFF80
7C0F80
7C0F80
7C0F80
7C0F80
F83F00
FFFF00
FFFC00
FFF000
ENDCHAR
STARTCHAR 044D
ENCODING 1101
SWIDTH 488 0
DWIDTH 19 0
BBX 17 19 2 0
BITMAP
01E000
1FFC00
1FFE00
0FFF00
0E7F80
001F80
000F80
000F80
07FF80
07FF80
07FF80
07FF80
000F80
001F00
407F00
7FFE00
7FFC00
FFF800
FFE000
ENDCHAR
STARTCHAR 044E
ENCODING 1102
SWIDTH 488 0
DWIDTH 19 0
BBX 20 19 1 0
BITMAP
000380
0E0FC0
1E1FE0
1E3FE0
1E78F0
1C78F0
3CF0F0
3CF0F0
3FE0E0
3FE0E0
3FE0E0
79E1E0
79E1E0
71E1C0
71E3C0
F1E780
F1FF80
E0FF00
E07C00
ENDCHAR
STARTCHAR 044F
ENCODING 1103
SWIDTH 488 0
DWIDTH 19 0
BBX 20 19 1 0
BITMAP
003E00
01FFF0
07FFF0
0FFFE0
0F83E0
1F03E0
1F03E0
1F03C0
1F87C0
1FFFC0
0FFFC0
07FFC0
0FFF80
1F0F80
1F0F80
3E0F80
7C1F00
F81F00
F81F00
ENDCHAR
STARTCHAR 0450
ENCODING 1104
SWIDTH 488 0
DWIDTH 19 0
BBX 17 27 3 0
BITMAP
004000
00E000
00F800
01FC00
00FE00
003E00
000C00
000000
007800
03FE00
0FFF00
1FFF80
3F0F80
3E0780
7C0780
780F80
F83F00
FFFF00
FFFC00
FFF000
FC0000
F80000
F80000
7FFC00
7FFC00
3FFC00
1FFC00
ENDCHAR
STARTCHAR 0451
ENCODING 1105
SWIDTH 488 0
DWIDTH 19 0
BBX 18 26 3 0
BITMAP
03C380
07C7C0
07C7C0
07C7C0
038380
000000
000000
007800
03FE00
0FFF00
1FFF80
3F0F80
3E0780
7C0780
780F80
F83F00
FFFF00
FFFC00
FFF000
FC0000
F80000
F80000
7FFC00
7FFC00
3FFC00
1FFC00
ENDCHAR
STARTCHAR 0452
ENCODING 1106
SWIDTH 488 0
DWIDTH 19 0
BBX 17 34 2 -7
BITMAP
006000
03E000
03E000
0FFF00
1FFE00
1FFE00
07C000
07C000
079800
0FFF00
0FFF00
0FFF80
0FDF80
1F0F80
1F0F80
1F0F80
1F0F80
3E0F80
3E0F80
3E1F00
3E1F00
3C1F00
7C1F00
7C1E00
7C3E00
783E00
F83E00
003C00
007C00
03FC00
07F800
07F800
07F000
010000
ENDCHAR
STARTCHAR 0453
ENCODING 1107
SWIDTH 488 0
DWIDTH 19 0
BBX 16 27 3 0
BITMAP
001C
003E
007E
01FC
00F0
00C0
0000
01F0
1FFE
1FFE
1FFF
181F
001F
001F
007F
03FE
0FFC
3FF0
7F80
FE00
F800
F800
FE7C
FFFC
7FFC
3FFC
0300
ENDCHAR
STARTCHAR 0454
ENCODING 1108
SWIDTH 488 0
DWIDTH 19 0
BBX 18 19 3 0
BITMAP
003C00
01FFC0
07FF80
0FFF80
1FE700
3F0000
7E0000
7C0000
7FF800
7FF800
FFF000
FFF000
F80000
FC0000
7E0000
7FFC00
3FFE00
3FFE00
0FFC00
ENDCHAR
STARTCHAR 0455
ENCODING 1109
SWIDTH 488 0
DWIDTH 19 0
BBX 18 20 2 -1
BITMAP
007C00
03FFC0
07FF80
0FFF80
0F8300
1F0000
1F0000
1FC000
0FF000
0FFC00
03FE00
00FE00
003F00
001F00
603E00
7FFE00
7FFE00
FFFC00
7FF000
030000
ENDCHAR
STARTCHAR 0456
ENCODING 1110
SWIDTH 488 0
DWIDTH 19 0
BBX 14 27 4 0
BITMAP
0040
01F0
03F0
03F0
03F0
01E0
0080
0000
0000
7FE0
7FE0
7FC0
FFC0
07C0
07C0
07C0
0F80
0F80
0F80
0F80
0F00
1F00
1F80
1FFC
0FFC
0FFC
07FC
ENDCHAR
STARTCHAR 0457
ENCODING 1111
SWIDTH 488 0
DWIDTH 19 0
BBX 16 26 4 0
BITMAP
0E1E
1F1F
1F3F
1F1E
1E1C
0000
0000
0000
7FE0
7FE0
7FC0
FFC0
07C0
07C0
07C0
0F80
0F80
0F80
0F80
0F00
1F00
1F80
1FFC
0FFC
0FFC
07FC
ENDCHAR
STARTCHAR 0458
ENCODING 1112
SWIDTH 488 0
DWIDTH 19 0
BBX 19 34 0 -7
BITMAP
000100
0007C0
0007E0
0007E0
0007C0
0007C0
000000
000000
000000
03FFC0
03FFC0
03FFC0
07FFC0
000F80
000F80
000F80
000F80
000F00
001F00
001F00
001F00
001E00
003E00
003E00
003E00
003C00
007C00
007C00
40FC00
7FF800
FFF800
FFF000
7FE000
060000
ENDCHAR
STARTCHAR 0459
ENCODING 1113
SWIDTH 488 0
DWIDTH 19 0
BBX 20 18 0 -1
BITMAP
03FE00
03FE00
03FE00
079E00
071C00
071C00
073F00
0F3FC0
0E3FE0
0E39F0
1E78F0
1C78F0
1C70F0
3C70E0
78F1E0
F8FFC0
F0FFC0
E0FF00
ENDCHAR
STARTCHAR 045A
ENCODING 1114
SWIDTH 488 0
DWIDTH 19 0
BBX 18 18 1 0
BITMAP
0E1C00
0E3C00
1E3C00
1E3800
1C3800
1C7800
3C7C00
3FFF80
3FFFC0
3FFFC0
78F1C0
78E1C0
70E1C0
71E3C0
F1E3C0
F1FF80
F1FF00
E3FE00
ENDCHAR
STARTCHAR 045B
ENCODING 1115
SWIDTH 488 0
DWIDTH 19 0
BBX 17 27 2 0
BITMAP
006000
03E000
03E000
0FFF00
1FFE00
1FFE00
07C000
07C000
079800
0FFF00
0FFF00
0FFF80
0FDF80
1F0F80
1F0F80
1F0F80
1F0F80
3E0F80
3E0F80
3E1F00
3E1F00
3C1F00
7C1F00
7C3E00
7C3E00
783E00
F83E00
ENDCHAR
STARTCHAR 045C
ENCODING 1116
SWIDTH 488 0
DWIDTH 19 0
BBX 20 27 2 0
BITMAP
000200
000700
000F00
003F80
007F00
007C00
003000
000000
000000
0F83F0
0F87C0
0F8FC0
0F1F80
1F3F00
1F7C00
1FF800
1FF000
3FF000
3FF000
3EF800
3CFC00
7C7C00
7C3E00
7C3E00
7C3F00
F81F00
F81F00
ENDCHAR
STARTCHAR 045D
ENCODING 1117
SWIDTH 488 0
DWIDTH 19 0
BBX 17 27 3 0
BITMAP
008000
01C000
03E000
03F800
01FC00
007C00
001800
000000
000000
3E0F80
3E0F80
3E0F80
3E0F80
3C1F00
7C1F00
7C1F00
7C1F00
781E00
F83E00
F83E00
F83E00
F83E00
F87C00
FFFE00
FFFE00
7FFE00
3F9E00
ENDCHAR
STARTCHAR 045E
ENCODING 1118
SWIDTH 488 0
DWIDTH 19 0
BBX 23 33 -2 -7
BITMAP
000020
003838
003CF8
003FF8
001FF0
000FC0
000000
000000
000000
03E03E
03E03E
01E07C
01F07C
01F078
01F0F8
01F0F8
01F1F0
01F1F0
01F3E0
00F3E0
00F7C0
00FFC0
00FF80
00FF00
007F00
007E00
007C00
00F800
01F800
3FF000
7FE000
7FC000
FF0000
ENDCHAR
STARTCHAR 045F
ENCODING 1119
SWIDTH 488 0
DWIDTH 19 0
BBX 17 24 3 -6
BITMAP
3E0F80
3E0F80
3E0F80
3E0F80
3C1F00
7C1F00
7C1F00
7C1F00
781E00
F83E00
F83E00
F83E00
F83E00
F87C00
FFFE00
FFFE00
7FFE00
3F9E00
000000
0F0000
0F0000
0F0000
1F0000
1E0000
ENDCHAR
STARTCHAR 0462
ENCODING 1122
SWIDTH 488 0
DWIDTH 19 0
BBX 16 26 3 0
BITMAP
03E0
03C0
07C0
3FFF
3FFF
3FFE
3FFE
0F80
0F80
0F00
0F00
1FF8
1FFE
1FFF
1E7F
3E1F
3E0F
3E0F
3C0F
7C1F
7C1F
7C7E
7FFE
FFFC
FFF8
FFE0
ENDCHAR
STARTCHAR 0463
ENCODING 1123
SWIDTH 488 0
DWIDTH 19 0
BBX 19 18 0 0
BITMAP
0FF000
0FF800
0FFC00
0E3C00
1E3C00
1E3C00
1E3E00
1C3FC0
3C7FE0
3C7FE0
3C78E0
3870E0
78F0E0
78F1E0
78F1E0
70FFC0
F1FF80
F1FF00
ENDCHAR
STARTCHAR 0472
ENCODING 1138
SWIDTH 488 0
DWIDTH 19 0
BBX 18 26 3 -1
BITMAP
003800
01FE00
07FF00
0FFF80
1FFF80
1F07C0
3E07C0
3E07C0
7C07C0
7C07C0
7807C0
FFC7C0
FFFFC0
FFFF80
F8FF80
F80F80
F00F80
F01F00
F01F00
F83E00
F87E00
FFFC00
7FF800
7FF000
1FE000
020000
ENDCHAR
STARTCHAR 0473
ENCODING 1139
SWIDTH 488 0
DWIDTH 19 0
BBX 17 20 3 -1
BITMAP
00F000
07FC00
0FFE00
1FFF00
3FBF00
7E1F80
7C0F80
F80F80
FF8F80
FFFF00
FFFF00
F0FF00
F01F00
F83E00
F87E00
FFFC00
FFF800
7FF000
3FE000
040000
ENDCHAR
STARTCHAR 0474
ENCODING 1140
SWIDTH 488 0
DWIDTH 19 0
BBX 20 24 5 0
BITMAP
F807E0
F80FF0
F80FE0
F81FC0
F83E00
F83E00
F83C00
F87C00
F07800
F0F800
F0F000
F1F000
F1E000
F3E000
F3C000
F3C000
F78000
F78000
FF0000
FF0000
FE0000
FE0000
FC0000
FC0000
ENDCHAR
STARTCHAR 0475
ENCODING 1141
SWIDTH 488 0
DWIDTH 19 0
BBX 19 19 4 0
BITMAP
0003C0
F80FE0
F01FC0
F03FC0
F07E00
F07C00
F0F800
F0F000
F1F000
F9E000
FBE000
7BC000
7F8000
7F8000
7F0000
7F0000
7E0000
7C0000
3C0000
ENDCHAR
STARTCHAR 048A
ENCODING 1162
SWIDTH 488 0
DWIDTH 19 0
BBX 21 38 1 -6
BITMAP
003860
007878
007FF0
003FF0
003FE0
000F80
000000
000000
03C0F8
07C0F8
0781F0
0783F0
0787F0
0F87F0
0F0FE0
0F1FE0
0F1DE0
1F3DE0
1F7BE0
1E73C0
1EF3C0
1EE3C0
3FC7C0
3FC780
3F8780
3F0780
7F0F80
7E0FC0
7E0FC0
7C0FC0
F81FC0
F81F80
000F80
000F00
001F00
003E00
007C00
001800
ENDCHAR
STARTCHAR 048B
ENCODING 1163
SWIDTH 488 0
DWIDTH 19 0
BBX 17 32 3 -5
BITMAP
008000
078780
07CF80
03FF00
03FE00
00FC00
000000
000000
000000
3E0F80
3E0F80
3E0F80
3E0F80
3C1F00
7C1F00
7C1F00
7C1F00
781E00
F83E00
F83E00
F83E00
F83E00
F87C00
FFFE00
FFFF00
7FFF00
3F9F00
001E00
003C00
007C00
007800
003000
ENDCHAR
STARTCHAR 048C
ENCODING 1164
SWIDTH 488 0
DWIDTH 19 0
BBX 17 24 2 0
BITMAP
03C000
03C000
1FFC00
1FFC00
1FF800
3FF800
0F8000
0F8000
0F8000
0FFC00
1FFE00
1FFF00
1F7F80
1E0F80
3E0F80
3E0F80
3E0F80
3C0F80
7C1F80
7C3F00
7FFE00
7FFC00
FFF800
FFE000
ENDCHAR
STARTCHAR 048D
ENCODING 1165
SWIDTH 488 0
DWIDTH 19 0
BBX 16 19 3 0
BITMAP
0F80
0F80
3FF8
7FF8
7FF8
1F00
1F00
3EE0
3FFC
3FFE
3FFF
3C1F
7C1F
7C1F
7C1F
787E
FFFE
FFFC
FFF0
ENDCHAR
STARTCHAR 048E
ENCODING 1166
SWIDTH 488 0
DWIDTH 19 0
BBX 20 24 2 0
BITMAP
07FF00
07FFC0
07FFE0
0FFFE0
0F83E0
0F81F0
0F01F0
1F01F0
1F19E0
1F7BE0
1E3FE0
3E3FC0
3FFF80
3FFF00
3FFE00
3FFE00
7C0F00
7C0F00
7C0E00
780000
F80000
F80000
F80000
F00000
ENDCHAR
STARTCHAR 048F
ENCODING 1167
SWIDTH 488 0
DWIDTH 19 0
BBX 20 25 0 -6
BITMAP
003C00
03FF80
07FFC0
07FFE0
07C7E0
07C1F0
0F81F0
0F81F0
0F81F0
0F81E0
0F01E0
1F3BE0
1F3BE0
1F3FC0
1E3FC0
3FFF80
3FFF00
3FFE00
3FFF00
7C0F00
7C0700
7C0700
780400
F80000
F80000
ENDCHAR
STARTCHAR 0490
ENCODING 1168
SWIDTH 488 0
DWIDTH 19 0
BBX 23 29 1 0
BITMAP
00001E
00001E
00003E
00003E
00003C
007FFC
00FFFC
00FFFC
00FFFC
00F800
01F000
01F000
01F000
01F000
03E000
03E000
03E000
03E000
03C000
07C000
07C000
07C000
078000
0F8000
0F8000
FFFC00
FFFC00
FFF800
FFF800
ENDCHAR
STARTCHAR 0491
ENCODING 1169
SWIDTH 488 0
DWIDTH 19 0
BBX 19 23 3 0
BITMAP
0001E0
0003E0
0003C0
0003C0
0003C0
0FFFC0
0FFFC0
1FFF80
1FFF80
1F0000
1E0000
3E0000
3E0000
3E0000
3E0000
7C0000
7C0000
7C0000
7C0000
780000
F80000
F80000
F80000
ENDCHAR
STARTCHAR 0492
ENCODING 1170
SWIDTH 488 0
DWIDTH 19 0
BBX 22 24 1 0
BITMAP
007FFC
00FFFC
00FFFC
00FFFC
00F800
01F000
01F000
01F000
01F000
03E000
1FFF00
1FFF00
3FFF00
3FFF00
07C000
07C000
07C000
078000
0F8000
0F8000
FFFC00
FFFC00
FFF800
FFF800
ENDCHAR
STARTCHAR 0493
ENCODING 1171
SWIDTH 488 0
DWIDTH 19 0
BBX 16 20 3 -1
BITMAP
01F0
1FFE
1FFE
1FFF
181F
001F
301F
3E3F
7FFE
0FF8
3FFC
7FFE
FC0E
F800
F800
FC1C
FFFC
7FFC
3FFC
0300
ENDCHAR
STARTCHAR 0494
ENCODING 1172
SWIDTH 488 0
DWIDTH 19 0
BBX 20 30 1 -6
BITMAP
03FFF0
03FFF0
07FFE0
07FFE0
07C000
078000
0F8000
0F8000
0F8000
0FFE00
1FFF00
1FFF80
1FFF80
1F0FC0
3E07C0
3E07C0
3E07C0
3E07C0
3C07C0
7C07C0
7C07C0
7C0F80
780F80
F81F80
001F00
007E00
07FE00
07FC00
07F800
0FE000
ENDCHAR
STARTCHAR 0495
ENCODING 1173
SWIDTH 488 0
DWIDTH 19 0
BBX 17 25 2 -7
BITMAP
0FFF80
0FFF80
0FFF00
0FFF00
1F0000
1F0000
1F0000
1FFC00
3FFE00
3FFF00
3FFF00
3E1F80
7C0F80
7C0F80
7C0F80
7C0F80
F80F80
F80F00
001F00
003F00
007E00
07FC00
07F800
07F000
078000
ENDCHAR
STARTCHAR 0496
ENCODING 1174
SWIDTH 488 0
DWIDTH 19 0
BBX 24 30 0 -6
BITMAP
03878F
03C70E
03CF1E
03CF3C
03CF3C
03CE78
01DE70
01DEF0
01DFE0
01FDC0
00FFC0
01FF80
03FF80
03BB80
07FBC0
0F7BC0
0E7BC0
1E79C0
3C71C0
3CF1C0
78F1F0
78F1E0
F0E1E0
F1E1E0
0001E0
0001C0
0001C0
0001C0
0003C0
000380
ENDCHAR
STARTCHAR 0497
ENCODING 1175
SWIDTH 488 0
DWIDTH 19 0
BBX 22 24 0 -5
BITMAP
0C000C
1E0E3C
1F1C7C
1F1CFC
071CF0
071CE0
0739C0
0739C0
07FFC0
07FFC0
07FF80
0E7380
0E7380
0E7380
1EF380
3CE3C0
FCE3E0
F8E3E0
F0E1E0
0001E0
0001C0
0001C0
0001C0
0003C0
ENDCHAR
STARTCHAR 0498
ENCODING 1176
SWIDTH 488 0
DWIDTH 19 0
BBX 20 32 0 -7
BITMAP
000400
01FFC0
03FFE0
03FFF0
01FFF0
0101F0
0000F0
0000F0
0001F0
0003E0
001FE0
01FF80
01FF00
03FF80
03FFC0
0007E0
0003E0
0003E0
0003E0
0007E0
300FC0
3FFFC0
7FFF80
FFFF00
3FFC00
01C000
03C000
00E000
00E000
0FE000
1FC000
060000
ENDCHAR
STARTCHAR 0499
ENCODING 1177
SWIDTH 488 0
DWIDTH 19 0
BBX 17 26 2 -7
BITMAP
01F800
0FFF00
0FFF00
0FFF80
0C1F80
000F80
000F80
001F00
07FE00
07FC00
07FE00
00FF00
001F00
001F00
003F00
7DFF00
FFFE00
FFFC00
FFF000
070000
0F8000
038000
03C000
3F8000
3F0000
0C0000
ENDCHAR
STARTCHAR 049A
ENCODING 1178
SWIDTH 488 0
DWIDTH 19 0
BBX 22 30 1 -6
BITMAP
03E0FC
03C0F8
07C1F0
07C3E0
07C7E0
0787C0
0F8F80
0F9F00
0FBE00
0F7C00
0FF800
1FF000
1FF800
1EF800
1E7C00
3E7C00
3E3E00
3E3E00
3C1F00
7C1F00
7C0FC0
7C0FC0
780FC0
F80F80
000780
000780
000780
000F00
000F00
000F00
ENDCHAR
STARTCHAR 049B
ENCODING 1179
SWIDTH 488 0
DWIDTH 19 0
BBX 19 23 2 -5
BITMAP
0F83E0
0F87C0
0F8F80
0F1F00
1F3E00
1F7C00
1FF800
1FF000
3FF000
3FF000
3EF800
3CF800
7C7C00
7C7C00
7C3F80
783F80
F81F00
F81F00
000F00
000F00
001E00
001E00
001E00
ENDCHAR
STARTCHAR 049C
ENCODING 1180
SWIDTH 488 0
DWIDTH 19 0
BBX 22 24 1 0
BITMAP
07C03C
07807C
078078
0F80F8
0FB9F0
0F39E0
0F33E0
0F77C0
1F7780
1E7F00
1FFE00
1FFC00
3FFE00
3CFE00
3CDF00
3DCF00
7DCF00
79CF80
780780
780780
F80780
F80780
F007C0
F003C0
ENDCHAR
STARTCHAR 049D
ENCODING 1181
SWIDTH 488 0
DWIDTH 19 0
BBX 21 18 1 0
BITMAP
0F0078
0F00F0
0F01F0
1F73E0
1E77C0
1E6F80
1EEF00
3FFE00
3FFE00
3FDE00
3CDF00
7DCF00
79CF00
79CF80
780780
F80780
F80780
F00780
ENDCHAR
STARTCHAR 049E
ENCODING 1182
SWIDTH 488 0
DWIDTH 19 0
BBX 21 26 2 0
BITMAP
03E000
03E000
03C0F8
1FF1F8
1FF1F0
1FF3E0
0787C0
078F80
0F8F80
0F9F00
0F3E00
0F7C00
1FF800
1FF000
1FF000
1EF800
3E7C00
3E7C00
3C3E00
3C3E00
7C1E00
7C1F00
7C1F00
780F00
F80F80
F80F80
ENDCHAR
STARTCHAR 049F
ENCODING 1183
SWIDTH 488 0
DWIDTH 19 0
BBX 20 20 2 0
BITMAP
078000
078000
3FE3F0
3FE7E0
0F0FC0
0F1F80
1F3F00
1F7C00
1FF800
1FF000
3FF000
3FF000
3EF800
3CFC00
7C7C00
7C3E00
7C3E00
783F00
F81F00
F81F00
ENDCHAR
STARTCHAR 04A0
ENCODING 1184
SWIDTH 488 0
DWIDTH 19 0
BBX 21 24 3 0
BITMAP
3FC1F8
3FC1F0
3FC3E0
3FC7C0
078FC0
078F80
0F9F00
0FBE00
0F7C00
0FF800
1FF000
1FF000
1FF000
1EF800
3EF800
3E7C00
3C7C00
3C7C00
7C3E00
7C3E00
7C3E00
781E00
781F00
F81F00
ENDCHAR
STARTCHAR 04A1
ENCODING 1185
SWIDTH 488 0
DWIDTH 19 0
BBX 19 18 3 0
BITMAP
7F87E0
7F8FC0
7F1F80
7F1F00
1F3E00
1F7C00
1EF800
1FF000
3FE000
3FF000
3CF800
3CF800
7C7C00
7C7C00
787C00
783E00
783E00
F83E00
ENDCHAR
STARTCHAR 04A2
ENCODING 1186
SWIDTH 488 0
DWIDTH 19 0
BBX 21 30 1 -6
BITMAP
03C0F8
07C0F8
07C0F0
07C1F0
0781F0
0F81F0
0F81E0
0F83E0
0F03E0
0FFFE0
1FFFC0
1FFFC0
1FFFC0
1E07C0
3E0780
3E0F80
3E0F80
3C0F80
7C0F00
7C1F00
7C1FC0
781F80
F81F80
F83F80
000F80
000F00
000F00
001F00
001F00
001E00
ENDCHAR
STARTCHAR 04A3
ENCODING 1187
SWIDTH 488 0
DWIDTH 19 0
BBX 18 23 2 -5
BITMAP
0F07C0
0F07C0
1F07C0
1F0780
1F0F80
1E0F80
3E0F80
3FFF00
3FFF00
3FFF00
7FFF00
7C1F00
7C1E00
783E00
F83F00
F83F00
F83F00
F07F00
001F00
001E00
001E00
003E00
003E00
ENDCHAR
STARTCHAR 04A4
ENCODING 1188
SWIDTH 488 0
DWIDTH 19 0
BBX 23 24 1 0
BITMAP
03C1FE
07C1FE
07C1FE
07C1FC
07C3E0
0F83E0
0F83E0
0F83E0
0F83C0
1FFFC0
1FFFC0
1FFFC0
1FFF80
1E0F80
3E0F80
3E0F80
3E0F00
3C1F00
7C1F00
7C1F00
7C1E00
783E00
F83E00
F83E00
ENDCHAR
STARTCHAR 04A5
ENCODING 1189
SWIDTH 488 0
DWIDTH 19 0
BBX 20 18 2 0
BITMAP
0F8FF0
0F0FF0
1F0FF0
1F1FE0
1F1F00
1E1F00
3E1E00
3FFE00
3FFE00
3FFE00
7FFC00
7C7C00
7C7C00
787C00
F87C00
F8F800
F8F800
F0F800
ENDCHAR
STARTCHAR 04A6
ENCODING 1190
SWIDTH 488 0
DWIDTH 19 0
BBX 19 30 1 -6
BITMAP
07FE00
07FE00
07FE00
0FFE00
0F1C00
0F3C00
0F3C00
0E3C00
1E3800
1E7F80
1E7FC0
1C7FC0
3C73C0
3CF1E0
3CF1E0
38F1E0
78E1E0
79E1C0
79E3C0
71E3C0
F1C3C0
F3C3C0
F3C780
E3C780
000F80
000F00
001E00
00FE00
00FC00
00F000
ENDCHAR
STARTCHAR 04A7
ENCODING 1191
SWIDTH 488 0
DWIDTH 19 0
BBX 19 25 0 -6
BITMAP
00C000
0FF800
0FF800
1FFC00
1E3C00
1E3C00
1E3C00
3C3C00
3C3FC0
3C3FC0
3C7FE0
387BE0
7879E0
7871E0
78F1E0
70F1E0
F0F1E0
F0E1E0
F1E1C0
0003C0
0007C0
000F80
003F00
007E00
007C00
ENDCHAR
STARTCHAR 04A8
ENCODING 1192
SWIDTH 488 0
DWIDTH 19 0
BBX 19 31 2 -6
BITMAP
000E00
00FFE0
01FFC0
03FFC0
07FF80
0FC000
1F0000
3E0000
3E1F80
3C3FC0
7C7FC0
787FE0
78F1E0
F8E1E0
F9E1E0
F1E3E0
F1C3C0
F3C3C0
F3C7C0
FBC780
7BCF80
7FFF00
3FFE00
3FFC00
0FF000
03E000
01F000
01FC00
00FE00
007E00
003C00
ENDCHAR
STARTCHAR 04A9
ENCODING 1193
SWIDTH 488 0
DWIDTH 19 0
BBX 18 24 2 -5
BITMAP
007E00
03FF00
07FE00
0FFE00
1FC000
3F0000
3C0000
7C3F00
787F80
78FF80
F9F3C0
F9E3C0
F9E3C0
FBC780
7BC780
7FCF00
3FFF00
3FFC00
0FF800
01E000
01F000
00FE00
007E00
003C00
ENDCHAR
STARTCHAR 04AA
ENCODING 1194
SWIDTH 488 0
DWIDTH 19 0
BBX 19 32 3 -7
BITMAP
000E00
00FFC0
01FFE0
03FFE0
07FFC0
0FC040
1F8000
1F0000
3E0000
3E0000
7C0000
7C0000
7C0000
7C0000
780000
F80000
F80000
F80000
F80000
7C0000
7E0400
7FFE00
3FFE00
1FFE00
0FFC00
038000
078000
03C000
01C000
1FC000
3F8000
0C0000
ENDCHAR
STARTCHAR 04AB
ENCODING 1195
SWIDTH 488 0
DWIDTH 19 0
BBX 18 26 3 -7
BITMAP
003E00
03FFC0
07FF80
1FFF80
1FF700
3F0000
7E0000
7C0000
F80000
F80000
F80000
F80000
F80000
F80000
FC0000
7FFC00
7FFE00
3FFE00
0FFC00
038000
03C000
01E000
01E000
1FC000
1FC000
060000
ENDCHAR
STARTCHAR 04AC
ENCODING 1196
SWIDTH 488 0
DWIDTH 19 0
BBX 18 30 5 -6
BITMAP
7FFFC0
7FFFC0
FFFFC0
FFFFC0
03E000
03E000
03E000
07C000
07C000
07C000
07C000
078000
0F8000
0F8000
0F8000
0F0000
1F0000
1F0000
1F0000
1E0000
3F8000
3F8000
3F8000
3F8000
0F8000
0F0000
0F0000
1F0000
1F0000
1E0000
ENDCHAR
STARTCHAR 04AD
ENCODING 1197
SWIDTH 488 0
DWIDTH 19 0
BBX 19 23 1 -5
BITMAP
0FF7C0
0FFFE0
0FFFE0
1E79E0
1E79E0
1E79E0
1C79E0
3C71E0
3CF3C0
3CF3C0
38F3C0
7803C0
780780
780780
7007C0
F007C0
F007C0
F00FC0
000380
000780
000780
000780
000700
ENDCHAR
STARTCHAR 04AE
ENCODING 1198
SWIDTH 488 0
DWIDTH 19 0
BBX 18 24 6 0
BITMAP
F007C0
F00F80
F81F00
F81F00
F83E00
F83E00
787C00
78F800
7CF000
7DF000
3FE000
3FC000
3FC000
3F8000
1F0000
1F0000
3E0000
3E0000
3E0000
3E0000
7C0000
7C0000
7C0000
7C0000
ENDCHAR
STARTCHAR 04AF
ENCODING 1199
SWIDTH 488 0
DWIDTH 19 0
BBX 17 24 4 -6
BITMAP
F80F80
F80F80
F81F00
F81F00
F81F00
783E00
783C00
7C7C00
7C7800
7CF800
7DF000
7DF000
3FE000
3FC000
3FC000
3F8000
3F0000
1E0000
3E0000
3E0000
3E0000
3C0000
7C0000
7C0000
ENDCHAR
STARTCHAR 04B0
ENCODING 1200
SWIDTH 488 0
DWIDTH 19 0
BBX 21 24 3 0
BITMAP
1E00F8
1E01F0
1F03E0
1F03E0
1F07C0
1F07C0
0F0F80
0F1F00
0F9E00
0FBE00
07FC00
07F800
07F000
07F000
7FFF00
7FFE00
7FFE00
FFFE00
07C000
07C000
0F8000
0F8000
0F8000
0F8000
ENDCHAR
STARTCHAR 04B1
ENCODING 1201
SWIDTH 488 0
DWIDTH 19 0
BBX 19 24 2 -6
BITMAP
3E03E0
3E03E0
3E07C0
3E07C0
3E07C0
1E0F80
1E0F00
1F1F00
1F1E00
1F3E00
1F7C00
0F7800
0FF800
0FF000
0FE000
7FFC00
FFFC00
FFFC00
0F8000
0F8000
0F8000
0F0000
1F0000
1F0000
ENDCHAR
STARTCHAR 04B2
ENCODING 1202
SWIDTH 488 0
DWIDTH 19 0
BBX 21 28 1 -6
BITMAP
07C0F8
03C1F0
03C1E0
03C3C0
01E7C0
01E780
01EF00
00FE00
00FE00
00FC00
00F800
00F800
01FC00
03FC00
07FC00
07BC00
0F1E00
1F1E00
1E1F80
3E1F80
7C1F80
F80F80
000F00
000F00
000F00
000F00
001E00
001E00
ENDCHAR
STARTCHAR 04B3
ENCODING 1203
SWIDTH 488 0
DWIDTH 19 0
BBX 19 23 1 -5
BITMAP
0F83E0
0F87C0
0F87C0
07CF80
07DF00
03FE00
03FC00
03FC00
01F800
03F800
07F800
07FC00
0FFC00
1F3E00
3E3FC0
7E1F80
7C1F80
F81F80
000F80
000F00
000F00
000F00
001F00
ENDCHAR
STARTCHAR 04B4
ENCODING 1204
SWIDTH 488 0
DWIDTH 19 0
BBX 19 30 3 -6
BITMAP
3FF9E0
3FF9E0
3FF1E0
7FF3E0
0F83C0
0F03C0
0F03C0
0F07C0
1F07C0
1E0780
1E0780
1E0780
1E0F80
3E0F00
3C0F00
3C0F00
3C1F00
7C1E00
781E00
781E00
7FFF00
FFFF00
FFFF00
FFFF00
001E00
001E00
001E00
001E00
003C00
003C00
ENDCHAR
STARTCHAR 04B5
ENCODING 1205
SWIDTH 488 0
DWIDTH 19 0
BBX 17 23 3 -5
BITMAP
7FE780
7FE780
FFC780
FFCF00
1E0F00
3C0F00
3C0F00
3C1E00
3C1E00
7C1E00
781E00
783E00
783C00
783C00
7EFE00
7FFF00
3FFF00
1F8E00
001E00
001E00
001E00
001C00
003C00
ENDCHAR
STARTCHAR 04B6
ENCODING 1206
SWIDTH 488 0
DWIDTH 19 0
BBX 18 30 4 -6
BITMAP
3E07C0
3E07C0
3E0F80
3C0F80
7C0F80
7C0F80
7C1F00
781F00
F81F00
F81F00
F81E00
FC3E00
7FFE00
7FFE00
3FFC00
1FFC00
007C00
007C00
007800
00F800
00FE00
00FC00
00FC00
01FC00
007C00
007800
007800
00F800
00F800
00F000
ENDCHAR
STARTCHAR 04B7
ENCODING 1207
SWIDTH 488 0
DWIDTH 19 0
BBX 16 23 4 -5
BITMAP
7C1F
7C1F
7C1F
783E
F83E
F83E
F83E
F83C
FFFC
FFFC
7FFC
3FF8
00F8
00F8
00FC
00FC
01FC
01FC
0078
0078
0078
00F8
00F0
ENDCHAR
STARTCHAR 04B8
ENCODING 1208
SWIDTH 488 0
DWIDTH 19 0
BBX 19 24 4 0
BITMAP
3E03E0
3E03E0
3E03C0
7C07C0
7C07C0
7C07C0
7C0780
F80F80
F9CF80
F9CF80
F9CF00
FD9F00
FFFF00
7FFF00
3FFE00
0FFE00
033E00
073E00
073E00
067C00
007C00
007C00
007C00
007800
ENDCHAR
STARTCHAR 04B9
ENCODING 1209
SWIDTH 488 0
DWIDTH 19 0
BBX 17 18 4 0
BITMAP
7C0F80
7C0F80
780F80
F80F00
F81F00
F99F00
FB9F00
FB9E00
FFFE00
FFFE00
7FFE00
3FFE00
077C00
067C00
0E7C00
007C00
00F800
00F800
ENDCHAR
STARTCHAR 04BA
ENCODING 1210
SWIDTH 488 0
DWIDTH 19 0
BBX 18 24 1 0
BITMAP
03E000
03E000
07C000
07C000
07C000
07C000
0F8000
0F8000
0FFF00
0FFF80
0FFFC0
1FFFC0
1F07C0
1F07C0
1E07C0
3E07C0
3E07C0
3E07C0
3C07C0
7C0F80
7C0F80
7C0F80
780F80
F81F00
ENDCHAR
STARTCHAR 04BB
ENCODING 1211
SWIDTH 488 0
DWIDTH 19 0
BBX 17 27 2 0
BITMAP
00E000
03E000
03C000
07C000
07C000
07C000
078000
0F8000
0FB800
0FFF00
0FFF80
1FFF80
1FFF80
1F0F80
1F0F80
3E0F80
3E0F80
3E0F80
3E0F80
7C1F00
7C1F00
7C1F00
7C1F00
781E00
F83E00
F83E00
F83E00
ENDCHAR
STARTCHAR 04BC
ENCODING 1212
SWIDTH 488 0
DWIDTH 19 0
BBX 19 26 3 -1
BITMAP
000E00
003F80
007FC0
00FFC0
01F3E0
01E1E0
73E1E0
73C1E0
F3C1E0
F7C3E0
FF83C0
FFFFC0
7FFFC0
3FFFC0
0F0000
0F0000
0F0000
0F0000
0F0000
0F0000
0F0200
0FCE00
0FFE00
07FE00
03FC00
004000
ENDCHAR
STARTCHAR 04BD
ENCODING 1213
SWIDTH 488 0
DWIDTH 19 0
BBX 19 19 2 0
BITMAP
000F00
003FC0
00FFC0
01FFE0
01F1E0
F3E1E0
F3C1E0
E783E0
F787C0
FFFF80
7FFF00
3FFC00
0F8000
0F8000
0F8000
07C700
07FF00
03FF00
01FE00
ENDCHAR
STARTCHAR 04BE
ENCODING 1214
SWIDTH 488 0
DWIDTH 19 0
BBX 19 30 3 -5
BITMAP
000E00
003F80
007FC0
00FFC0
01F3E0
01E1E0
73E1E0
73C1E0
F3C1E0
F7C3E0
FF83C0
FFFFC0
7FFFC0
3FFFC0
0F0000
0F0000
0F0000
0F0000
0F0000
0F0000
0F0200
0FCE00
0FFE00
07FE00
03FC00
01E000
01E000
01E000
03C000
03C000
ENDCHAR
ENDFONT
